NotoSerifTamilSlanted-SemiCondensedMedium.ufo
<glyph name="exclam" format="2">
  <advance width="329.4563218390805"/>
  <unicode hex="0021"/>
  <outline>
    <contour>
      <point x="125.2758620689655" y="209.27011494252872" type="line"/>
      <point x="179.4505747126437" y="209.27011494252872" type="line"/>
      <point x="326.6413793103448" y="714.0" type="line"/>
      <point x="199.62298850574712" y="714.0" type="line"/>
    </contour>
    <contour>
      <point x="122.13678160919541" y="-8.0" type="curve" smooth="yes"/>
      <point x="157.88620689655173" y="-8.0"/>
      <point x="194.17816091954023" y="15.386206896551723"/>
      <point x="194.17816091954023" y="76.12528735632185" type="curve" smooth="yes"/>
      <point x="194.17816091954023" y="114.75632183908046"/>
      <point x="169.10689655172416" y="134.65747126436784"/>
      <point x="134.02528735632183" y="134.65747126436784" type="curve" smooth="yes"/>
      <point x="95.41954022988506" y="134.65747126436784"/>
      <point x="61.819540229885064" y="104.76436781609195"/>
      <point x="61.819540229885064" y="51.65172413793103" type="curve" smooth="yes"/>
      <point x="61.819540229885064" y="12.86551724137931"/>
      <point x="86.44022988505748" y="-8.0"/>
    </contour>
  </outline>
</glyph>
<glyph name="quotedbl" format="2">
  <advance width="406.783908045977"/>
  <unicode hex="0022"/>
  <outline>
    <contour>
      <point x="131.20459770114945" y="470.14022988505747" type="line"/>
      <point x="180.48390804597702" y="470.14022988505747" type="line"/>
      <point x="269.52183908045976" y="714.0" type="line"/>
      <point x="154.5080459770115" y="714.0" type="line"/>
    </contour>
    <contour>
      <point x="315.34252873563224" y="470.14022988505747" type="line"/>
      <point x="364.5206896551724" y="470.14022988505747" type="line"/>
      <point x="453.55862068965513" y="714.0" type="line"/>
      <point x="338.9114942528736" y="714.0" type="line"/>
    </contour>
  </outline>
</glyph>
<glyph name="numbersign" format="2">
  <advance width="518.4390804597701"/>
  <unicode hex="0023"/>
  <outline>
    <contour>
      <point x="53.44137931034483" y="0.0" type="line"/>
      <point x="112.9735632183908" y="0.0" type="line"/>
      <point x="170.8735632183908" y="202.27356321839082" type="line"/>
      <point x="292.0758620689655" y="202.27356321839082" type="line"/>
      <point x="234.71724137931034" y="0.0" type="line"/>
      <point x="293.8827586206897" y="0.0" type="line"/>
      <point x="351.2413793103449" y="202.27356321839082" type="line"/>
      <point x="463.77356321839085" y="202.27356321839082" type="line"/>
      <point x="471.1402298850575" y="263.7287356321839" type="line"/>
      <point x="370.69195402298857" y="263.7287356321839" type="line"/>
      <point x="425.22298850574714" y="456.2609195402299" type="line"/>
      <point x="521.4068965517241" y="456.2609195402299" type="line"/>
      <point x="528.5908045977012" y="517.7264367816092" type="line"/>
      <point x="443.22528735632187" y="517.7264367816092" type="line"/>
      <point x="499.583908045977" y="714.0" type="line"/>
      <point x="440.15287356321835" y="714.0" type="line"/>
      <point x="383.7942528735632" y="517.7264367816092" type="line"/>
      <point x="262.5919540229885" y="517.7264367816092" type="line"/>
      <point x="318.57356321839086" y="714.0" type="line"/>
      <point x="258.5091954022989" y="714.0" type="line"/>
      <point x="203.4264367816092" y="517.7264367816092" type="line"/>
      <point x="91.38735632183908" y="517.7264367816092" type="line"/>
      <point x="84.46896551724137" y="456.2609195402299" type="line"/>
      <point x="185.4241379310345" y="456.2609195402299" type="line"/>
      <point x="129.89310344827587" y="263.7287356321839" type="line"/>
      <point x="33.47816091954024" y="263.7287356321839" type="line"/>
      <point x="26.111494252873563" y="202.27356321839082" type="line"/>
      <point x="111.70804597701151" y="202.27356321839082" type="line"/>
    </contour>
    <contour>
      <point x="189.416091954023" y="263.7287356321839" type="line"/>
      <point x="244.48850574712645" y="456.2609195402299" type="line"/>
      <point x="365.96666666666664" y="456.2609195402299" type="line"/>
      <point x="311.1597701149425" y="263.7287356321839" type="line"/>
    </contour>
  </outline>
</glyph>
<glyph name="percent" format="2">
  <advance width="836.2586206896551"/>
  <unicode hex="0025"/>
  <outline>
    <contour>
      <point x="161.1183908045977" y="0.0" type="line"/>
      <point x="231.35402298850576" y="0.0" type="line"/>
      <point x="702.7126436781609" y="714.0" type="line"/>
      <point x="636.2001379310344" y="714.0" type="line"/>
    </contour>
    <contour>
      <point x="190.8620689655172" y="280.7241379310345" type="curve" smooth="yes"/>
      <point x="335.4551724137931" y="280.7241379310345"/>
      <point x="400.90919540229885" y="463.932183908046"/>
      <point x="400.90919540229885" y="571.2954022988506" type="curve" smooth="yes"/>
      <point x="400.90919540229885" y="661.3747126436782"/>
      <point x="363.1057471264367" y="723.2758620689655"/>
      <point x="275.7" y="723.2758620689655" type="curve" smooth="yes"/>
      <point x="133.63908045977013" y="723.2758620689655"/>
      <point x="69.6528735632184" y="546.8655172413794"/>
      <point x="69.6528735632184" y="431.97816091954024" type="curve"/>
      <point x="69.6528735632184" y="330.25747126436784"/>
      <point x="116.63218390804599" y="280.7241379310345"/>
    </contour>
    <contour>
      <point x="197.89310344827587" y="323.91379310344826" type="curve" smooth="yes"/>
      <point x="164.46206896551723" y="323.91379310344826"/>
      <point x="152.3793103448276" y="358.8126436781609"/>
      <point x="152.3793103448276" y="416.9747126436782" type="curve" smooth="yes"/>
      <point x="152.3793103448276" y="504.5908045977012"/>
      <point x="194.6632183908046" y="680.4333333333333"/>
      <point x="271.5080459770115" y="680.4333333333333" type="curve" smooth="yes"/>
      <point x="305.2149425287356" y="680.4333333333333"/>
      <point x="317.02183908045976" y="646.2781609195401"/>
      <point x="317.02183908045976" y="587.9517241379311" type="curve" smooth="yes"/>
      <point x="317.02183908045976" y="499.95862068965516"/>
      <point x="274.73793103448276" y="323.91379310344826"/>
    </contour>
    <contour>
      <point x="592.8436781609196" y="-8.450574712643677" type="curve" smooth="yes"/>
      <point x="737.4367816091954" y="-8.450574712643677"/>
      <point x="802.5241379310345" y="175.02298850574712"/>
      <point x="802.5241379310345" y="282.019540229885" type="curve" smooth="yes"/>
      <point x="802.5241379310345" y="372.0988505747126"/>
      <point x="764.8218390804598" y="434.0"/>
      <point x="677.3149425287357" y="434.0" type="curve" smooth="yes"/>
      <point x="535.3551724137931" y="434.0"/>
      <point x="471.63448275862066" y="257.6908045977011"/>
      <point x="471.63448275862066" y="142.7022988505747" type="curve"/>
      <point x="471.63448275862066" y="41.08275862068965"/>
      <point x="518.512643678161" y="-8.450574712643677"/>
    </contour>
    <contour>
      <point x="599.6724137931035" y="34.739080459770115" type="curve" smooth="yes"/>
      <point x="566.0770114942529" y="34.739080459770115"/>
      <point x="553.9942528735633" y="69.5367816091954"/>
      <point x="553.9942528735633" y="128.33103448275864" type="curve" smooth="yes"/>
      <point x="553.9942528735633" y="215.31494252873563"/>
      <point x="596.5436781609196" y="391.2586206896552"/>
      <point x="673.1229885057471" y="391.2586206896552" type="curve" smooth="yes"/>
      <point x="707.0954022988507" y="391.2586206896552"/>
      <point x="718.9022988505748" y="356.7367816091954"/>
      <point x="718.9022988505748" y="298.6758620689655" type="curve" smooth="yes"/>
      <point x="718.9022988505748" y="210.68275862068964"/>
      <point x="676.7195402298851" y="34.739080459770115"/>
    </contour>
  </outline>
</glyph>
<glyph name="quotesingle" format="2">
  <advance width="224.6183908045977"/>
  <unicode hex="0027"/>
  <outline>
    <contour>
      <point x="130.6471264367816" y="470.14022988505747" type="line"/>
      <point x="179.92643678160923" y="470.14022988505747" type="line"/>
      <point x="265.67471264367816" y="714.0" type="line"/>
      <point x="151.02758620689656" y="714.0" type="line"/>
    </contour>
  </outline>
</glyph>
<glyph name="parenleft" format="2">
  <advance width="338.71954022988507"/>
  <unicode hex="0028"/>
  <outline>
    <contour>
      <point x="217.7574712643678" y="-130.4655172413793" type="curve"/>
      <point x="228.95172413793102" y="-80.5367816091954" type="line"/>
      <point x="168.09425287356322" y="-33.820689655172416"/>
      <point x="147.83563218390805" y="55.64942528735633"/>
      <point x="147.83563218390805" y="137.8873563218391" type="curve" smooth="yes"/>
      <point x="147.83563218390805" y="272.4758620689655"/>
      <point x="198.01839080459771" y="597.4206896551724"/>
      <point x="397.5747126436782" y="713.8126436781608" type="curve"/>
      <point x="407.41034482758624" y="762.3747126436781" type="line"/>
      <point x="161.71954022988504" y="693.5712643678161"/>
      <point x="41.36781609195402" y="419.9862068965517"/>
      <point x="41.36781609195402" y="177.97126436781608" type="curve" smooth="yes"/>
      <point x="41.36781609195402" y="41.52413793103448"/>
      <point x="93.43448275862069" y="-77.38045977011494"/>
    </contour>
  </outline>
</glyph>
<glyph name="parenright" format="2">
  <advance width="338.71954022988507"/>
  <unicode hex="0029"/>
  <outline>
    <contour>
      <point x="-45.98965517241379" y="-136.4505747126437" type="line"/>
      <point x="200.06781609195403" y="-67.3816091954023"/>
      <point x="319.78735632183907" y="206.30459770114942"/>
      <point x="319.78735632183907" y="448.2183908045977" type="curve" smooth="yes"/>
      <point x="319.78735632183907" y="584.6655172413793"/>
      <point x="268.2517241379311" y="703.2034482758621"/>
      <point x="143.66321839080462" y="756.3896551724138" type="curve"/>
      <point x="132.83563218390805" y="706.7264367816092" type="line"/>
      <point x="193.3264367816092" y="660.0103448275862"/>
      <point x="213.48390804597702" y="570.6413793103447"/>
      <point x="213.48390804597702" y="488.3022988505747" type="curve" smooth="yes"/>
      <point x="213.48390804597702" y="354.08045977011494"/>
      <point x="163.76896551724138" y="29.03448275862069"/>
      <point x="-35.88850574712643" y="-87.52183908045977" type="curve"/>
    </contour>
  </outline>
</glyph>
<glyph name="asterisk" format="2">
  <advance width="494.7218390804598"/>
  <unicode hex="002A"/>
  <outline>
    <contour>
      <point x="325.57471264367814" y="369.8988505747127" type="line"/>
      <point x="331.04712643678164" y="531.0862068965517" type="line"/>
      <point x="449.58505747126435" y="406.0609195402299" type="line"/>
      <point x="501.6873563218391" y="478.0" type="line"/>
      <point x="363.048275862069" y="558.5344827586207" type="line"/>
      <point x="521.3080459770115" y="570.0712643678161" type="line"/>
      <point x="504.2298850574712" y="659.2781609195403" type="line"/>
      <point x="345.5885057471265" y="596.8126436781608" type="line"/>
      <point x="406.4022988505747" y="745.7218390804597" type="line"/>
      <point x="319.77816091954026" y="765.0" type="line"/>
      <point x="311.8655172413793" y="602.7218390804597" type="line"/>
      <point x="195.32758620689657" y="732.2781609195403" type="line"/>
      <point x="142.50114942528737" y="657.8988505747126" type="line"/>
      <point x="280.9471264367816" y="576.5494252873563" type="line"/>
      <point x="122.87011494252874" y="563.6356321839081" type="line"/>
      <point x="140.22413793103448" y="475.0712643678161" type="line"/>
      <point x="297.8655172413793" y="538.8126436781608" type="line"/>
      <point x="238.9609195402299" y="388.8103448275862" type="line"/>
    </contour>
  </outline>
</glyph>
<glyph name="plus" format="2">
  <advance width="509.8666666666667"/>
  <unicode hex="002B"/>
  <outline>
    <contour>
      <point x="229.95977011494253" y="143.0" type="line"/>
      <point x="292.435632183908" y="143.0" type="line"/>
      <point x="292.435632183908" y="326.81264367816095" type="line"/>
      <point x="460.1528735632184" y="326.81264367816095" type="line"/>
      <point x="460.1528735632184" y="388.18735632183905" type="line"/>
      <point x="292.435632183908" y="388.18735632183905" type="line"/>
      <point x="292.435632183908" y="572.0" type="line"/>
      <point x="229.95977011494253" y="572.0" type="line"/>
      <point x="229.95977011494253" y="388.18735632183905" type="line"/>
      <point x="63.14137931034483" y="388.18735632183905" type="line"/>
      <point x="63.14137931034483" y="326.81264367816095" type="line"/>
      <point x="229.95977011494253" y="326.81264367816095" type="line"/>
    </contour>
  </outline>
</glyph>
<glyph name="comma" format="2">
  <advance width="249.58505747126432"/>
  <unicode hex="002C"/>
  <outline>
    <contour>
      <point x="-24.25977011494253" y="-147.27816091954023" type="line"/>
      <point x="99.80344827586207" y="-121.45057471264367"/>
      <point x="159.45747126436783" y="-43.785057471264366"/>
      <point x="159.45747126436783" y="49.14942528735632" type="curve" smooth="yes"/>
      <point x="159.45747126436783" y="102.76666666666668"/>
      <point x="125.5632183908046" y="133.39195402298853"/>
      <point x="85.30919540229887" y="133.39195402298853" type="curve" smooth="yes"/>
      <point x="51.32298850574713" y="133.39195402298853"/>
      <point x="22.858620689655172" y="111.47126436781609"/>
      <point x="22.858620689655172" y="71.26666666666667" type="curve" smooth="yes"/>
      <point x="22.858620689655172" y="18.55632183908046"/>
      <point x="78.44712643678162" y="18.098850574712642"/>
      <point x="78.44712643678162" y="-18.254022988505746" type="curve" smooth="yes"/>
      <point x="78.44712643678162" y="-58.44597701149425"/>
      <point x="45.91264367816092" y="-87.17011494252874"/>
      <point x="-17.69655172413793" y="-102.81264367816091" type="curve"/>
    </contour>
  </outline>
</glyph>
<glyph name="hyphen" format="2">
  <advance width="287.57011494252873"/>
  <unicode hex="002D"/>
  <outline>
    <contour>
      <point x="15.463218390804597" y="231.89885057471264" type="line"/>
      <point x="256.5988505747126" y="231.89885057471264" type="line"/>
      <point x="274.89655172413796" y="313.1011494252873" type="line"/>
      <point x="33.65977011494253" y="313.1011494252873" type="line"/>
    </contour>
  </outline>
</glyph>
<glyph name="period" format="2">
  <advance width="249.58505747126432"/>
  <unicode hex="002E"/>
  <outline>
    <contour>
      <point x="87.68965517241378" y="-8.0" type="curve" smooth="yes"/>
      <point x="123.43908045977012" y="-8.0"/>
      <point x="159.99655172413793" y="15.386206896551723"/>
      <point x="159.99655172413793" y="77.95977011494253" type="curve" smooth="yes"/>
      <point x="159.99655172413793" y="114.75632183908046"/>
      <point x="134.65977011494255" y="134.65747126436784"/>
      <point x="99.57816091954024" y="134.65747126436784" type="curve" smooth="yes"/>
      <point x="60.97241379310345" y="134.65747126436784"/>
      <point x="27.372413793103448" y="104.76436781609195"/>
      <point x="27.372413793103448" y="49.81724137931035" type="curve" smooth="yes"/>
      <point x="27.372413793103448" y="12.86551724137931"/>
      <point x="51.99310344827586" y="-8.0"/>
    </contour>
  </outline>
</glyph>
<glyph name="slash" format="2">
  <advance width="267.30229885057474"/>
  <unicode hex="002F"/>
  <outline>
    <contour>
      <point x="-91.52298850574714" y="-121.0" type="line"/>
      <point x="-28.355172413793102" y="-121.0" type="line"/>
      <point x="371.8126436781609" y="760.0" type="line"/>
      <point x="308.0126436781609" y="760.0" type="line"/>
    </contour>
  </outline>
</glyph>
<glyph name="zero" format="2">
  <advance width="525.5954022988507"/>
  <unicode hex="0030"/>
  <outline>
    <contour>
      <point x="222.45287356321842" y="-11.0" type="curve" smooth="yes"/>
      <point x="425.18275862068964" y="-11.0"/>
      <point x="513.6494252873563" y="304.59540229885056"/>
      <point x="513.6494252873563" y="502.7643678160919" type="curve" smooth="yes"/>
      <point x="513.6494252873563" y="656.7321839080461"/>
      <point x="435.5298850574713" y="724.7344827586206"/>
      <point x="335.85747126436786" y="724.7344827586206" type="curve" smooth="yes"/>
      <point x="134.11724137931034" y="724.7344827586206"/>
      <point x="42.282758620689656" y="428.1379310344828"/>
      <point x="42.282758620689656" y="223.50229885057473" type="curve" smooth="yes"/>
      <point x="42.282758620689656" y="70.8"/>
      <point x="114.60459770114942" y="-11.0"/>
    </contour>
    <contour>
      <point x="230.00229885057473" y="47.01724137931034" type="curve" smooth="yes"/>
      <point x="177.51954022988502" y="47.01724137931034"/>
      <point x="145.27241379310342" y="92.70114942528735"/>
      <point x="145.27241379310342" y="193.27011494252872" type="curve" smooth="yes"/>
      <point x="145.27241379310342" y="363.19885057471265"/>
      <point x="204.86666666666667" y="667.7172413793103"/>
      <point x="327.66666666666663" y="667.7172413793103" type="curve" smooth="yes"/>
      <point x="382.1494252873563" y="667.7172413793103"/>
      <point x="412.3045977011494" y="622.0333333333333"/>
      <point x="412.3045977011494" y="523.7298850574712" type="curve" smooth="yes"/>
      <point x="412.3045977011494" y="354.26091954022985"/>
      <point x="355.26206896551724" y="47.01724137931034"/>
    </contour>
  </outline>
</glyph>
<glyph name="one" format="2">
  <advance width="525.5954022988507"/>
  <unicode hex="0031"/>
  <outline>
    <contour>
      <point x="38.32413793103448" y="0.0" type="line"/>
      <point x="396.1954022988506" y="0.0" type="line"/>
      <point x="405.74712643678157" y="44.46551724137931" type="line"/>
      <point x="357.3241379310345" y="44.46551724137931" type="line" smooth="yes"/>
      <point x="318.7149425287356" y="44.46551724137931"/>
      <point x="290.3632183908046" y="49.91379310344828"/>
      <point x="290.3632183908046" y="82.00344827586207" type="curve" smooth="yes"/>
      <point x="290.3632183908046" y="88.82068965517242"/>
      <point x="292.8137931034483" y="103.732183908046"/>
      <point x="295.8126436781609" y="116.92873563218392" type="curve" smooth="yes"/>
      <point x="423.3632183908046" y="718.0" type="line"/>
      <point x="348.59999999999997" y="718.0" type="line"/>
      <point x="272.99885057471266" y="666.0" type="line" smooth="yes"/>
      <point x="201.66436781609195" y="617.0"/>
      <point x="160.41149425287355" y="601.0"/>
      <point x="117.6103448275862" y="589.0" type="curve"/>
      <point x="117.14252873563218" y="554.5218390804598"/>
      <point x="130.78045977011493" y="530.8862068965517"/>
      <point x="156.6816091954023" y="530.8862068965517" type="curve" smooth="yes"/>
      <point x="196.3816091954023" y="530.8862068965517"/>
      <point x="234.93333333333334" y="569.4183908045977"/>
      <point x="297.264367816092" y="634.8862068965517" type="curve"/>
      <point x="300.632183908046" y="634.8862068965517" type="line"/>
      <point x="288.4011494252874" y="590.7241379310344"/>
      <point x="276.6862068965517" y="540.4620689655171"/>
      <point x="264.7988505747127" y="483.6310344827586" type="curve" smooth="yes"/>
      <point x="186.80919540229885" y="114.63563218390804" type="line" smooth="yes"/>
      <point x="174.27011494252872" y="55.204597701149424"/>
      <point x="140.65747126436779" y="44.46551724137931"/>
      <point x="98.4057471264368" y="44.46551724137931" type="curve" smooth="yes"/>
      <point x="47.15172413793103" y="44.46551724137931" type="line"/>
    </contour>
  </outline>
</glyph>
<glyph name="two" format="2">
  <advance width="525.5954022988507"/>
  <unicode hex="0032"/>
  <outline>
    <contour>
      <point x="-12.644827586206898" y="0.0" type="line"/>
      <point x="401.9172413793104" y="0.0" type="line"/>
      <point x="445.032183908046" y="179.3183908045977" type="line"/>
      <point x="400.2137931034482" y="179.3183908045977" type="line"/>
      <point x="393.4793103448276" y="163.13333333333333" type="line" smooth="yes"/>
      <point x="377.1218390804598" y="124.30574712643678"/>
      <point x="356.4954022988506" y="86.40459770114943"/>
      <point x="298.9666666666667" y="86.40459770114943" type="curve" smooth="yes"/>
      <point x="83.72183908045977" y="86.40459770114943" type="line"/>
      <point x="290.3540229885058" y="277.79195402298853" type="line" smooth="yes"/>
      <point x="434.19885057471265" y="406.6229885057471"/>
      <point x="500.49770114942527" y="485.85977011494253"/>
      <point x="500.49770114942527" y="582.1942528735633" type="curve" smooth="yes"/>
      <point x="500.49770114942527" y="669.4597701149426"/>
      <point x="438.33103448275864" y="724.0"/>
      <point x="319.7563218390805" y="724.0" type="curve" smooth="yes"/>
      <point x="185.61379310344824" y="724.0"/>
      <point x="110.01149425287358" y="655.451724137931"/>
      <point x="110.01149425287358" y="584.1609195402298" type="curve" smooth="yes"/>
      <point x="110.01149425287358" y="537.0689655172414"/>
      <point x="143.91264367816092" y="516.5954022988507"/>
      <point x="190.367816091954" y="516.5954022988507" type="curve"/>
      <point x="201.00689655172414" y="599.8988505747126"/>
      <point x="239.9873563218391" y="671.6252873563219"/>
      <point x="312.6436781609196" y="671.6252873563219" type="curve" smooth="yes"/>
      <point x="361.68735632183905" y="671.6252873563219"/>
      <point x="389.11724137931037" y="632.277011494253"/>
      <point x="389.11724137931037" y="575.2241379310344" type="curve" smooth="yes"/>
      <point x="389.11724137931037" y="489.8390804597701"/>
      <point x="359.5816091954023" y="418.90344827586205"/>
      <point x="228.9712643678161" y="295.2597701149425" type="curve" smooth="yes"/>
      <point x="7.4574712643678165" y="85.66551724137932" type="line"/>
    </contour>
  </outline>
</glyph>
<glyph name="three" format="2">
  <advance width="525.5954022988507"/>
  <unicode hex="0033"/>
  <outline>
    <contour>
      <point x="184.60919540229887" y="-10.0" type="curve" smooth="yes"/>
      <point x="304.4747126436782" y="-10.0"/>
      <point x="451.5252873563218" y="48.99885057471265"/>
      <point x="451.5252873563218" y="227.93333333333334" type="curve" smooth="yes"/>
      <point x="451.5252873563218" y="311.73333333333335"/>
      <point x="398.55747126436785" y="364.73218390804595"/>
      <point x="314.52298850574715" y="374.3655172413793" type="curve"/>
      <point x="440.55747126436785" y="398.73218390804595"/>
      <point x="504.35862068965514" y="489.567816091954"/>
      <point x="504.35862068965514" y="583.2" type="curve" smooth="yes"/>
      <point x="504.35862068965514" y="672.7333333333333"/>
      <point x="433.1206896551724" y="724.0"/>
      <point x="327.8034482758621" y="724.0" type="curve" smooth="yes"/>
      <point x="209.1103448275862" y="724.0"/>
      <point x="114.30919540229884" y="665.0068965517241"/>
      <point x="114.30919540229884" y="583.0068965517241" type="curve" smooth="yes"/>
      <point x="114.30919540229884" y="536.9022988505747"/>
      <point x="149.2287356321839" y="522.5344827586207"/>
      <point x="194.9586206896552" y="522.5344827586207" type="curve"/>
      <point x="211.13103448275862" y="601.8"/>
      <point x="240.24137931034485" y="671.8"/>
      <point x="318.980459770115" y="671.8" type="curve" smooth="yes"/>
      <point x="369.6862068965517" y="671.8"/>
      <point x="392.63793103448273" y="634.9206896551724"/>
      <point x="392.63793103448273" y="583.051724137931" type="curve" smooth="yes"/>
      <point x="392.63793103448273" y="470.74367816091956"/>
      <point x="313.6712643678161" y="396.2781609195402"/>
      <point x="207.96781609195403" y="396.2781609195402" type="curve" smooth="yes"/>
      <point x="178.16781609195402" y="396.2781609195402" type="line"/>
      <point x="168.43333333333334" y="342.81264367816095" type="line"/>
      <point x="208.23448275862071" y="342.81264367816095" type="line" smooth="yes"/>
      <point x="290.57126436781607" y="342.81264367816095"/>
      <point x="337.8045977011494" y="296.4850574712644"/>
      <point x="337.8045977011494" y="219.46551724137933" type="curve" smooth="yes"/>
      <point x="337.8045977011494" y="105.5758620689655"/>
      <point x="270.1011494252874" y="48.47816091954023"/>
      <point x="193.89655172413794" y="48.47816091954023" type="curve" smooth="yes"/>
      <point x="114.13563218390804" y="48.47816091954023"/>
      <point x="82.52643678160919" y="110.18965517241381"/>
      <point x="83.62643678160919" y="174.94367816091955" type="curve"/>
      <point x="35.15172413793104" y="174.94367816091955"/>
      <point x="0.7885057471264368" y="147.2873563218391"/>
      <point x="0.7885057471264368" y="98.80689655172414" type="curve" smooth="yes"/>
      <point x="0.7885057471264368" y="44.1632183908046"/>
      <point x="48.85862068965517" y="-10.0"/>
    </contour>
  </outline>
</glyph>
<glyph name="four" format="2">
  <advance width="525.5954022988507"/>
  <unicode hex="0034"/>
  <outline>
    <contour>
      <point x="121.65057471264369" y="0.0" type="line"/>
      <point x="432.7022988505747" y="0.0" type="line"/>
      <point x="442.62068965517244" y="44.46551724137931" type="line"/>
      <point x="422.732183908046" y="44.46551724137931" type="line" smooth="yes"/>
      <point x="385.11494252873564" y="44.46551724137931"/>
      <point x="358.7850574712644" y="50.364367816091956"/>
      <point x="358.7850574712644" y="83.26436781609196" type="curve" smooth="yes"/>
      <point x="358.7850574712644" y="89.732183908046"/>
      <point x="360.7850574712644" y="104.82528735632184"/>
      <point x="362.7850574712644" y="112.9264367816092" type="curve" smooth="yes"/>
      <point x="490.132183908046" y="714.0" type="line"/>
      <point x="385.37011494252874" y="714.0" type="line"/>
      <point x="8.77586206896552" y="239.4655172413793" type="line"/>
      <point x="-1.603448275862068" y="194.7080459770115" type="line"/>
      <point x="487.03678160919543" y="194.7080459770115" type="line"/>
      <point x="499.5885057471265" y="251.36781609195404" type="line"/>
      <point x="46.64827586206897" y="251.36781609195404" type="line"/>
      <point x="60.19195402298851" y="223.0632183908046" type="line"/>
      <point x="284.7425287356322" y="504.116091954023" type="line" smooth="yes"/>
      <point x="307.11494252873564" y="531.9850574712643"/>
      <point x="349.9287356321839" y="591.6356321839081"/>
      <point x="372.1908045977012" y="630.0735632183909" type="curve"/>
      <point x="353.55747126436785" y="568.0735632183909"/>
      <point x="335.92413793103447" y="493.61264367816096"/>
      <point x="324.2" y="436.62528735632185" type="curve" smooth="yes"/>
      <point x="257.76206896551724" y="116.46551724137933" type="line" smooth="yes"/>
      <point x="244.4862068965517" y="52.18735632183908"/>
      <point x="205.94942528735632" y="44.46551724137931"/>
      <point x="166.06896551724137" y="44.46551724137931" type="curve" smooth="yes"/>
      <point x="130.30344827586205" y="44.46551724137931" type="line"/>
    </contour>
  </outline>
</glyph>
<glyph name="five" format="2">
  <advance width="525.5954022988507"/>
  <unicode hex="0035"/>
  <outline>
    <contour>
      <point x="179.11954022988505" y="-10.0" type="curve" smooth="yes"/>
      <point x="349.2471264367816" y="-10.0"/>
      <point x="452.0183908045977" y="101.91609195402299"/>
      <point x="452.0183908045977" y="247.66896551724136" type="curve" smooth="yes"/>
      <point x="452.0183908045977" y="364.65402298850574"/>
      <point x="375.0540229885058" y="428.46321839080457"/>
      <point x="254.29655172413794" y="428.46321839080457" type="curve" smooth="yes"/>
      <point x="211.5942528735632" y="428.46321839080457"/>
      <point x="183.87586206896552" y="419.7287356321839"/>
      <point x="163.05632183908045" y="412.7287356321839" type="curve"/>
      <point x="224.3735632183908" y="627.6057471264368" type="line"/>
      <point x="407.1252873563219" y="627.6057471264368" type="line" smooth="yes"/>
      <point x="440.74367816091956" y="627.6057471264368"/>
      <point x="450.28620689655173" y="617.9724137931034"/>
      <point x="450.28620689655173" y="604.0632183908046" type="curve" smooth="yes"/>
      <point x="450.28620689655173" y="596.6954022988507"/>
      <point x="447.91954022988506" y="574.0528735632184"/>
      <point x="446.5528735632184" y="556.4206896551724" type="curve"/>
      <point x="491.9229885057472" y="556.4206896551724" type="line"/>
      <point x="520.2080459770115" y="714.0" type="line"/>
      <point x="195.7793103448276" y="714.0" type="line"/>
      <point x="93.25632183908046" y="361.6172413793103" type="line"/>
      <point x="126.79540229885058" y="349.36436781609194" type="line"/>
      <point x="152.04367816091954" y="360.36436781609194"/>
      <point x="180.03563218390804" y="371.36436781609194"/>
      <point x="226.27586206896552" y="371.36436781609194" type="curve" smooth="yes"/>
      <point x="291.77471264367813" y="371.36436781609194"/>
      <point x="340.548275862069" y="327.8241379310345"/>
      <point x="340.548275862069" y="240.30229885057472" type="curve" smooth="yes"/>
      <point x="340.548275862069" y="113.4"/>
      <point x="279.3218390804597" y="48.10114942528736"/>
      <point x="188.91954022988506" y="48.10114942528736" type="curve" smooth="yes"/>
      <point x="107.60229885057471" y="48.10114942528736"/>
      <point x="88.72068965517242" y="111.98390804597702"/>
      <point x="88.45402298850576" y="164.27241379310345" type="curve"/>
      <point x="35.64712643678161" y="164.27241379310345"/>
      <point x="12.091954022988505" y="135.54252873563217"/>
      <point x="12.091954022988505" y="95.61264367816092" type="curve" smooth="yes"/>
      <point x="12.091954022988505" y="39.33103448275862"/>
      <point x="56.83103448275862" y="-10.0"/>
    </contour>
  </outline>
</glyph>
<glyph name="six" format="2">
  <advance width="525.5954022988507"/>
  <unicode hex="0036"/>
  <outline>
    <contour>
      <point x="236.81034482758622" y="-10.0" type="curve" smooth="yes"/>
      <point x="397.76321839080464" y="-10.0"/>
      <point x="475.5689655172414" y="123.74022988505749"/>
      <point x="475.5689655172414" y="263.48390804597705" type="curve" smooth="yes"/>
      <point x="475.5689655172414" y="356.5597701149425"/>
      <point x="427.2344827586207" y="434.63563218390806"/>
      <point x="322.2977011494253" y="434.63563218390806" type="curve" smooth="yes"/>
      <point x="260.43103448275866" y="434.63563218390806"/>
      <point x="212.64137931034483" y="404.7390804597701"/>
      <point x="184.47471264367815" y="383.18735632183905" type="curve"/>
      <point x="229.5448275862069" y="574.7241379310345"/>
      <point x="298.04712643678164" y="673.5344827586207"/>
      <point x="386.1563218390804" y="673.5344827586207" type="curve" smooth="yes"/>
      <point x="440.11954022988505" y="673.5344827586207"/>
      <point x="445.64252873563214" y="614.6126436781609"/>
      <point x="444.5425287356322" y="554.1597701149426" type="curve"/>
      <point x="503.92528735632186" y="554.1597701149426"/>
      <point x="539.1172413793104" y="583.5287356321838"/>
      <point x="539.1172413793104" y="631.1850574712644" type="curve" smooth="yes"/>
      <point x="539.1172413793104" y="681.5459770114942"/>
      <point x="490.1379310344828" y="724.0"/>
      <point x="395.26321839080464" y="724.0" type="curve" smooth="yes"/>
      <point x="188.42758620689656" y="724.0"/>
      <point x="58.62988505747126" y="472.9712643678161"/>
      <point x="58.62988505747126" y="223.70574712643676" type="curve" smooth="yes"/>
      <point x="58.62988505747126" y="63.84252873563218"/>
      <point x="138.0448275862069" y="-10.0"/>
    </contour>
    <contour>
      <point x="245.6494252873563" y="46.291954022988506" type="curve" smooth="yes"/>
      <point x="192.24597701149426" y="46.291954022988506"/>
      <point x="158.90574712643678" y="92.96666666666667"/>
      <point x="158.90574712643678" y="192.80114942528735" type="curve" smooth="yes"/>
      <point x="158.90574712643678" y="233.52413793103446"/>
      <point x="163.46551724137933" y="273.0850574712644"/>
      <point x="172.92298850574713" y="325.0" type="curve"/>
      <point x="201.5367816091954" y="352.2735632183908"/>
      <point x="247.9471264367816" y="381.81264367816095"/>
      <point x="293.367816091954" y="381.81264367816095" type="curve" smooth="yes"/>
      <point x="343.3126436781609" y="381.81264367816095"/>
      <point x="369.9264367816092" y="338.19770114942526"/>
      <point x="369.9264367816092" y="259.0689655172414" type="curve" smooth="yes"/>
      <point x="369.9264367816092" y="139.32298850574713"/>
      <point x="319.0494252873563" y="46.291954022988506"/>
    </contour>
  </outline>
</glyph>
<glyph name="seven" format="2">
  <advance width="525.5954022988507"/>
  <unicode hex="0037"/>
  <outline>
    <contour>
      <point x="102.3448275862069" y="0.0" type="line"/>
      <point x="175.867816091954" y="0.0" type="line"/>
      <point x="555.6206896551724" y="678.5954022988507" type="line"/>
      <point x="562.6333333333333" y="714.0" type="line"/>
      <point x="139.7632183908046" y="714.0" type="line"/>
      <point x="96.70804597701151" y="526.6057471264368" type="line"/>
      <point x="142.0781609195402" y="526.6057471264368" type="line"/>
      <point x="155.71149425287354" y="576.6057471264368" type="line" smooth="yes"/>
      <point x="164.71149425287354" y="609.6057471264368"/>
      <point x="186.71379310344827" y="627.9724137931034"/>
      <point x="220.1471264367816" y="627.9724137931034" type="curve" smooth="yes"/>
      <point x="462.72873563218394" y="627.9724137931034" type="line"/>
    </contour>
  </outline>
</glyph>
<glyph name="eight" format="2">
  <advance width="525.5954022988507"/>
  <unicode hex="0038"/>
  <outline>
    <contour>
      <point x="225.08735632183908" y="-10.0" type="curve" smooth="yes"/>
      <point x="360.7931034482759" y="-10.0"/>
      <point x="467.9172413793103" y="57.46666666666667"/>
      <point x="467.9172413793103" y="205.19885057471265" type="curve" smooth="yes"/>
      <point x="467.9172413793103" y="284.2011494252874"/>
      <point x="421.05057471264365" y="338.18390804597703"/>
      <point x="354.26781609195405" y="380.98275862068965" type="curve"/>
      <point x="452.8747126436782" y="426.18390804597703"/>
      <point x="517.483908045977" y="478.1"/>
      <point x="517.483908045977" y="580.2" type="curve" smooth="yes"/>
      <point x="517.483908045977" y="662.9988505747127"/>
      <point x="454.24597701149423" y="724.0"/>
      <point x="342.6747126436781" y="724.0" type="curve" smooth="yes"/>
      <point x="179.36551724137934" y="724.0"/>
      <point x="114.11264367816092" y="636.332183908046"/>
      <point x="114.11264367816092" y="529.6034482758622" type="curve" smooth="yes"/>
      <point x="114.11264367816092" y="466.0655172413793"/>
      <point x="148.2632183908046" y="406.80574712643676"/>
      <point x="202.12873563218392" y="364.2735632183908" type="curve"/>
      <point x="93.99655172413794" y="320.9068965517241"/>
      <point x="15.568965517241379" y="271.7367816091954"/>
      <point x="15.568965517241379" y="158.27011494252875" type="curve" smooth="yes"/>
      <point x="15.568965517241379" y="60.36896551724138"/>
      <point x="93.71954022988506" y="-10.0"/>
    </contour>
    <contour>
      <point x="227.9241379310345" y="40.91379310344828" type="curve" smooth="yes"/>
      <point x="158.0816091954023" y="40.91379310344828"/>
      <point x="117.11839080459771" y="85.6367816091954"/>
      <point x="117.11839080459771" y="156.51494252873562" type="curve" smooth="yes"/>
      <point x="117.11839080459771" y="246.96666666666667"/>
      <point x="167.72068965517244" y="301.8919540229885"/>
      <point x="248.75402298850574" y="335.8988505747127" type="curve"/>
      <point x="326.3126436781609" y="291.5333333333333"/>
      <point x="366.18390804597703" y="249.00114942528737"/>
      <point x="366.18390804597703" y="180.19655172413795" type="curve" smooth="yes"/>
      <point x="366.18390804597703" y="87.37816091954022"/>
      <point x="302.95747126436777" y="40.91379310344828"/>
    </contour>
    <contour>
      <point x="306.2114942528736" y="406.91379310344826" type="curve"/>
      <point x="246.54367816091954" y="443.54482758620685"/>
      <point x="217.48850574712645" y="484.99655172413793"/>
      <point x="217.48850574712645" y="539.883908045977" type="curve" smooth="yes"/>
      <point x="217.48850574712645" y="620.7965517241379"/>
      <point x="265.8" y="672.2609195402298"/>
      <point x="336.09655172413795" y="672.2609195402298" type="curve" smooth="yes"/>
      <point x="394.85517241379307" y="672.2609195402298"/>
      <point x="422.651724137931" y="630.1885057471264"/>
      <point x="422.651724137931" y="573.667816091954" type="curve" smooth="yes"/>
      <point x="422.651724137931" y="504.4885057471264"/>
      <point x="393.6712643678161" y="450.28735632183907"/>
    </contour>
  </outline>
</glyph>
<glyph name="nine" format="2">
  <advance width="525.5954022988507"/>
  <unicode hex="0039"/>
  <outline>
    <contour>
      <point x="166.61839080459768" y="-10.0" type="curve" smooth="yes"/>
      <point x="413.44928735632186" y="-10.0"/>
      <point x="504.99770114942527" y="351.7436781609195"/>
      <point x="504.99770114942527" y="534.1942528735633" type="curve" smooth="yes"/>
      <point x="504.99770114942527" y="655.7310344827586"/>
      <point x="438.32068965517243" y="724.0"/>
      <point x="333.0149425287357" y="724.0" type="curve" smooth="yes"/>
      <point x="195.96450574712645" y="724.0"/>
      <point x="78.45057471264369" y="605.8"/>
      <point x="78.45057471264369" y="437.067816091954" type="curve" smooth="yes"/>
      <point x="78.45057471264369" y="342.26781609195405"/>
      <point x="133.67471264367813" y="275.0"/>
      <point x="232.067816091954" y="275.0" type="curve" smooth="yes"/>
      <point x="296.75977011494257" y="275.0"/>
      <point x="342.5505747126437" y="308.0"/>
      <point x="374.451724137931" y="343.0" type="curve"/>
      <point x="324.2666666666667" y="154.69540229885055"/>
      <point x="269.0183908045977" y="42.191954022988504"/>
      <point x="176.34367816091955" y="42.191954022988504" type="curve" smooth="yes"/>
      <point x="119.46896551724139" y="42.191954022988504"/>
      <point x="97.94367816091955" y="97.46896551724137"/>
      <point x="97.94252873563218" y="145.6448275862069" type="curve"/>
      <point x="57.87241379310345" y="145.6448275862069"/>
      <point x="33.777011494252875" y="118.54597701149426"/>
      <point x="33.777011494252875" y="81.5505747126437" type="curve" smooth="yes"/>
      <point x="33.777011494252875" y="35.27701149425287"/>
      <point x="67.85862068965518" y="-10.0"/>
    </contour>
    <contour>
      <point x="264.46781609195403" y="333.38735632183904" type="curve" smooth="yes"/>
      <point x="216.5057471264368" y="333.38735632183904"/>
      <point x="185.54367816091954" y="368.72528735632187"/>
      <point x="185.54367816091954" y="435.97126436781605" type="curve" smooth="yes"/>
      <point x="185.54367816091954" y="546.516091954023"/>
      <point x="244.16551724137932" y="667.2574712643678"/>
      <point x="327.2597701149425" y="667.2574712643678" type="curve" smooth="yes"/>
      <point x="373.0287356321839" y="667.2574712643678"/>
      <point x="405.9908045977011" y="630.1850574712644"/>
      <point x="405.9908045977011" y="539.2333333333333" type="curve" smooth="yes"/>
      <point x="405.9908045977011" y="507.28275862068966"/>
      <point x="398.7252873563218" y="452.5632183908046"/>
      <point x="389.5333333333333" y="417.1896551724138" type="curve"/>
      <point x="363.28735632183907" y="376.6505747126437"/>
      <point x="320.6850574712644" y="333.4885057471264"/>
    </contour>
  </outline>
</glyph>
<glyph name="colon" format="2">
  <advance width="289.4126436781609"/>
  <unicode hex="003A"/>
  <outline>
    <contour>
      <point x="183.67241379310346" y="397.883908045977" type="curve" smooth="yes"/>
      <point x="219.4218390804598" y="397.883908045977"/>
      <point x="255.71379310344832" y="421.2701149425287"/>
      <point x="255.71379310344832" y="482.0091954022989" type="curve" smooth="yes"/>
      <point x="255.71379310344832" y="520.6402298850575"/>
      <point x="230.6425287356322" y="540.5413793103448"/>
      <point x="195.5609195402299" y="540.5413793103448" type="curve" smooth="yes"/>
      <point x="156.95517241379312" y="540.5413793103448"/>
      <point x="123.62068965517241" y="510.38275862068974"/>
      <point x="123.62068965517241" y="457.2701149425288" type="curve" smooth="yes"/>
      <point x="123.62068965517241" y="418.7494252873563"/>
      <point x="147.9758620689655" y="397.883908045977"/>
    </contour>
    <contour>
      <point x="94.32528735632185" y="-8.0" type="curve" smooth="yes"/>
      <point x="130.07471264367814" y="-8.0"/>
      <point x="166.632183908046" y="15.386206896551723"/>
      <point x="166.632183908046" y="76.12528735632185" type="curve" smooth="yes"/>
      <point x="166.632183908046" y="114.75632183908046"/>
      <point x="141.2954022988506" y="134.65747126436784"/>
      <point x="106.4793103448276" y="134.65747126436784" type="curve" smooth="yes"/>
      <point x="67.60804597701149" y="134.65747126436784"/>
      <point x="34.273563218390805" y="104.76436781609195"/>
      <point x="34.273563218390805" y="51.65172413793103" type="curve" smooth="yes"/>
      <point x="34.273563218390805" y="12.86551724137931"/>
      <point x="58.89425287356322" y="-8.0"/>
    </contour>
  </outline>
</glyph>
<glyph name="semicolon" format="2">
  <advance width="289.0459770114943"/>
  <unicode hex="003B"/>
  <outline>
    <contour>
      <point x="-10.559770114942529" y="-147.27816091954023" type="line"/>
      <point x="113.23793103448276" y="-121.45057471264367"/>
      <point x="173.05632183908048" y="-43.785057471264366"/>
      <point x="173.05632183908048" y="49.14942528735632" type="curve" smooth="yes"/>
      <point x="173.05632183908048" y="102.76666666666668"/>
      <point x="139.2632183908046" y="133.39195402298853"/>
      <point x="99.00919540229884" y="133.39195402298853" type="curve" smooth="yes"/>
      <point x="65.18735632183908" y="133.39195402298853"/>
      <point x="36.191954022988504" y="111.83793103448276"/>
      <point x="36.191954022988504" y="71.26666666666667" type="curve" smooth="yes"/>
      <point x="36.191954022988504" y="18.55632183908046"/>
      <point x="92.04597701149426" y="18.098850574712642"/>
      <point x="92.04597701149426" y="-18.254022988505746" type="curve" smooth="yes"/>
      <point x="92.04597701149426" y="-58.44597701149425"/>
      <point x="59.51149425287357" y="-87.17011494252874"/>
      <point x="-4.097701149425286" y="-102.81264367816091" type="curve"/>
    </contour>
    <contour>
      <point x="183.67241379310346" y="397.883908045977" type="curve" smooth="yes"/>
      <point x="219.15632183908045" y="397.883908045977"/>
      <point x="255.71379310344832" y="421.2701149425287"/>
      <point x="255.71379310344832" y="482.0091954022989" type="curve" smooth="yes"/>
      <point x="255.71379310344832" y="520.6402298850575"/>
      <point x="230.37701149425288" y="540.5413793103448"/>
      <point x="195.5609195402299" y="540.5413793103448" type="curve" smooth="yes"/>
      <point x="156.95517241379312" y="540.5413793103448"/>
      <point x="123.62068965517241" y="510.38275862068974"/>
      <point x="123.62068965517241" y="457.2701149425288" type="curve" smooth="yes"/>
      <point x="123.62068965517241" y="418.7494252873563"/>
      <point x="147.9758620689655" y="397.883908045977"/>
    </contour>
  </outline>
</glyph>
<glyph name="less" format="2">
  <advance width="509.8666666666667"/>
  <unicode hex="003C"/>
  <outline>
    <contour>
      <point x="460.1528735632184" y="108.81264367816091" type="line"/>
      <point x="460.1528735632184" y="178.55402298850575" type="line"/>
      <point x="153.567816091954" y="357.0" type="line"/>
      <point x="460.1528735632184" y="537.7114942528735" type="line"/>
      <point x="460.1528735632184" y="607.1873563218392" type="line"/>
      <point x="63.14137931034483" y="375.7264367816092" type="line"/>
      <point x="63.14137931034483" y="339.2735632183908" type="line"/>
    </contour>
  </outline>
</glyph>
<glyph name="equal" format="2">
  <advance width="509.8666666666667"/>
  <unicode hex="003D"/>
  <outline>
    <contour>
      <point x="62.5896551724138" y="422.76666666666665" type="line"/>
      <point x="460.97011494252877" y="422.76666666666665" type="line"/>
      <point x="460.97011494252877" y="484.232183908046" type="line"/>
      <point x="62.5896551724138" y="484.232183908046" type="line"/>
    </contour>
    <contour>
      <point x="62.5896551724138" y="229.76781609195402" type="line"/>
      <point x="460.97011494252877" y="229.76781609195402" type="line"/>
      <point x="460.97011494252877" y="291.23333333333335" type="line"/>
      <point x="62.5896551724138" y="291.23333333333335" type="line"/>
    </contour>
  </outline>
</glyph>
<glyph name="greater" format="2">
  <advance width="509.8666666666667"/>
  <unicode hex="003E"/>
  <outline>
    <contour>
      <point x="63.14137931034483" y="108.81264367816091" type="line"/>
      <point x="460.1528735632184" y="339.2735632183908" type="line"/>
      <point x="460.1528735632184" y="375.7264367816092" type="line"/>
      <point x="63.14137931034483" y="607.1873563218392" type="line"/>
      <point x="63.14137931034483" y="537.7114942528735" type="line"/>
      <point x="369.7264367816092" y="357.0" type="line"/>
      <point x="63.14137931034483" y="178.55402298850575" type="line"/>
    </contour>
  </outline>
</glyph>
<glyph name="question" format="2">
  <advance width="474.61954022988505"/>
  <unicode hex="003F"/>
  <outline>
    <contour>
      <point x="183.3896551724138" y="209.37126436781608" type="line"/>
      <point x="238.02298850574712" y="209.37126436781608" type="line"/>
      <point x="267.8425287356322" y="317.0" type="line"/>
      <point x="400.0620689655172" y="369.6310344827586"/>
      <point x="500.7367816091954" y="444.36436781609194"/>
      <point x="500.7367816091954" y="564.9919540229886" type="curve" smooth="yes"/>
      <point x="500.7367816091954" y="673.3666666666667"/>
      <point x="430.7805977011494" y="724.0"/>
      <point x="318.72758620689655" y="724.0" type="curve" smooth="yes"/>
      <point x="194.96091954022987" y="724.0"/>
      <point x="119.33563218390803" y="662.0034482758621"/>
      <point x="119.33563218390803" y="591.7172413793104" type="curve" smooth="yes"/>
      <point x="119.33563218390803" y="551.4333333333333"/>
      <point x="147.61149425287357" y="528.8988505747126"/>
      <point x="202.35747126436783" y="528.8988505747126" type="curve"/>
      <point x="213.8965517241379" y="604.8988505747126"/>
      <point x="239.42758620689654" y="671.5344827586207"/>
      <point x="310.5413793103449" y="671.5344827586207" type="curve" smooth="yes"/>
      <point x="356.6758620689655" y="671.5344827586207"/>
      <point x="390.4540229885057" y="634.1862068965518"/>
      <point x="390.4540229885057" y="568.3149425287355" type="curve" smooth="yes"/>
      <point x="390.4540229885057" y="459.451724137931"/>
      <point x="314.7551724137931" y="394.9080459770115"/>
      <point x="200.0919540229885" y="349.7264367816092" type="curve"/>
    </contour>
    <contour>
      <point x="182.53333333333336" y="-8.0" type="curve" smooth="yes"/>
      <point x="218.54827586206898" y="-8.0"/>
      <point x="254.84022988505748" y="15.386206896551723"/>
      <point x="254.84022988505748" y="76.12528735632185" type="curve" smooth="yes"/>
      <point x="254.84022988505748" y="114.75632183908046"/>
      <point x="229.76896551724138" y="134.65747126436784"/>
      <point x="194.68735632183908" y="134.65747126436784" type="curve" smooth="yes"/>
      <point x="156.0816091954023" y="134.65747126436784"/>
      <point x="122.74712643678161" y="104.76436781609195"/>
      <point x="122.74712643678161" y="51.65172413793103" type="curve" smooth="yes"/>
      <point x="122.74712643678161" y="12.86551724137931"/>
      <point x="147.10229885057473" y="-8.0"/>
    </contour>
  </outline>
</glyph>
<glyph name="bracketleft" format="2">
  <advance width="351.61954022988505"/>
  <unicode hex="005B"/>
  <outline>
    <contour>
      <point x="7.909195402298852" y="-128.0" type="line"/>
      <point x="232.69425287356324" y="-128.0" type="line"/>
      <point x="242.2459770114943" y="-83.53448275862067" type="line"/>
      <point x="202.17931034482757" y="-83.53448275862067" type="line" smooth="yes"/>
      <point x="164.84827586206896" y="-83.53448275862067"/>
      <point x="137.40459770114944" y="-77.53448275862067"/>
      <point x="137.40459770114944" y="-42.905747126436786" type="curve" smooth="yes"/>
      <point x="137.40459770114944" y="-36.42758620689656"/>
      <point x="138.8632183908046" y="-23.349425287356322"/>
      <point x="140.8632183908046" y="-14.898850574712641" type="curve"/>
      <point x="280.6666666666667" y="643.5344827586207" type="line"/>
      <point x="293.6666666666667" y="706.5344827586207"/>
      <point x="330.5505747126437" y="715.5344827586207"/>
      <point x="371.9747126436782" y="715.5344827586207" type="curve" smooth="yes"/>
      <point x="411.7758620689655" y="715.5344827586207" type="line"/>
      <point x="421.69425287356324" y="760.0" type="line"/>
      <point x="196.90919540229888" y="760.0" type="line"/>
    </contour>
  </outline>
</glyph>
<glyph name="backslash" format="2">
  <advance width="267.30229885057474"/>
  <unicode hex="005C"/>
  <outline>
    <contour>
      <point x="150.9505747126437" y="-121.0" type="line"/>
      <point x="209.11609195402298" y="-121.0" type="line"/>
      <point x="168.13908045977013" y="760.0" type="line"/>
      <point x="110.33103448275861" y="760.0" type="line"/>
    </contour>
  </outline>
</glyph>
<glyph name="bracketright" format="2">
  <advance width="351.61954022988505"/>
  <unicode hex="005D"/>
  <outline>
    <contour>
      <point x="-47.820689655172416" y="-128.0" type="line"/>
      <point x="176.22988505747125" y="-128.0" type="line"/>
      <point x="364.8632183908046" y="760.0" type="line"/>
      <point x="140.44482758620688" y="760.0" type="line"/>
      <point x="130.62758620689655" y="715.5344827586207" type="line"/>
      <point x="170.69425287356324" y="715.5344827586207" type="line" smooth="yes"/>
      <point x="207.75977011494254" y="715.5344827586207"/>
      <point x="235.83563218390805" y="709.5344827586207"/>
      <point x="235.83563218390805" y="674.9057471264368" type="curve" smooth="yes"/>
      <point x="235.83563218390805" y="668.1620689655172"/>
      <point x="234.0103448275862" y="655.6149425287356"/>
      <point x="232.0103448275862" y="646.8988505747126" type="curve" smooth="yes"/>
      <point x="92.30804597701149" y="-11.534482758620689" type="line"/>
      <point x="79.30804597701149" y="-74.53448275862067"/>
      <point x="42.59885057471264" y="-83.53448275862067"/>
      <point x="1.8988505747126436" y="-83.53448275862067" type="curve" smooth="yes"/>
      <point x="-37.90229885057472" y="-83.53448275862067" type="line"/>
    </contour>
  </outline>
</glyph>
<glyph name="asciicircum" format="2">
  <advance width="509.8666666666667"/>
  <unicode hex="005E"/>
  <outline>
    <contour>
      <point x="48.596551724137925" y="265.36436781609194" type="line"/>
      <point x="114.02873563218391" y="265.36436781609194" type="line"/>
      <point x="260.4126436781609" y="618.3471264367815" type="line"/>
      <point x="408.5310344827586" y="265.36436781609194" type="line"/>
      <point x="473.96321839080457" y="265.36436781609194" type="line"/>
      <point x="278.416091954023" y="714.0" type="line"/>
      <point x="243.24482758620687" y="714.0" type="line"/>
    </contour>
  </outline>
</glyph>
<glyph name="underscore" format="2">
  <advance width="425.6712643678161"/>
  <unicode hex="005F"/>
  <outline>
    <contour>
      <point x="-86.70114942528735" y="-142.0" type="line"/>
      <point x="347.3379310344828" y="-142.0" type="line"/>
      <point x="360.3379310344828" y="-83.0" type="line"/>
      <point x="-73.70114942528735" y="-83.0" type="line"/>
    </contour>
  </outline>
</glyph>
<glyph name="braceleft" format="2">
  <advance width="401.7954022988506"/>
  <unicode hex="007B"/>
  <outline>
    <contour>
      <point x="217.2183908045977" y="-127.2735632183908" type="curve" smooth="yes"/>
      <point x="286.14827586206894" y="-127.2735632183908" type="line"/>
      <point x="295.9758620689655" y="-81.98275862068964" type="line"/>
      <point x="265.2632183908046" y="-81.98275862068964" type="line" smooth="yes"/>
      <point x="225.56436781609196" y="-81.98275862068964"/>
      <point x="208.57471264367817" y="-61.44252873563218"/>
      <point x="208.57471264367817" y="-23.372413793103448" type="curve" smooth="yes"/>
      <point x="208.57471264367817" y="-10.527586206896553"/>
      <point x="210.4" y="4.380459770114943"/>
      <point x="213.94137931034481" y="21.18735632183908" type="curve" smooth="yes"/>
      <point x="250.17011494252876" y="188.09425287356322" type="line" smooth="yes"/>
      <point x="252.63793103448273" y="200.22183908045977"/>
      <point x="255.13333333333333" y="213.05632183908045"/>
      <point x="255.13333333333333" y="225.5494252873563" type="curve" smooth="yes"/>
      <point x="255.13333333333333" y="271.548275862069"/>
      <point x="228.15057471264367" y="303.0885057471265"/>
      <point x="174.00804597701148" y="314.2758620689655" type="curve"/>
      <point x="174.45862068965516" y="318.81034482758616" type="line"/>
      <point x="248.87701149425288" y="332.72183908045974"/>
      <point x="288.8402298850575" y="375.0862068965517"/>
      <point x="302.6655172413793" y="440.0" type="curve" smooth="yes"/>
      <point x="338.7298850574713" y="607.8701149425286" type="line" smooth="yes"/>
      <point x="354.38965517241377" y="680.4333333333334"/>
      <point x="380.7241379310344" y="714.8103448275863"/>
      <point x="434.2413793103448" y="714.8103448275863" type="curve" smooth="yes"/>
      <point x="465.0551724137931" y="714.8103448275863" type="line"/>
      <point x="474.9735632183908" y="760.0" type="line"/>
      <point x="407.7252873563218" y="760.0" type="line" smooth="yes"/>
      <point x="291.66436781609195" y="760.0"/>
      <point x="251.45402298850573" y="709.5908045977011"/>
      <point x="230.90344827586205" y="615.5494252873563" type="curve" smooth="yes"/>
      <point x="193.5471264367816" y="442.7241379310345" type="line" smooth="yes"/>
      <point x="175.83333333333334" y="362.18735632183905"/>
      <point x="124.94942528735635" y="343.1896551724138"/>
      <point x="63.716091954022986" y="340.4655172413793" type="curve"/>
      <point x="53.51149425287356" y="294.2609195402299" type="line"/>
      <point x="104.84597701149427" y="292.2609195402299"/>
      <point x="143.91379310344826" y="276.5390804597701"/>
      <point x="143.91379310344826" y="223.45632183908046" type="curve" smooth="yes"/>
      <point x="143.91379310344826" y="213.37586206896552"/>
      <point x="143.01494252873562" y="202.55172413793105"/>
      <point x="140.18965517241378" y="190.63563218390803" type="curve" smooth="yes"/>
      <point x="106.65057471264367" y="31.574712643678165" type="line" smooth="yes"/>
      <point x="101.46436781609196" y="6.551724137931035"/>
      <point x="99.00689655172414" y="-9.281609195402298"/>
      <point x="99.00689655172414" y="-25.470114942528735" type="curve" smooth="yes"/>
      <point x="99.00689655172414" y="-90.99425287356321"/>
      <point x="140.43333333333334" y="-127.2735632183908"/>
    </contour>
  </outline>
</glyph>
<glyph name="bar" format="2">
  <advance width="517.5160919540231"/>
  <unicode hex="007C"/>
  <outline>
    <contour>
      <point x="232.6022988505747" y="-240.0" type="line"/>
      <point x="292.3091954022988" y="-240.0" type="line"/>
      <point x="292.3091954022988" y="760.0" type="line"/>
      <point x="232.6022988505747" y="760.0" type="line"/>
    </contour>
  </outline>
</glyph>
<glyph name="braceright" format="2">
  <advance width="401.5298850574713"/>
  <unicode hex="007D"/>
  <outline>
    <contour>
      <point x="-49.90229885057472" y="-127.36436781609196" type="line"/>
      <point x="17.244827586206895" y="-127.36436781609196" type="line" smooth="yes"/>
      <point x="135.56896551724137" y="-127.36436781609196"/>
      <point x="174.51494252873565" y="-76.48735632183909"/>
      <point x="194.4333333333333" y="17.18735632183908" type="curve" smooth="yes"/>
      <point x="231.1574712643678" y="190.63563218390803" type="line" smooth="yes"/>
      <point x="248.14712643678163" y="271.2735632183908"/>
      <point x="300.1218390804598" y="291.2609195402299"/>
      <point x="361.0896551724138" y="294.08620689655174" type="curve"/>
      <point x="371.5597701149426" y="340.1896551724138" type="line"/>
      <point x="320.22528735632187" y="342.1896551724138"/>
      <point x="280.7908045977012" y="356.8206896551724"/>
      <point x="280.7908045977012" y="410.2701149425288" type="curve" smooth="yes"/>
      <point x="280.7908045977012" y="421.083908045977"/>
      <point x="282.15747126436787" y="431.0103448275862"/>
      <point x="284.88160919540235" y="442.82528735632184" type="curve" smooth="yes"/>
      <point x="320.1908045977012" y="610.6448275862068" type="line" smooth="yes"/>
      <point x="324.7068965517242" y="632.216091954023"/>
      <point x="326.064367816092" y="645.7482758620689"/>
      <point x="326.064367816092" y="659.1045977011495" type="curve" smooth="yes"/>
      <point x="326.064367816092" y="720.0390804597702"/>
      <point x="287.432183908046" y="760.2758620689655"/>
      <point x="209.64827586206897" y="760.2758620689655" type="curve" smooth="yes"/>
      <point x="138.82183908045977" y="760.2758620689655" type="line"/>
      <point x="128.99425287356323" y="715.0862068965517" type="line"/>
      <point x="159.8080459770115" y="715.0862068965517" type="line" smooth="yes"/>
      <point x="199.50689655172414" y="715.0862068965517"/>
      <point x="216.3954022988506" y="695.1781609195402"/>
      <point x="216.3954022988506" y="658.6379310344827" type="curve" smooth="yes"/>
      <point x="216.3954022988506" y="642.632183908046"/>
      <point x="214.57011494252873" y="628.3563218390806"/>
      <point x="211.02873563218392" y="611.5494252873563" type="curve" smooth="yes"/>
      <point x="174.8" y="444.2287356321839" type="line" smooth="yes"/>
      <point x="172.33218390804598" y="431.99999999999994"/>
      <point x="169.93793103448274" y="419.89885057471264"/>
      <point x="169.93793103448274" y="408.1770114942529" type="curve" smooth="yes"/>
      <point x="169.93793103448274" y="362.27931034482754"/>
      <point x="196.55402298850578" y="331.7287356321839"/>
      <point x="250.79770114942528" y="320.2758620689655" type="curve"/>
      <point x="250.24597701149423" y="315.2735632183908" type="line"/>
      <point x="176.09310344827585" y="301.2609195402299"/>
      <point x="135.7632183908046" y="258.2735632183908"/>
      <point x="122.0390804597701" y="193.72643678160918" type="curve" smooth="yes"/>
      <point x="85.03908045977012" y="21.18735632183908" type="line" smooth="yes"/>
      <point x="69.68275862068965" y="-48.594252873563214"/>
      <point x="44.97931034482759" y="-82.0735632183908"/>
      <point x="-9.170114942528736" y="-82.0735632183908" type="curve" smooth="yes"/>
      <point x="-40.24942528735632" y="-82.0735632183908" type="line"/>
    </contour>
  </outline>
</glyph>
<glyph name="asciitilde" format="2">
  <advance width="509.8666666666667"/>
  <unicode hex="007E"/>
  <outline>
    <contour>
      <point x="49.403448275862075" y="267.53678160919543" type="curve"/>
      <point x="110.02758620689657" y="267.53678160919543" type="line"/>
      <point x="115.30919540229885" y="347.36321839080455"/>
      <point x="131.56896551724137" y="384.53563218390804"/>
      <point x="167.97471264367815" y="384.53563218390804" type="curve" smooth="yes"/>
      <point x="193.28505747126437" y="384.53563218390804"/>
      <point x="210.9701149425287" y="365.8528735632184"/>
      <point x="244.26206896551727" y="331.6195402298851" type="curve" smooth="yes"/>
      <point x="287.6505747126437" y="285.92413793103447"/>
      <point x="318.6528735632184" y="267.53678160919543"/>
      <point x="358.7206896551724" y="267.53678160919543" type="curve" smooth="yes"/>
      <point x="445.40000000000003" y="267.53678160919543"/>
      <point x="468.0931034482759" y="364.08160919540234"/>
      <point x="474.25632183908044" y="445.7287356321839" type="curve"/>
      <point x="412.8977011494253" y="445.7287356321839" type="line"/>
      <point x="406.4505747126437" y="368.15977011494255"/>
      <point x="391.9149425287356" y="328.8310344827586"/>
      <point x="357.5655172413793" y="328.8310344827586" type="curve" smooth="yes"/>
      <point x="333.6310344827586" y="328.8310344827586"/>
      <point x="314.06436781609193" y="349.3137931034483"/>
      <point x="283.3252873563218" y="379.45287356321836" type="curve" smooth="yes"/>
      <point x="238.15172413793104" y="422.7597701149425"/>
      <point x="209.84022988505748" y="445.7287356321839"/>
      <point x="166.25977011494254" y="445.7287356321839" type="curve" smooth="yes"/>
      <point x="76.92758620689655" y="445.7287356321839"/>
      <point x="54.40919540229885" y="351.9126436781609"/>
    </contour>
  </outline>
</glyph>
<glyph name="twosuperior" format="2">
  <advance width="370.97011494252877"/>
  <unicode hex="00B2"/>
  <outline>
    <contour>
      <point x="58.65172413793103" y="386.0" type="line"/>
      <point x="345.616091954023" y="386.0" type="line"/>
      <point x="373.2494252873563" y="509.38965517241377" type="line"/>
      <point x="340.1712643678161" y="509.38965517241377" type="line"/>
      <point x="332.5379310344827" y="488.38965517241377" type="line" smooth="yes"/>
      <point x="324.9045977011494" y="466.38965517241377"/>
      <point x="311.63793103448273" y="447.38965517241377"/>
      <point x="282.8379310344827" y="447.38965517241377" type="curve" smooth="yes"/>
      <point x="150.99080459770116" y="447.38965517241377" type="line"/>
      <point x="264.03793103448277" y="540.3781609195402" type="line" smooth="yes"/>
      <point x="369.1816091954023" y="627.3632183908046"/>
      <point x="400.25747126436784" y="673.1045977011495"/>
      <point x="400.25747126436784" y="731.6436781609195" type="curve" smooth="yes"/>
      <point x="400.25747126436784" y="787.1839080459771"/>
      <point x="353.2068965517241" y="824.0"/>
      <point x="278.51149425287355" y="824.0" type="curve" smooth="yes"/>
      <point x="189.82528735632184" y="824.0"/>
      <point x="135.83908045977014" y="782.1241379310345"/>
      <point x="135.83908045977014" y="732.6517241379311" type="curve" smooth="yes"/>
      <point x="135.83908045977014" y="704.4666666666667"/>
      <point x="159.0183908045977" y="684.9241379310345"/>
      <point x="197.28275862068966" y="684.9241379310345" type="curve"/>
      <point x="204.00689655172414" y="736.3735632183908"/>
      <point x="229.73103448275862" y="782.7218390804597"/>
      <point x="269.59080459770115" y="782.7218390804597" type="curve" smooth="yes"/>
      <point x="302.1034482758621" y="782.7218390804597"/>
      <point x="314.083908045977" y="756.0896551724139"/>
      <point x="314.083908045977" y="726.7540229885058" type="curve" smooth="yes"/>
      <point x="314.083908045977" y="666.8287356321839"/>
      <point x="288.1229885057472" y="618.7379310344827"/>
      <point x="208.34252873563216" y="549.196551724138" type="curve" smooth="yes"/>
      <point x="67.5" y="428.10459770114943" type="line"/>
    </contour>
  </outline>
</glyph>
<glyph name="threesuperior" format="2">
  <advance width="370.97011494252877"/>
  <unicode hex="00B3"/>
  <outline>
    <contour>
      <point x="201.70919540229883" y="380.0" type="curve" smooth="yes"/>
      <point x="307.3873563218391" y="380.0"/>
      <point x="384.36565517241377" y="428.73333333333335"/>
      <point x="384.3666666666667" y="518.2022988505747" type="curve" smooth="yes"/>
      <point x="384.3666666666667" y="571.4701149425287"/>
      <point x="348.2988505747127" y="603.2655172413794"/>
      <point x="292.33103448275864" y="610.2655172413794" type="curve"/>
      <point x="293.0655172413793" y="614.6333333333333" type="line"/>
      <point x="362.032183908046" y="630.3666666666667"/>
      <point x="413.2816091954023" y="663.7333333333333"/>
      <point x="413.2816091954023" y="734.4666666666667" type="curve" smooth="yes"/>
      <point x="413.2816091954023" y="783.7333333333333"/>
      <point x="373.6724137931035" y="824.0"/>
      <point x="287.8114942528736" y="824.0" type="curve" smooth="yes"/>
      <point x="197.49310344827586" y="824.0"/>
      <point x="143.24137931034483" y="785.0919540229885"/>
      <point x="143.24137931034483" y="737.9908045977012" type="curve" smooth="yes"/>
      <point x="143.24137931034483" y="706.4586206896552"/>
      <point x="168.5954022988506" y="695.7218390804597"/>
      <point x="207.77816091954023" y="695.7218390804597" type="curve"/>
      <point x="216.39080459770113" y="741.6206896551724"/>
      <point x="236.4551724137931" y="782.2540229885058"/>
      <point x="282.6183908045977" y="782.2540229885058" type="curve" smooth="yes"/>
      <point x="310.4977011494253" y="782.2540229885058"/>
      <point x="324.4770114942529" y="763.1620689655173"/>
      <point x="324.4770114942529" y="734.8448275862069" type="curve" smooth="yes"/>
      <point x="324.4770114942529" y="669.1919540229885"/>
      <point x="274.05632183908045" y="630.0"/>
      <point x="220.2655172413793" y="630.0" type="curve" smooth="yes"/>
      <point x="189.29080459770114" y="630.0" type="line"/>
      <point x="181.18965517241378" y="587.8126436781608" type="line"/>
      <point x="211.72413793103448" y="587.8126436781608" type="line" smooth="yes"/>
      <point x="270.8551724137931" y="587.8126436781608"/>
      <point x="296.65517241379314" y="555.5367816091955"/>
      <point x="296.65517241379314" y="514.7333333333333" type="curve" smooth="yes"/>
      <point x="296.65517241379314" y="451.6448275862069"/>
      <point x="257.7747126436782" y="426.7287356321839"/>
      <point x="209.15977011494252" y="426.7287356321839" type="curve" smooth="yes"/>
      <point x="153.8448275862069" y="426.7287356321839"/>
      <point x="133.21954022988504" y="473.7390804597701"/>
      <point x="133.9528735632184" y="512.7287356321839" type="curve"/>
      <point x="100.76206896551724" y="512.7287356321839"/>
      <point x="74.76666666666667" y="493.37011494252874"/>
      <point x="74.76666666666667" y="457.5344827586207" type="curve" smooth="yes"/>
      <point x="74.76666666666667" y="410.80689655172415"/>
      <point x="118.92758620689655" y="380.0"/>
    </contour>
  </outline>
</glyph>
<glyph name="multiply" format="2">
  <advance width="509.8666666666667"/>
  <unicode hex="00D7"/>
  <outline>
    <contour>
      <point x="114.06896551724137" y="152.82183908045977" type="line"/>
      <point x="262.31034482758616" y="313.26206896551724" type="line"/>
      <point x="410.35977011494253" y="153.0241379310345" type="line"/>
      <point x="454.7310344827586" y="194.46206896551723" type="line"/>
      <point x="303.84942528735627" y="358.10114942528736" type="line"/>
      <point x="454.7310344827586" y="521.3735632183908" type="line"/>
      <point x="410.083908045977" y="563.4448275862069" type="line"/>
      <point x="262.31034482758616" y="403.38045977011495" type="line"/>
      <point x="114.06896551724137" y="563.2793103448276" type="line"/>
      <point x="69.42183908045978" y="521.8413793103449" type="line"/>
      <point x="220.59655172413792" y="358.7344827586207" type="line"/>
      <point x="69.42183908045978" y="194.62758620689655" type="line"/>
    </contour>
  </outline>
</glyph>
<glyph name="divide" format="2">
  <advance width="509.8666666666667"/>
  <unicode hex="00F7"/>
  <outline>
    <contour>
      <point x="63.14137931034483" y="326.81264367816095" type="line"/>
      <point x="460.1528735632184" y="326.81264367816095" type="line"/>
      <point x="460.1528735632184" y="388.18735632183905" type="line"/>
      <point x="63.14137931034483" y="388.18735632183905" type="line"/>
    </contour>
    <contour>
      <point x="262.4126436781609" y="111.81264367816091" type="curve" smooth="yes"/>
      <point x="289.4068965517241" y="111.81264367816091"/>
      <point x="311.85862068965514" y="126.36436781609196"/>
      <point x="311.85862068965514" y="168.0" type="curve" smooth="yes"/>
      <point x="311.85862068965514" y="210.63563218390803"/>
      <point x="289.4068965517241" y="224.18735632183908"/>
      <point x="262.4126436781609" y="224.18735632183908" type="curve" smooth="yes"/>
      <point x="233.78620689655173" y="224.18735632183908"/>
      <point x="212.70114942528735" y="210.63563218390803"/>
      <point x="212.70114942528735" y="168.0" type="curve" smooth="yes"/>
      <point x="212.70114942528735" y="126.36436781609196"/>
      <point x="233.78620689655173" y="111.81264367816091"/>
    </contour>
    <contour>
      <point x="262.4126436781609" y="490.81264367816095" type="curve" smooth="yes"/>
      <point x="289.4068965517241" y="490.81264367816095"/>
      <point x="311.85862068965514" y="505.36436781609194"/>
      <point x="311.85862068965514" y="547.0" type="curve" smooth="yes"/>
      <point x="311.85862068965514" y="589.6356321839081"/>
      <point x="289.4068965517241" y="603.1873563218392"/>
      <point x="262.4126436781609" y="603.1873563218392" type="curve" smooth="yes"/>
      <point x="233.78620689655173" y="603.1873563218392"/>
      <point x="212.70114942528735" y="589.6356321839081"/>
      <point x="212.70114942528735" y="547.0" type="curve" smooth="yes"/>
      <point x="212.70114942528735" y="505.36436781609194"/>
      <point x="233.78620689655173" y="490.81264367816095"/>
    </contour>
  </outline>
</glyph>
<glyph name="udatta-deva" format="2">
  <unicode hex="0951"/>
  <anchor x="59.55172413793103" y="556.6850574712644" name="_vedic"/>
  <outline>
    <contour>
      <point x="108.4264367816092" y="919.0011494252874" type="line"/>
      <point x="165.33908045977012" y="919.0011494252874" type="line"/>
      <point x="206.96436781609194" y="1116.355172413793" type="line"/>
      <point x="149.97816091954022" y="1116.355172413793" type="line"/>
    </contour>
  </outline>
</glyph>
<glyph name="anudatta-deva" format="2">
  <unicode hex="0952"/>
  <anchor x="-59.0" y="0.0" name="_bottom"/>
  <outline>
    <contour>
      <point x="-375.8264367816092" y="-548.9586206896552" type="line"/>
      <point x="25.014942528735634" y="-548.9586206896552" type="line"/>
      <point x="40.191954022988504" y="-476.1471264367816" type="line"/>
      <point x="-360.64942528735634" y="-476.1471264367816" type="line"/>
    </contour>
  </outline>
</glyph>
<glyph name="danda-deva" format="2">
  <advance width="288.5287356321839"/>
  <unicode hex="0964"/>
  <outline>
    <contour>
      <point x="30.880459770114946" y="0.0" type="line"/>
      <point x="139.3620689655172" y="0.0" type="line"/>
      <point x="257.91379310344826" y="556.6850574712644" type="line"/>
      <point x="149.16666666666666" y="556.6850574712644" type="line"/>
    </contour>
  </outline>
</glyph>
<glyph name="dbldanda-deva" format="2">
  <advance width="521.2022988505748"/>
  <unicode hex="0965"/>
  <outline>
    <contour>
      <point x="263.7287356321839" y="0.0" type="line"/>
      <point x="372.03563218390804" y="0.0" type="line"/>
      <point x="490.587356321839" y="556.6850574712644" type="line"/>
      <point x="381.84022988505745" y="556.6850574712644" type="line"/>
    </contour>
    <contour>
      <point x="30.880459770114946" y="0.0" type="line"/>
      <point x="139.3620689655172" y="0.0" type="line"/>
      <point x="257.91379310344826" y="556.6850574712644" type="line"/>
      <point x="149.16666666666666" y="556.6850574712644" type="line"/>
    </contour>
  </outline>
</glyph>
<glyph name="anusvara-tamil" format="2">
  <unicode hex="0B82"/>
  <note>
uni0B82
</note>
  <anchor x="59.55172413793103" y="556.6850574712644" name="_top"/>
  <outline>
    <contour>
      <point x="100.18620689655172" y="630.2229885057471" type="curve" smooth="yes"/>
      <point x="169.20459770114945" y="630.2229885057471"/>
      <point x="221.12298850574714" y="678.7747126436782"/>
      <point x="221.12298850574714" y="748.5827586206896" type="curve" smooth="yes"/>
      <point x="221.12298850574714" y="818.583908045977"/>
      <point x="169.20459770114945" y="867.3"/>
      <point x="100.18620689655172" y="867.3" type="curve" smooth="yes"/>
      <point x="31.167816091954023" y="867.3"/>
      <point x="-20.75057471264368" y="818.583908045977"/>
      <point x="-20.75057471264368" y="748.5827586206896" type="curve" smooth="yes"/>
      <point x="-20.75057471264368" y="678.7747126436782"/>
      <point x="31.167816091954023" y="630.2229885057471"/>
    </contour>
    <contour>
      <point x="100.18620689655172" y="689.8597701149424" type="curve" smooth="yes"/>
      <point x="67.17471264367816" y="689.8597701149424"/>
      <point x="42.97701149425287" y="714.2218390804597"/>
      <point x="42.97701149425287" y="748.5827586206896" type="curve" smooth="yes"/>
      <point x="42.97701149425287" y="783.2275862068966"/>
      <point x="67.17471264367816" y="807.5896551724137"/>
      <point x="100.18620689655172" y="807.5896551724137" type="curve" smooth="yes"/>
      <point x="133.19770114942528" y="807.5896551724137"/>
      <point x="157.3954022988506" y="783.2275862068966"/>
      <point x="157.3954022988506" y="748.5827586206896" type="curve" smooth="yes"/>
      <point x="157.3954022988506" y="714.2218390804597"/>
      <point x="133.19770114942528" y="689.8597701149424"/>
    </contour>
  </outline>
</glyph>
<glyph name="visarga-tamil" format="2">
  <advance width="815.9402298850574"/>
  <unicode hex="0B83"/>
  <note>
uni0B83
</note>
  <outline>
    <contour>
      <point x="157.99080459770113" y="-1.3793103448275865" type="curve" smooth="yes"/>
      <point x="263.719540229885" y="-1.3793103448275865"/>
      <point x="348.8367816091954" y="92.04482758620689"/>
      <point x="349.1022988505747" y="220.48045977011495" type="curve" smooth="yes"/>
      <point x="349.367816091954" y="320.42988505747127"/>
      <point x="291.13103448275865" y="370.1034482758621"/>
      <point x="209.967816091954" y="370.1034482758621" type="curve" smooth="yes"/>
      <point x="99.016091954023" y="370.1034482758621"/>
      <point x="27.731034482758623" y="256.0"/>
      <point x="27.731034482758623" y="147.5954022988506" type="curve" smooth="yes"/>
      <point x="27.731034482758623" y="62.85862068965516"/>
      <point x="73.28505747126438" y="-1.3793103448275865"/>
    </contour>
    <contour>
      <point x="151.26896551724138" y="52.26781609195403" type="curve" smooth="yes"/>
      <point x="101.8264367816092" y="52.26781609195403"/>
      <point x="79.62183908045978" y="93.4"/>
      <point x="79.62183908045978" y="151.46666666666664" type="curve" smooth="yes"/>
      <point x="79.62183908045978" y="227.59310344827585"/>
      <point x="122.95517241379311" y="317.21839080459773"/>
      <point x="195.0183908045977" y="317.21839080459773" type="curve" smooth="yes"/>
      <point x="240.94827586206895" y="317.21839080459773"/>
      <point x="268.08620689655174" y="288.1252873563218"/>
      <point x="268.08620689655174" y="226.6919540229885" type="curve" smooth="yes"/>
      <point x="268.08620689655174" y="133.2609195402299"/>
      <point x="222.2034482758621" y="52.26781609195403"/>
    </contour>
    <contour>
      <point x="556.6678160919539" y="-1.3793103448275865" type="curve" smooth="yes"/>
      <point x="662.396551724138" y="-1.3793103448275865"/>
      <point x="747.5137931034483" y="92.04482758620689"/>
      <point x="747.7793103448275" y="220.48045977011495" type="curve" smooth="yes"/>
      <point x="748.0448275862069" y="320.42988505747127"/>
      <point x="689.8080459770115" y="370.1034482758621"/>
      <point x="608.6448275862069" y="370.1034482758621" type="curve" smooth="yes"/>
      <point x="497.69310344827585" y="370.1034482758621"/>
      <point x="426.4080459770115" y="256.0"/>
      <point x="426.4080459770115" y="147.5954022988506" type="curve" smooth="yes"/>
      <point x="426.4080459770115" y="62.85862068965516"/>
      <point x="471.96206896551723" y="-1.3793103448275865"/>
    </contour>
    <contour>
      <point x="549.9459770114943" y="52.26781609195403" type="curve" smooth="yes"/>
      <point x="500.50344827586207" y="52.26781609195403"/>
      <point x="478.2988505747127" y="93.4"/>
      <point x="478.2988505747127" y="151.46666666666664" type="curve" smooth="yes"/>
      <point x="478.2988505747127" y="227.59310344827585"/>
      <point x="521.632183908046" y="317.21839080459773"/>
      <point x="593.6954022988507" y="317.21839080459773" type="curve" smooth="yes"/>
      <point x="639.6252873563219" y="317.21839080459773"/>
      <point x="666.7632183908046" y="288.1252873563218"/>
      <point x="666.7632183908046" y="226.6919540229885" type="curve" smooth="yes"/>
      <point x="666.7632183908046" y="133.2609195402299"/>
      <point x="620.880459770115" y="52.26781609195403"/>
    </contour>
    <contour>
      <point x="443.6425287356322" y="417.6551724137931" type="curve" smooth="yes"/>
      <point x="549.3712643678161" y="417.6551724137931"/>
      <point x="634.4885057471265" y="511.0793103448276"/>
      <point x="634.7540229885059" y="639.5149425287357" type="curve" smooth="yes"/>
      <point x="635.0195402298851" y="739.464367816092"/>
      <point x="576.7827586206896" y="789.1379310344828"/>
      <point x="495.61954022988505" y="789.1379310344828" type="curve" smooth="yes"/>
      <point x="384.667816091954" y="789.1379310344828"/>
      <point x="313.38275862068963" y="675.0344827586207"/>
      <point x="313.38275862068963" y="566.6298850574713" type="curve" smooth="yes"/>
      <point x="313.38275862068963" y="481.8931034482759"/>
      <point x="358.9367816091954" y="417.6551724137931"/>
    </contour>
    <contour>
      <point x="436.92068965517245" y="471.3022988505747" type="curve" smooth="yes"/>
      <point x="387.47816091954024" y="471.3022988505747"/>
      <point x="365.2735632183908" y="512.4344827586207"/>
      <point x="365.2735632183908" y="570.5011494252874" type="curve" smooth="yes"/>
      <point x="365.2735632183908" y="646.6275862068966"/>
      <point x="408.6068965517241" y="736.2528735632184"/>
      <point x="480.67011494252876" y="736.2528735632184" type="curve" smooth="yes"/>
      <point x="526.6" y="736.2528735632184"/>
      <point x="553.7379310344827" y="707.1597701149425"/>
      <point x="553.7379310344827" y="645.7264367816091" type="curve" smooth="yes"/>
      <point x="553.7379310344827" y="552.2954022988505"/>
      <point x="507.8551724137931" y="471.3022988505747"/>
    </contour>
  </outline>
</glyph>
<glyph name="a-tamil" format="2">
  <advance width="1192.7459770114945"/>
  <unicode hex="0B85"/>
  <note>
uni0B85
</note>
  <anchor x="515.1850574712644" y="0.0" name="bottom"/>
  <anchor x="324.5298850574713" y="-128.8873563218391" name="nukta"/>
  <anchor x="633.2344827586207" y="556.6850574712644" name="top"/>
  <anchor x="633.9678160919541" y="556.6850574712644" name="vedic"/>
  <outline>
    <contour>
      <point x="897.1689655172413" y="-200.48850574712642" type="line"/>
      <point x="1004.8781609195403" y="-200.48850574712642" type="line"/>
      <point x="1165.7827586206897" y="556.6850574712644" type="line"/>
      <point x="1058.174712643678" y="556.6850574712644" type="line"/>
      <point x="975.8793103448276" y="169.24367816091953" type="line"/>
      <point x="87.50229885057472" y="169.24367816091953" type="line" smooth="yes"/>
      <point x="25.798850574712645" y="169.24367816091953"/>
      <point x="-7.465517241379311" y="131.6425287356322"/>
      <point x="-7.465517241379311" y="75.73908045977011" type="curve" smooth="yes"/>
      <point x="-7.465517241379311" y="-18.79195402298851"/>
      <point x="124.82643678160919" y="-128.8873563218391"/>
      <point x="338.26666666666665" y="-128.8873563218391" type="curve" smooth="yes"/>
      <point x="632.6885057471264" y="-128.8873563218391"/>
      <point x="865.7655172413794" y="18.801149425287353"/>
      <point x="865.7655172413794" y="298.6505747126437" type="curve" smooth="yes"/>
      <point x="865.7655172413794" y="473.6034482758621"/>
      <point x="743.5298850574713" y="561.6850574712644"/>
      <point x="592.5137931034483" y="561.6850574712644" type="curve" smooth="yes"/>
      <point x="460.0448275862069" y="561.6850574712644"/>
      <point x="353.3103448275862" y="481.80114942528735"/>
      <point x="353.3103448275862" y="364.92298850574707" type="curve" smooth="yes"/>
      <point x="353.3103448275862" y="298.8045977011494"/>
      <point x="398.4597701149425" y="240.2873563218391"/>
      <point x="484.2885057471264" y="240.2873563218391" type="curve" smooth="yes"/>
      <point x="576.3172413793104" y="240.2873563218391"/>
      <point x="639.5183908045977" y="295.93908045977014"/>
      <point x="639.5183908045977" y="387.0195402298851" type="curve" smooth="yes"/>
      <point x="639.5183908045977" y="450.81609195402297"/>
      <point x="598.0367816091954" y="503.90459770114944"/>
      <point x="544.2183908045978" y="519.0298850574712" type="curve"/>
      <point x="492.1252873563218" y="516.5402298850574" type="line"/>
      <point x="530.6057471264368" y="497.3919540229885"/>
      <point x="552.9149425287357" y="451.9068965517241"/>
      <point x="552.9149425287357" y="404.0344827586207" type="curve" smooth="yes"/>
      <point x="552.9149425287357" y="343.84137931034485"/>
      <point x="522.5563218390804" y="301.39540229885057"/>
      <point x="470.24942528735636" y="301.39540229885057" type="curve" smooth="yes"/>
      <point x="434.80114942528735" y="301.39540229885057"/>
      <point x="411.14137931034486" y="328.94137931034487"/>
      <point x="411.14137931034486" y="367.3022988505747" type="curve" smooth="yes"/>
      <point x="411.14137931034486" y="448.9655172413793"/>
      <point x="484.97126436781605" y="505.47816091954024"/>
      <point x="578.9241379310345" y="505.47816091954024" type="curve" smooth="yes"/>
      <point x="681.0333333333333" y="505.47816091954024"/>
      <point x="758.9333333333334" y="434.08160919540234"/>
      <point x="758.9333333333334" y="304.0091954022988" type="curve" smooth="yes"/>
      <point x="758.9333333333334" y="67.64482758620689"/>
      <point x="579.5321839080459" y="-72.68045977011494"/>
      <point x="339.7735632183908" y="-72.68045977011494" type="curve" smooth="yes"/>
      <point x="163.97241379310344" y="-72.68045977011494"/>
      <point x="51.864367816091956" y="12.954022988505745"/>
      <point x="51.864367816091956" y="77.25287356321839" type="curve" smooth="yes"/>
      <point x="51.864367816091956" y="100.2551724137931"/>
      <point x="61.139080459770106" y="113.31264367816091"/>
      <point x="88.4655172413793" y="113.31264367816091" type="curve" smooth="yes"/>
      <point x="964.3275862068966" y="113.31264367816091" type="line"/>
    </contour>
  </outline>
</glyph>
<glyph name="aa-tamil" format="2">
  <advance width="1358.7298850574712"/>
  <unicode hex="0B86"/>
  <note>
uni0B86
</note>
  <anchor x="605.7873563218391" y="0.0" name="bottom"/>
  <anchor x="322.21609195402294" y="-128.8873563218391" name="nukta"/>
  <anchor x="731.3781609195403" y="556.6850574712644" name="top"/>
  <anchor x="731.46091954023" y="556.6850574712644" name="vedic"/>
  <outline>
    <contour>
      <point x="793.1264367816091" y="-433.4022988505747" type="curve" smooth="yes"/>
      <point x="1025.3390804597702" y="-433.4022988505747"/>
      <point x="1259.435632183908" y="-283.26781609195405"/>
      <point x="1259.435632183908" y="-67.28735632183908" type="curve" smooth="yes"/>
      <point x="1259.435632183908" y="16.65057471264368"/>
      <point x="1213.222988505747" y="55.65747126436782"/>
      <point x="1152.1758620689654" y="55.65747126436782" type="curve" smooth="yes"/>
      <point x="1086.0793103448277" y="55.65747126436782"/>
      <point x="1027.335632183908" y="-1.701149425287354"/>
      <point x="1000.5287356321838" y="-98.25747126436782" type="curve"/>
      <point x="1021.9839080459772" y="-107.91724137931035" type="line"/>
      <point x="1033.526436781609" y="-54.43218390804598"/>
      <point x="1066.319540229885" y="-31.03103448275862"/>
      <point x="1098.0735632183907" y="-31.03103448275862" type="curve" smooth="yes"/>
      <point x="1130.8471264367818" y="-31.03103448275862"/>
      <point x="1151.5563218390805" y="-50.92298850574713"/>
      <point x="1151.5563218390805" y="-91.80804597701149" type="curve" smooth="yes"/>
      <point x="1151.5563218390805" y="-249.43563218390807"/>
      <point x="966.4954022988505" y="-377.57241379310346"/>
      <point x="792.3379310344828" y="-377.57241379310346" type="curve" smooth="yes"/>
      <point x="695.1528735632185" y="-377.57241379310346"/>
      <point x="640.5574712643678" y="-343.89310344827584"/>
      <point x="640.5574712643678" y="-284.4988505747126" type="curve" smooth="yes"/>
      <point x="640.5574712643678" y="-233.18275862068964"/>
      <point x="688.0747126436783" y="-203.00919540229887"/>
      <point x="757.5747126436783" y="-189.1022988505747" type="curve"/>
      <point x="748.5574712643678" y="-135.30919540229885" type="line"/>
      <point x="650.583908045977" y="-156.22528735632184"/>
      <point x="582.9839080459769" y="-205.77816091954023"/>
      <point x="582.9839080459769" y="-291.75632183908044" type="curve" smooth="yes"/>
      <point x="582.9839080459769" y="-376.5632183908046"/>
      <point x="661.4482758620688" y="-433.4022988505747"/>
    </contour>
    <component base="a-tamil"/>
  </outline>
</glyph>
<glyph name="i-tamil" format="2">
  <advance width="927.6655172413793"/>
  <unicode hex="0B87"/>
  <note>
uni0B87
</note>
  <anchor x="382.63448275862066" y="0.0" name="bottom"/>
  <anchor x="327.22873563218394" y="-267.48275862068965" name="nukta"/>
  <anchor x="532.6448275862069" y="831.4252873563219" name="top"/>
  <anchor x="487.74597701149423" y="556.6850574712644" name="vedic"/>
  <outline>
    <contour>
      <point x="110.90919540229885" y="-303.61149425287357" type="curve" smooth="yes"/>
      <point x="418.36551724137934" y="-303.61149425287357"/>
      <point x="711.7563218390804" y="18.154022988505748"/>
      <point x="711.7563218390804" y="327.0137931034483" type="curve" smooth="yes"/>
      <point x="711.7563218390804" y="483.77701149425286"/>
      <point x="616.9758620689655" y="561.6850574712644"/>
      <point x="479.31609195402297" y="561.6850574712644" type="curve" smooth="yes"/>
      <point x="355.54712643678164" y="561.6850574712644"/>
      <point x="252.25517241379308" y="475.03333333333336"/>
      <point x="252.25517241379308" y="359.983908045977" type="curve" smooth="yes"/>
      <point x="252.25517241379308" y="291.4908045977011"/>
      <point x="301.7413793103449" y="242.75862068965517"/>
      <point x="375.08160919540234" y="242.75862068965517" type="curve" smooth="yes"/>
      <point x="462.9310344827586" y="242.75862068965517"/>
      <point x="528.9402298850574" y="298.05172413793105"/>
      <point x="528.9402298850574" y="387.9597701149425" type="curve" smooth="yes"/>
      <point x="528.9402298850574" y="447.5137931034482"/>
      <point x="495.92758620689665" y="502.65977011494255"/>
      <point x="432.8298850574713" y="519.9609195402298" type="curve"/>
      <point x="384.31609195402297" y="515.2988505747126" type="line"/>
      <point x="422.34712643678165" y="494.2413793103449"/>
      <point x="443.31609195402297" y="455.4850574712643"/>
      <point x="443.31609195402297" y="406.1275862068966" type="curve" smooth="yes"/>
      <point x="443.31609195402297" y="351.9804597701149"/>
      <point x="415.9574712643678" y="302.9862068965517"/>
      <point x="362.5218390804598" y="302.9862068965517" type="curve" smooth="yes"/>
      <point x="330.2413793103448" y="302.9862068965517"/>
      <point x="309.0735632183908" y="327.15402298850574"/>
      <point x="309.0735632183908" y="365.52068965517236" type="curve" smooth="yes"/>
      <point x="309.0735632183908" y="443.1701149425287"/>
      <point x="375.61034482758623" y="505.6528735632184"/>
      <point x="464.6528735632184" y="505.6528735632184" type="curve" smooth="yes"/>
      <point x="555.2413793103449" y="505.6528735632184"/>
      <point x="608.112643678161" y="443.33103448275864"/>
      <point x="608.112643678161" y="337.1275862068966" type="curve" smooth="yes"/>
      <point x="608.112643678161" y="55.122988505747124"/>
      <point x="383.33563218390805" y="-247.30344827586208"/>
      <point x="122.75632183908047" y="-247.30344827586208" type="curve" smooth="yes"/>
      <point x="57.49655172413794" y="-247.30344827586208"/>
      <point x="16.350574712643677" y="-216.07816091954024"/>
      <point x="16.350574712643677" y="-158.22873563218388" type="curve" smooth="yes"/>
      <point x="16.350574712643677" y="-24.71609195402299"/>
      <point x="205.16436781609195" y="54.26896551724138"/>
      <point x="373.79195402298853" y="54.26896551724138" type="curve" smooth="yes"/>
      <point x="525.1091954022988" y="54.26896551724138"/>
      <point x="688.7528735632184" y="-9.995402298850577"/>
      <point x="688.7528735632184" y="-127.76551724137931" type="curve" smooth="yes"/>
      <point x="688.7528735632184" y="-212.2344827586207"/>
      <point x="629.7091954022989" y="-247.30344827586208"/>
      <point x="541.0896551724138" y="-247.30344827586208" type="curve" smooth="yes"/>
      <point x="333.132183908046" y="-247.30344827586208"/>
      <point x="133.92988505747127" y="11.871264367816092"/>
      <point x="133.92988505747127" y="284.9563218390805" type="curve" smooth="yes"/>
      <point x="133.92988505747127" y="541.6781609195402"/>
      <point x="263.351724137931" y="733.4701149425288"/>
      <point x="518.8747126436782" y="733.4701149425288" type="curve" smooth="yes"/>
      <point x="743.4413793103448" y="733.4701149425288"/>
      <point x="872.7379310344829" y="583.3045977011493"/>
      <point x="817.303448275862" y="328.6494252873563" type="curve" smooth="yes"/>
      <point x="765.5241379310345" y="90.05517241379312" type="line"/>
      <point x="824.4310344827586" y="90.05517241379312" type="line"/>
      <point x="877.0275862068966" y="332.39425287356323" type="line" smooth="yes"/>
      <point x="944.071264367816" y="640.3747126436782"/>
      <point x="806.096551724138" y="831.4252873563219"/>
      <point x="532.6448275862069" y="831.4252873563219" type="curve" smooth="yes"/>
      <point x="238.42988505747127" y="831.4252873563219"/>
      <point x="72.30229885057472" y="599.7068965517241"/>
      <point x="72.30229885057472" y="294.81954022988504" type="curve" smooth="yes"/>
      <point x="72.30229885057472" y="-18.385057471264368"/>
      <point x="292.11494252873564" y="-303.4367816091954"/>
      <point x="554.8321839080459" y="-303.4367816091954" type="curve" smooth="yes"/>
      <point x="666.3390804597702" y="-303.4367816091954"/>
      <point x="753.5850574712643" y="-247.2528735632184"/>
      <point x="753.5850574712643" y="-128.91954022988506" type="curve" smooth="yes"/>
      <point x="753.5850574712643" y="28.099999999999998"/>
      <point x="569.2540229885057" y="109.17241379310344"/>
      <point x="378.9609195402299" y="109.17241379310344" type="curve" smooth="yes"/>
      <point x="164.33793103448278" y="109.17241379310344"/>
      <point x="-50.087356321839074" y="6.862068965517242"/>
      <point x="-50.087356321839074" y="-169.6344827586207" type="curve" smooth="yes"/>
      <point x="-50.087356321839074" y="-252.45747126436783"/>
      <point x="12.517241379310345" y="-303.61149425287357"/>
    </contour>
  </outline>
</glyph>
<glyph name="ii-tamil" format="2">
  <advance width="723.5885057471265"/>
  <unicode hex="0B88"/>
  <note>
uni0B88
</note>
  <anchor x="315.98965517241385" y="0.0" name="bottom"/>
  <anchor x="316.2551724137931" y="0.0" name="nukta"/>
  <anchor x="436.2022988505748" y="556.6850574712644" name="top"/>
  <anchor x="436.64252873563225" y="556.6850574712644" name="vedic"/>
  <outline>
    <contour>
      <point x="27.40344827586207" y="0.0" type="line"/>
      <point x="87.78735632183908" y="0.0" type="line"/>
      <point x="194.0632183908046" y="500.8551724137931" type="line"/>
      <point x="437.99655172413793" y="500.8551724137931" type="line"/>
      <point x="331.26206896551724" y="0.0" type="line"/>
      <point x="439.24712643678157" y="0.0" type="line"/>
      <point x="545.5229885057472" y="500.8551724137931" type="line"/>
      <point x="723.5862068965516" y="500.8551724137931" type="line"/>
      <point x="735.687356321839" y="556.6850574712644" type="line"/>
      <point x="145.68965517241378" y="556.6850574712644" type="line"/>
    </contour>
    <contour>
      <point x="264.0252873563218" y="207.05172413793102" type="curve" smooth="yes"/>
      <point x="296.95977011494256" y="207.05172413793102"/>
      <point x="323.1137931034483" y="233.92068965517242"/>
      <point x="323.1137931034483" y="264.9563218390805" type="curve" smooth="yes"/>
      <point x="323.1137931034483" y="295.71609195402294"/>
      <point x="296.95977011494256" y="322.29080459770114"/>
      <point x="264.0252873563218" y="322.29080459770114" type="curve" smooth="yes"/>
      <point x="231.09080459770115" y="322.29080459770114"/>
      <point x="205.03793103448277" y="295.71609195402294"/>
      <point x="205.03793103448277" y="264.9563218390805" type="curve" smooth="yes"/>
      <point x="205.03793103448277" y="233.92068965517242"/>
      <point x="231.09080459770115" y="207.05172413793102"/>
    </contour>
    <contour>
      <point x="615.1172413793104" y="207.05172413793102" type="curve" smooth="yes"/>
      <point x="648.051724137931" y="207.05172413793102"/>
      <point x="674.2057471264367" y="233.92068965517242"/>
      <point x="674.2057471264367" y="264.9563218390805" type="curve" smooth="yes"/>
      <point x="674.2057471264367" y="295.71609195402294"/>
      <point x="648.051724137931" y="322.29080459770114"/>
      <point x="615.1172413793104" y="322.29080459770114" type="curve" smooth="yes"/>
      <point x="582.1827586206897" y="322.29080459770114"/>
      <point x="556.1298850574711" y="295.71609195402294"/>
      <point x="556.1298850574711" y="264.9563218390805" type="curve" smooth="yes"/>
      <point x="556.1298850574711" y="233.92068965517242"/>
      <point x="582.1827586206897" y="207.05172413793102"/>
    </contour>
  </outline>
</glyph>
<glyph name="u-tamil" format="2">
  <advance width="904.3793103448277"/>
  <unicode hex="0B89"/>
  <note>
uni0B89
</note>
  <anchor x="417.083908045977" y="0.0" name="bottom"/>
  <anchor x="417.3494252873563" y="0.0" name="nukta"/>
  <anchor x="538.5436781609195" y="556.6850574712644" name="top"/>
  <anchor x="538.4609195402298" y="556.6850574712644" name="vedic"/>
  <outline>
    <contour>
      <point x="88.00114942528735" y="0.0" type="curve" smooth="yes"/>
      <point x="826.0402298850574" y="0.0" type="line"/>
      <point x="838.0505747126437" y="55.93103448275862" type="line"/>
      <point x="93.86551724137931" y="55.93103448275862" type="line" smooth="yes"/>
      <point x="74.16206896551724" y="55.93103448275862"/>
      <point x="57.71149425287356" y="68.34942528735633"/>
      <point x="57.71149425287356" y="91.57931034482759" type="curve" smooth="yes"/>
      <point x="57.71149425287356" y="119.05172413793102"/>
      <point x="79.88160919540229" y="133.7494252873563"/>
      <point x="103.89310344827585" y="133.7494252873563" type="curve" smooth="yes"/>
      <point x="326.10114942528736" y="133.7494252873563" type="line" smooth="yes"/>
      <point x="490.5195402298851" y="133.7494252873563"/>
      <point x="619.8551724137931" y="211.19425287356324"/>
      <point x="619.8551724137931" y="365.68850574712644" type="curve" smooth="yes"/>
      <point x="619.8551724137931" y="497.54482758620696"/>
      <point x="512.9586206896552" y="561.6850574712644"/>
      <point x="382.8574712643678" y="561.6850574712644" type="curve" smooth="yes"/>
      <point x="248.34482758620692" y="561.6850574712644"/>
      <point x="138.45172413793105" y="477.2724137931035"/>
      <point x="138.45172413793105" y="367.4068965517241" type="curve" smooth="yes"/>
      <point x="138.45172413793105" y="303.45632183908043"/>
      <point x="179.79885057471265" y="244.77471264367816"/>
      <point x="264.9287356321839" y="244.77471264367816" type="curve" smooth="yes"/>
      <point x="357.8931034482759" y="244.77471264367816"/>
      <point x="420.848275862069" y="302.72643678160915"/>
      <point x="420.848275862069" y="388.4735632183908" type="curve" smooth="yes"/>
      <point x="420.848275862069" y="449.0356321839081"/>
      <point x="381.71264367816093" y="501.6275862068965"/>
      <point x="330.56321839080465" y="519.5609195402299" type="curve"/>
      <point x="280.4919540229885" y="516.1103448275862" type="line"/>
      <point x="315.5080459770115" y="489.9091954022989"/>
      <point x="335.63218390804593" y="448.0045977011494"/>
      <point x="335.63218390804593" y="403.3149425287356" type="curve" smooth="yes"/>
      <point x="335.63218390804593" y="345.0275862068965"/>
      <point x="306.91954022988506" y="303.7310344827586"/>
      <point x="254.35287356321842" y="303.7310344827586" type="curve" smooth="yes"/>
      <point x="214.516091954023" y="303.7310344827586"/>
      <point x="196.54827586206898" y="336.0620689655172"/>
      <point x="196.54827586206898" y="372.13563218390806" type="curve" smooth="yes"/>
      <point x="196.54827586206898" y="443.20804597701147"/>
      <point x="266.78045977011493" y="505.68045977011496"/>
      <point x="367.18505747126443" y="505.68045977011496" type="curve" smooth="yes"/>
      <point x="452.2459770114943" y="505.68045977011496"/>
      <point x="513.8000000000001" y="462.30574712643676"/>
      <point x="513.8000000000001" y="367.8758620689655" type="curve" smooth="yes"/>
      <point x="513.8000000000001" y="256.1390804597701"/>
      <point x="436.8264367816092" y="188.30344827586208"/>
      <point x="321.5896551724138" y="188.30344827586208" type="curve" smooth="yes"/>
      <point x="112.1448275862069" y="188.30344827586208" type="line" smooth="yes"/>
      <point x="43.98275862068965" y="188.30344827586208"/>
      <point x="-0.3862068965517238" y="146.067816091954"/>
      <point x="-0.3862068965517238" y="85.0390804597701" type="curve" smooth="yes"/>
      <point x="-0.3862068965517238" y="37.265517241379314"/>
      <point x="34.0" y="0.0"/>
    </contour>
  </outline>
</glyph>
<glyph name="uu-tamil" format="2">
  <advance width="1562.354022988506"/>
  <unicode hex="0B8A"/>
  <note>
uni0B8A
</note>
  <anchor x="749.1091954022988" y="0.0" name="bottom"/>
  <anchor x="749.5678160919541" y="0.0" name="nukta"/>
  <anchor x="870.6413793103449" y="556.6850574712644" name="top"/>
  <anchor x="870.4862068965517" y="556.6850574712644" name="vedic"/>
  <outline>
    <contour>
      <point x="88.00114942528735" y="0.0" type="curve" smooth="yes"/>
      <point x="1472.389655172414" y="0.0" type="line"/>
      <point x="1484.4" y="55.93103448275862" type="line"/>
      <point x="93.86551724137931" y="55.93103448275862" type="line" smooth="yes"/>
      <point x="74.16206896551724" y="55.93103448275862"/>
      <point x="57.71149425287356" y="68.34942528735633"/>
      <point x="57.71149425287356" y="91.57931034482759" type="curve" smooth="yes"/>
      <point x="57.71149425287356" y="119.05172413793102"/>
      <point x="79.88160919540229" y="133.7494252873563"/>
      <point x="103.89310344827585" y="133.7494252873563" type="curve" smooth="yes"/>
      <point x="326.10114942528736" y="133.7494252873563" type="line" smooth="yes"/>
      <point x="490.5195402298851" y="133.7494252873563"/>
      <point x="619.8551724137931" y="211.19425287356324"/>
      <point x="619.8551724137931" y="365.68850574712644" type="curve" smooth="yes"/>
      <point x="619.8551724137931" y="497.54482758620696"/>
      <point x="512.9586206896552" y="561.6850574712644"/>
      <point x="382.8574712643678" y="561.6850574712644" type="curve" smooth="yes"/>
      <point x="248.34482758620692" y="561.6850574712644"/>
      <point x="138.45172413793105" y="477.2724137931035"/>
      <point x="138.45172413793105" y="367.4068965517241" type="curve" smooth="yes"/>
      <point x="138.45172413793105" y="303.45632183908043"/>
      <point x="179.79885057471265" y="244.77471264367816"/>
      <point x="264.9287356321839" y="244.77471264367816" type="curve" smooth="yes"/>
      <point x="357.8931034482759" y="244.77471264367816"/>
      <point x="420.848275862069" y="302.72643678160915"/>
      <point x="420.848275862069" y="388.4735632183908" type="curve" smooth="yes"/>
      <point x="420.848275862069" y="449.0356321839081"/>
      <point x="381.71264367816093" y="501.6275862068965"/>
      <point x="330.56321839080465" y="519.5609195402299" type="curve"/>
      <point x="280.4919540229885" y="516.1103448275862" type="line"/>
      <point x="315.5080459770115" y="489.9091954022989"/>
      <point x="335.63218390804593" y="448.0045977011494"/>
      <point x="335.63218390804593" y="403.3149425287356" type="curve" smooth="yes"/>
      <point x="335.63218390804593" y="345.0275862068965"/>
      <point x="306.91954022988506" y="303.7310344827586"/>
      <point x="254.35287356321842" y="303.7310344827586" type="curve" smooth="yes"/>
      <point x="214.516091954023" y="303.7310344827586"/>
      <point x="196.54827586206898" y="336.0620689655172"/>
      <point x="196.54827586206898" y="372.13563218390806" type="curve" smooth="yes"/>
      <point x="196.54827586206898" y="443.20804597701147"/>
      <point x="266.78045977011493" y="505.68045977011496"/>
      <point x="367.18505747126443" y="505.68045977011496" type="curve" smooth="yes"/>
      <point x="452.2459770114943" y="505.68045977011496"/>
      <point x="513.8000000000001" y="462.30574712643676"/>
      <point x="513.8000000000001" y="367.8758620689655" type="curve" smooth="yes"/>
      <point x="513.8000000000001" y="256.1390804597701"/>
      <point x="436.8264367816092" y="188.30344827586208"/>
      <point x="321.5896551724138" y="188.30344827586208" type="curve" smooth="yes"/>
      <point x="112.1448275862069" y="188.30344827586208" type="line" smooth="yes"/>
      <point x="43.98275862068965" y="188.30344827586208"/>
      <point x="-0.3862068965517238" y="146.067816091954"/>
      <point x="-0.3862068965517238" y="85.0390804597701" type="curve" smooth="yes"/>
      <point x="-0.3862068965517238" y="37.265517241379314"/>
      <point x="34.0" y="0.0"/>
    </contour>
    <contour>
      <point x="834.948275862069" y="107.68045977011494" type="curve" smooth="yes"/>
      <point x="930.7494252873562" y="107.68045977011494"/>
      <point x="1002.4011494252874" y="170.5448275862069"/>
      <point x="1002.4011494252874" y="271.1275862068965" type="curve" smooth="yes"/>
      <point x="1002.4011494252874" y="348.04597701149424"/>
      <point x="951.258620689655" y="390.98390804597705"/>
      <point x="883.5988505747127" y="390.98390804597705" type="curve" smooth="yes"/>
      <point x="805.3942528735632" y="390.98390804597705"/>
      <point x="747.5701149425288" y="326.82183908045977"/>
      <point x="719.548275862069" y="242.10919540229887" type="curve"/>
      <point x="736.3402298850575" y="210.64942528735634" type="line"/>
      <point x="757.5563218390805" y="275.03563218390804"/>
      <point x="797.383908045977" y="327.92873563218393"/>
      <point x="848.4103448275862" y="327.92873563218393" type="curve" smooth="yes"/>
      <point x="887.944827586207" y="327.92873563218393"/>
      <point x="911.128735632184" y="300.7793103448276"/>
      <point x="911.128735632184" y="258.1781609195402" type="curve" smooth="yes"/>
      <point x="911.128735632184" y="205.09885057471263"/>
      <point x="877.7333333333335" y="163.33793103448278"/>
      <point x="823.6126436781609" y="163.33793103448278" type="curve" smooth="yes"/>
      <point x="771.8988505747127" y="163.33793103448278"/>
      <point x="738.9781609195402" y="209.19425287356322"/>
      <point x="738.9781609195402" y="277.28045977011493" type="curve" smooth="yes"/>
      <point x="738.9781609195402" y="406.67586206896556"/>
      <point x="823.1942528735632" y="505.8551724137931"/>
      <point x="945.4632183908046" y="505.8551724137931" type="curve" smooth="yes"/>
      <point x="1054.0011494252874" y="505.8551724137931"/>
      <point x="1117.8172413793104" y="426.56206896551726"/>
      <point x="1093.0655172413792" y="305.57011494252873" type="curve"/>
      <point x="1141.0862068965519" y="305.57011494252873" type="line"/>
      <point x="1170.56091954023" y="461.0965517241379"/>
      <point x="1088.3655172413794" y="561.6850574712644"/>
      <point x="945.1988505747125" y="561.6850574712644" type="curve" smooth="yes"/>
      <point x="794.4022988505747" y="561.6850574712644"/>
      <point x="681.5206896551724" y="436.8149425287356"/>
      <point x="681.5206896551724" y="276.2540229885057" type="curve" smooth="yes"/>
      <point x="681.5206896551724" y="183.34482758620692"/>
      <point x="739.9172413793103" y="107.68045977011494"/>
    </contour>
    <contour>
      <point x="1051.505747126437" y="111.05517241379312" type="line"/>
      <point x="1152.1183908045978" y="111.05517241379312" type="line"/>
      <point x="1235.2275862068966" y="502.7080459770115" type="line"/>
      <point x="1386.6632183908043" y="502.7080459770115" type="line"/>
      <point x="1303.4632183908047" y="111.05517241379312" type="line"/>
      <point x="1403.7827586206897" y="111.05517241379312" type="line"/>
      <point x="1487.083908045977" y="502.7080459770115" type="line"/>
      <point x="1579.0229885057474" y="502.7080459770115" type="line"/>
      <point x="1590.4735632183908" y="556.6850574712644" type="line"/>
      <point x="1159.7367816091953" y="556.6850574712644" type="line"/>
      <point x="1122.1666666666667" y="377.94252873563215" type="line"/>
      <point x="1107.558620689655" y="374.74252873563216" type="line"/>
    </contour>
  </outline>
</glyph>
<glyph name="e-tamil" format="2">
  <advance width="847.0712643678162"/>
  <unicode hex="0B8E"/>
  <note>
uni0B8E
</note>
  <anchor x="392.367816091954" y="0.0" name="bottom"/>
  <anchor x="393.26666666666665" y="0.0" name="nukta"/>
  <anchor x="512.6528735632183" y="556.6850574712644" name="top"/>
  <anchor x="513.744827586207" y="556.6850574712644" name="vedic"/>
  <outline>
    <contour>
      <point x="224.76436781609198" y="-5.0" type="curve" smooth="yes"/>
      <point x="322.17586206896556" y="-5.0"/>
      <point x="405.3471264367816" y="60.61494252873563"/>
      <point x="405.3471264367816" y="173.04367816091954" type="curve" smooth="yes"/>
      <point x="405.3471264367816" y="252.50574712643677"/>
      <point x="351.06436781609193" y="308.51724137931035"/>
      <point x="270.48850574712645" y="308.51724137931035" type="curve" smooth="yes"/>
      <point x="179.9344827586207" y="308.51724137931035"/>
      <point x="112.73563218390807" y="237.13793103448276"/>
      <point x="82.57126436781608" y="128.23563218390805" type="curve"/>
      <point x="110.17471264367816" y="102.26666666666667" type="line"/>
      <point x="132.46206896551723" y="188.84482758620692"/>
      <point x="178.22758620689655" y="237.2965517241379"/>
      <point x="233.01609195402298" y="237.2965517241379" type="curve" smooth="yes"/>
      <point x="279.5816091954023" y="237.2965517241379"/>
      <point x="303.5402298850575" y="202.96091954022987"/>
      <point x="303.5402298850575" y="157.80344827586208" type="curve" smooth="yes"/>
      <point x="303.5402298850575" y="99.15632183908046"/>
      <point x="270.451724137931" y="52.51264367816092"/>
      <point x="210.06896551724137" y="52.51264367816092" type="curve" smooth="yes"/>
      <point x="144.65632183908045" y="52.51264367816092"/>
      <point x="99.52068965517242" y="114.6264367816092"/>
      <point x="99.52068965517242" y="212.20114942528735" type="curve" smooth="yes"/>
      <point x="99.52068965517242" y="374.832183908046"/>
      <point x="210.44827586206895" y="500.8551724137931"/>
      <point x="403.4022988505747" y="500.8551724137931" type="curve" smooth="yes"/>
      <point x="623.7459770114943" y="500.8551724137931" type="line"/>
      <point x="517.4701149425288" y="0.0" type="line"/>
      <point x="625.3540229885058" y="0.0" type="line"/>
      <point x="731.4551724137932" y="500.8551724137931" type="line"/>
      <point x="875.4597701149424" y="500.8551724137931" type="line"/>
      <point x="887.0114942528735" y="556.6850574712644" type="line"/>
      <point x="404.9793103448276" y="556.6850574712644" type="line" smooth="yes"/>
      <point x="179.19655172413795" y="556.6850574712644"/>
      <point x="42.17471264367816" y="402.2103448275862"/>
      <point x="42.17471264367816" y="208.3367816091954" type="curve" smooth="yes"/>
      <point x="42.17471264367816" y="81.3287356321839"/>
      <point x="114.69885057471264" y="-5.0"/>
    </contour>
  </outline>
</glyph>
<glyph name="ee-tamil" format="2">
  <advance width="846.7137931034483"/>
  <unicode hex="0B8F"/>
  <note>
uni0B8F
</note>
  <anchor x="393.37586206896555" y="0.0" name="bottom"/>
  <anchor x="354.26206896551724" y="-189.55632183908045" name="nukta"/>
  <anchor x="515.0183908045976" y="556.6850574712644" name="top"/>
  <anchor x="514.7528735632184" y="556.6850574712644" name="vedic"/>
  <outline>
    <contour>
      <point x="336.84137931034485" y="-235.40689655172415" type="line"/>
      <point x="629.8333333333334" y="22.722988505747125" type="line"/>
      <point x="731.7310344827587" y="500.8551724137931" type="line"/>
      <point x="875.1022988505747" y="500.8551724137931" type="line"/>
      <point x="887.1126436781608" y="556.6850574712644" type="line"/>
      <point x="404.9793103448276" y="556.6850574712644" type="line" smooth="yes"/>
      <point x="179.19655172413795" y="556.6850574712644"/>
      <point x="42.17471264367816" y="402.2103448275862"/>
      <point x="42.17471264367816" y="208.3367816091954" type="curve" smooth="yes"/>
      <point x="42.17471264367816" y="81.3287356321839"/>
      <point x="114.69885057471264" y="-5.0"/>
      <point x="224.76436781609198" y="-5.0" type="curve" smooth="yes"/>
      <point x="322.17586206896556" y="-5.0"/>
      <point x="405.3471264367816" y="60.61494252873563"/>
      <point x="405.3471264367816" y="173.04367816091954" type="curve" smooth="yes"/>
      <point x="405.3471264367816" y="252.50574712643677"/>
      <point x="351.06436781609193" y="308.51724137931035"/>
      <point x="270.48850574712645" y="308.51724137931035" type="curve" smooth="yes"/>
      <point x="179.9344827586207" y="308.51724137931035"/>
      <point x="112.73563218390807" y="237.13793103448276"/>
      <point x="82.57126436781608" y="128.23563218390805" type="curve"/>
      <point x="110.17471264367816" y="102.26666666666667" type="line"/>
      <point x="132.46206896551723" y="188.84482758620692"/>
      <point x="178.22758620689655" y="237.2965517241379"/>
      <point x="233.01609195402298" y="237.2965517241379" type="curve" smooth="yes"/>
      <point x="279.5816091954023" y="237.2965517241379"/>
      <point x="303.5402298850575" y="202.96091954022987"/>
      <point x="303.5402298850575" y="157.80344827586208" type="curve" smooth="yes"/>
      <point x="303.5402298850575" y="99.15632183908046"/>
      <point x="270.451724137931" y="52.51264367816092"/>
      <point x="210.06896551724137" y="52.51264367816092" type="curve" smooth="yes"/>
      <point x="144.65632183908045" y="52.51264367816092"/>
      <point x="99.52068965517242" y="114.6264367816092"/>
      <point x="99.52068965517242" y="212.20114942528735" type="curve" smooth="yes"/>
      <point x="99.52068965517242" y="374.832183908046"/>
      <point x="210.44827586206895" y="500.8551724137931"/>
      <point x="403.4022988505747" y="500.8551724137931" type="curve" smooth="yes"/>
      <point x="623.8471264367817" y="500.8551724137931" type="line"/>
      <point x="518.2758620689656" y="0.7609195402298846" type="line"/>
      <point x="300.03103448275857" y="-192.02183908045978" type="line"/>
    </contour>
  </outline>
</glyph>
<glyph name="ai-tamil" format="2">
  <advance width="909.0022988505747"/>
  <unicode hex="0B90"/>
  <note>
uni0B90
</note>
  <anchor x="395.167816091954" y="0.0" name="bottom"/>
  <anchor x="325.3229885057471" y="-302.71264367816093" name="nukta"/>
  <anchor x="524.0264367816092" y="556.6850574712644" name="top"/>
  <anchor x="521.9471264367816" y="556.6850574712644" name="vedic"/>
  <outline>
    <contour>
      <point x="160.28505747126437" y="-302.71264367816093" type="curve" smooth="yes"/>
      <point x="256.59080459770115" y="-302.71264367816093"/>
      <point x="337.0206896551724" y="-258.88045977011495"/>
      <point x="376.1620689655173" y="-177.31724137931033" type="curve"/>
      <point x="382.61609195402303" y="-244.89655172413794"/>
      <point x="441.2057471264368" y="-302.71264367816093"/>
      <point x="549.7068965517242" y="-302.71264367816093" type="curve" smooth="yes"/>
      <point x="688.0310344827586" y="-302.71264367816093"/>
      <point x="782.5390804597703" y="-214.783908045977"/>
      <point x="782.5390804597703" y="-70.46666666666667" type="curve" smooth="yes"/>
      <point x="782.5390804597703" y="-17.951724137931038"/>
      <point x="768.9172413793103" y="28.79655172413793"/>
      <point x="749.2816091954024" y="70.06896551724138" type="curve"/>
      <point x="697.5701149425288" y="44.41494252873564" type="line"/>
      <point x="714.2954022988506" y="9.512643678160918"/>
      <point x="724.8448275862069" y="-31.180459770114943"/>
      <point x="724.8448275862069" y="-68.95172413793104" type="curve" smooth="yes"/>
      <point x="724.8448275862069" y="-178.34482758620692"/>
      <point x="652.6287356321839" y="-241.10574712643677"/>
      <point x="551.2252873563218" y="-241.10574712643677" type="curve" smooth="yes"/>
      <point x="464.07931034482766" y="-241.10574712643677"/>
      <point x="431.9011494252873" y="-181.0494252873563"/>
      <point x="451.516091954023" y="-83.1103448275862" type="curve" smooth="yes"/>
      <point x="460.5908045977012" y="-38.16781609195402" type="line"/>
      <point x="355.3091954022989" y="-38.16781609195402" type="line"/>
      <point x="345.1954022988506" y="-84.25977011494253" type="line" smooth="yes"/>
      <point x="322.34137931034485" y="-188.44137931034484"/>
      <point x="260.81264367816095" y="-245.6528735632184"/>
      <point x="177.9528735632184" y="-245.6528735632184" type="curve" smooth="yes"/>
      <point x="113.6816091954023" y="-245.6528735632184"/>
      <point x="74.72873563218391" y="-205.00919540229884"/>
      <point x="74.72873563218391" y="-133.32758620689657" type="curve" smooth="yes"/>
      <point x="74.72873563218391" y="37.60229885057471"/>
      <point x="228.1551724137931" y="58.18045977011495"/>
      <point x="444.232183908046" y="80.50114942528737" type="curve" smooth="yes"/>
      <point x="679.5954022988506" y="105.33563218390805"/>
      <point x="870.6471264367816" y="173.9758620689655"/>
      <point x="870.6471264367816" y="389.7241379310344" type="curve" smooth="yes"/>
      <point x="870.6471264367816" y="506.05632183908045"/>
      <point x="789.7862068965517" y="561.8597701149424"/>
      <point x="693.3321839080459" y="561.8597701149424" type="curve" smooth="yes"/>
      <point x="609.8000000000001" y="561.8597701149424"/>
      <point x="543.9459770114943" y="520.416091954023"/>
      <point x="502.2091954022988" y="439.4103448275862" type="curve"/>
      <point x="482.80229885057474" y="520.5057471264367"/>
      <point x="408.5103448275862" y="561.8597701149424"/>
      <point x="316.3494252873564" y="561.8597701149424" type="curve" smooth="yes"/>
      <point x="172.41264367816092" y="561.8597701149424"/>
      <point x="62.05632183908046" y="457.78275862068966"/>
      <point x="62.05632183908046" y="310.98850574712645" type="curve" smooth="yes"/>
      <point x="62.05632183908046" y="227.43793103448277"/>
      <point x="110.18275862068965" y="156.32183908045977"/>
      <point x="196.0264367816092" y="156.32183908045977" type="curve" smooth="yes"/>
      <point x="277.0908045977011" y="156.32183908045977"/>
      <point x="350.4747126436781" y="209.6287356321839"/>
      <point x="350.4747126436781" y="302.2356321839081" type="curve" smooth="yes"/>
      <point x="350.4747126436781" y="371.10459770114943"/>
      <point x="305.635632183908" y="411.5494252873563"/>
      <point x="243.9655172413793" y="411.5494252873563" type="curve" smooth="yes"/>
      <point x="183.3298850574713" y="411.5494252873563"/>
      <point x="124.57931034482759" y="372.54367816091957"/>
      <point x="91.24252873563218" y="265.97011494252877" type="curve"/>
      <point x="109.69425287356323" y="233.97816091954024" type="line"/>
      <point x="137.27011494252872" y="321.367816091954"/>
      <point x="173.47931034482758" y="349.75172413793103"/>
      <point x="208.73103448275864" y="349.75172413793103" type="curve" smooth="yes"/>
      <point x="240.55287356321838" y="349.75172413793103"/>
      <point x="261.05632183908045" y="329.051724137931"/>
      <point x="261.05632183908045" y="292.8540229885058" type="curve" smooth="yes"/>
      <point x="261.05632183908045" y="246.94367816091955"/>
      <point x="232.88735632183906" y="212.73103448275862"/>
      <point x="188.83908045977012" y="212.73103448275862" type="curve" smooth="yes"/>
      <point x="147.4310344827586" y="212.73103448275862"/>
      <point x="118.45747126436783" y="250.14252873563217"/>
      <point x="118.45747126436783" y="309.23218390804595" type="curve" smooth="yes"/>
      <point x="118.45747126436783" y="418.96091954022995"/>
      <point x="195.07816091954024" y="505.55172413793105"/>
      <point x="306.8183908045977" y="505.55172413793105" type="curve" smooth="yes"/>
      <point x="408.3287356321839" y="505.55172413793105"/>
      <point x="451.7689655172413" y="442.28735632183907"/>
      <point x="430.1551724137931" y="341.5735632183908" type="curve" smooth="yes"/>
      <point x="402.9712643678161" y="214.9448275862069" type="line"/>
      <point x="508.2528735632184" y="214.9448275862069" type="line"/>
      <point x="540.2114942528735" y="369.8333333333333" type="line" smooth="yes"/>
      <point x="556.1655172413793" y="448.0149425287357"/>
      <point x="599.6919540229885" y="505.4505747126437"/>
      <point x="670.6701149425287" y="505.4505747126437" type="curve" smooth="yes"/>
      <point x="733.7919540229885" y="505.4505747126437"/>
      <point x="764.096551724138" y="464.3390804597701"/>
      <point x="764.096551724138" y="395.76666666666665" type="curve" smooth="yes"/>
      <point x="764.096551724138" y="193.07011494252873"/>
      <point x="619.4022988505747" y="145.67241379310343"/>
      <point x="383.7183908045977" y="121.0655172413793" type="curve" smooth="yes"/>
      <point x="152.27241379310342" y="97.15862068965517"/>
      <point x="-31.363218390804597" y="60.50689655172415"/>
      <point x="-31.363218390804597" y="-129.47126436781608" type="curve" smooth="yes"/>
      <point x="-31.363218390804597" y="-236.8977011494253"/>
      <point x="47.9528735632184" y="-302.71264367816093"/>
    </contour>
  </outline>
</glyph>
<glyph name="o-tamil" format="2">
  <advance width="922.9022988505748"/>
  <unicode hex="0B92"/>
  <note>
uni0B92
</note>
  <anchor x="411.1655172413793" y="0.0" name="bottom"/>
  <anchor x="338.06436781609193" y="-335.0" name="nukta"/>
  <anchor x="508.3034482758621" y="556.6850574712644" name="top"/>
  <anchor x="511.05517241379306" y="556.6850574712644" name="vedic"/>
  <outline>
    <contour>
      <point x="223.57471264367817" y="-330.82298850574716" type="curve" smooth="yes"/>
      <point x="410.6873563218391" y="-330.82298850574716"/>
      <point x="472.5540229885058" y="-144.4586206896552"/>
      <point x="628.473563218391" y="-144.4586206896552" type="curve" smooth="yes"/>
      <point x="666.2942528735632" y="-144.4586206896552" type="line"/>
      <point x="678.2862068965518" y="-88.21379310344827" type="line"/>
      <point x="630.7206896551724" y="-88.21379310344827" type="line" smooth="yes"/>
      <point x="468.7563218390805" y="-88.21379310344827"/>
      <point x="429.4022988505747" y="75.01034482758621"/>
      <point x="547.3367816091953" y="205.68850574712647" type="curve"/>
      <point x="551.9793103448275" y="202.22988505747128" type="line"/>
      <point x="493.15287356321835" y="96.17471264367816"/>
      <point x="523.155172413793" y="-4.898850574712644"/>
      <point x="639.4160919540229" y="-4.898850574712644" type="curve" smooth="yes"/>
      <point x="767.6988505747128" y="-4.898850574712644"/>
      <point x="863.4402298850575" y="95.93218390804599"/>
      <point x="863.4402298850575" y="246.60919540229884" type="curve" smooth="yes"/>
      <point x="863.4402298850575" y="458.99310344827586"/>
      <point x="678.6298850574714" y="561.6850574712644"/>
      <point x="474.3011494252873" y="561.6850574712644" type="curve" smooth="yes"/>
      <point x="236.98275862068965" y="561.6850574712644"/>
      <point x="40.08045977011494" y="409.5609195402299"/>
      <point x="40.08045977011494" y="207.91724137931035" type="curve" smooth="yes"/>
      <point x="40.08045977011494" y="80.90919540229885"/>
      <point x="110.65517241379311" y="-5.0"/>
      <point x="220.18965517241378" y="-5.0" type="curve" smooth="yes"/>
      <point x="317.8666666666667" y="-5.0"/>
      <point x="400.0597701149425" y="60.61494252873563"/>
      <point x="400.0597701149425" y="173.04367816091954" type="curve" smooth="yes"/>
      <point x="400.0597701149425" y="252.50574712643677"/>
      <point x="346.72068965517246" y="308.51724137931035"/>
      <point x="266.14482758620693" y="308.51724137931035" type="curve" smooth="yes"/>
      <point x="175.59080459770115" y="308.51724137931035"/>
      <point x="109.06896551724137" y="237.13793103448276"/>
      <point x="78.90459770114943" y="128.23563218390805" type="curve"/>
      <point x="106.50804597701149" y="102.26666666666667" type="line"/>
      <point x="128.79540229885058" y="188.84482758620692"/>
      <point x="174.0862068965517" y="237.2965517241379"/>
      <point x="228.87471264367815" y="237.2965517241379" type="curve" smooth="yes"/>
      <point x="275.4402298850575" y="237.2965517241379"/>
      <point x="298.2528735632184" y="202.96091954022987"/>
      <point x="298.2528735632184" y="157.80344827586208" type="curve" smooth="yes"/>
      <point x="298.2528735632184" y="99.15632183908046"/>
      <point x="265.6114942528735" y="52.51264367816092"/>
      <point x="205.4942528735632" y="52.51264367816092" type="curve" smooth="yes"/>
      <point x="140.6126436781609" y="52.51264367816092"/>
      <point x="97.42643678160921" y="114.20689655172414"/>
      <point x="97.42643678160921" y="211.7816091954023" type="curve" smooth="yes"/>
      <point x="97.42643678160921" y="379.68850574712644"/>
      <point x="266.0563218390805" y="505.6528735632184"/>
      <point x="463.2908045977011" y="505.6528735632184" type="curve" smooth="yes"/>
      <point x="626.1402298850575" y="505.6528735632184"/>
      <point x="760.8563218390806" y="414.27586206896547"/>
      <point x="760.8563218390806" y="255.25747126436784" type="curve" smooth="yes"/>
      <point x="760.8563218390806" y="148.44942528735632"/>
      <point x="713.9103448275863" y="53.0183908045977"/>
      <point x="629.9712643678162" y="53.0183908045977" type="curve" smooth="yes"/>
      <point x="545.416091954023" y="53.0183908045977"/>
      <point x="564.9241379310346" y="172.48390804597705"/>
      <point x="633.3241379310346" y="260.0770114942528" type="curve"/>
      <point x="582.0287356321838" y="299.2298850574712" type="line"/>
      <point x="423.0034482758621" y="175.0494252873563"/>
      <point x="367.4609195402299" y="-31.022988505747126"/>
      <point x="513.3689655172413" y="-108.97471264367816" type="curve"/>
      <point x="512.3689655172413" y="-113.97471264367816" type="line"/>
      <point x="384.42758620689654" y="-131.9287356321839"/>
      <point x="325.3344827586207" y="-264.23333333333335"/>
      <point x="209.6287356321839" y="-264.23333333333335" type="curve" smooth="yes"/>
      <point x="163.8862068965517" y="-264.23333333333335"/>
      <point x="137.59080459770115" y="-233.816091954023"/>
      <point x="137.59080459770115" y="-196.2080459770115" type="curve" smooth="yes"/>
      <point x="137.59080459770115" y="-151.68045977011494"/>
      <point x="160.94367816091955" y="-128.87011494252874"/>
      <point x="204.74827586206897" y="-96.05287356321838" type="curve"/>
      <point x="174.78620689655173" y="-56.71034482758621" type="line"/>
      <point x="117.74942528735632" y="-99.3816091954023"/>
      <point x="80.41494252873564" y="-137.37701149425288"/>
      <point x="80.41494252873564" y="-205.11724137931034" type="curve" smooth="yes"/>
      <point x="80.41494252873564" y="-274.6620689655173"/>
      <point x="134.51264367816094" y="-330.82298850574716"/>
    </contour>
  </outline>
</glyph>
<glyph name="oo-tamil" format="2">
  <advance width="922.9022988505748"/>
  <unicode hex="0B93"/>
  <note>
uni0B93
</note>
  <anchor x="396.75747126436784" y="0.0" name="bottom"/>
  <anchor x="329.08045977011494" y="-308.47586206896557" name="nukta"/>
  <anchor x="507.03908045977016" y="556.6850574712644" name="top"/>
  <anchor x="509.7908045977011" y="556.6850574712644" name="vedic"/>
  <outline>
    <contour>
      <point x="202.01494252873565" y="-345.1137931034483" type="curve" smooth="yes"/>
      <point x="395.1586206896552" y="-345.1137931034483"/>
      <point x="472.09540229885056" y="-144.4586206896552"/>
      <point x="628.0149425287357" y="-144.4586206896552" type="curve" smooth="yes"/>
      <point x="656.0517241379312" y="-144.4586206896552" type="line"/>
      <point x="668.0436781609195" y="-88.21379310344827" type="line"/>
      <point x="630.2620689655172" y="-88.21379310344827" type="line" smooth="yes"/>
      <point x="468.2977011494253" y="-88.21379310344827"/>
      <point x="428.4850574712643" y="75.01034482758621"/>
      <point x="546.8781609195402" y="205.22988505747128" type="curve"/>
      <point x="551.9793103448275" y="202.22988505747128" type="line"/>
      <point x="493.15287356321835" y="96.17471264367816"/>
      <point x="523.155172413793" y="-4.898850574712644"/>
      <point x="639.4160919540229" y="-4.898850574712644" type="curve" smooth="yes"/>
      <point x="767.6988505747128" y="-4.898850574712644"/>
      <point x="863.4402298850575" y="95.93218390804599"/>
      <point x="863.4402298850575" y="246.60919540229884" type="curve" smooth="yes"/>
      <point x="863.4402298850575" y="458.99310344827586"/>
      <point x="678.6298850574714" y="561.6850574712644"/>
      <point x="474.3011494252873" y="561.6850574712644" type="curve" smooth="yes"/>
      <point x="236.98275862068965" y="561.6850574712644"/>
      <point x="40.08045977011494" y="409.5609195402299"/>
      <point x="40.08045977011494" y="207.91724137931035" type="curve" smooth="yes"/>
      <point x="40.08045977011494" y="80.90919540229885"/>
      <point x="110.65517241379311" y="-5.0"/>
      <point x="220.18965517241378" y="-5.0" type="curve" smooth="yes"/>
      <point x="317.8666666666667" y="-5.0"/>
      <point x="400.0597701149425" y="60.61494252873563"/>
      <point x="400.0597701149425" y="173.04367816091954" type="curve" smooth="yes"/>
      <point x="400.0597701149425" y="252.50574712643677"/>
      <point x="346.72068965517246" y="308.51724137931035"/>
      <point x="266.14482758620693" y="308.51724137931035" type="curve" smooth="yes"/>
      <point x="175.59080459770115" y="308.51724137931035"/>
      <point x="109.06896551724137" y="237.13793103448276"/>
      <point x="78.90459770114943" y="128.23563218390805" type="curve"/>
      <point x="106.50804597701149" y="102.26666666666667" type="line"/>
      <point x="128.79540229885058" y="188.84482758620692"/>
      <point x="174.0862068965517" y="237.2965517241379"/>
      <point x="228.87471264367815" y="237.2965517241379" type="curve" smooth="yes"/>
      <point x="275.4402298850575" y="237.2965517241379"/>
      <point x="298.2528735632184" y="202.96091954022987"/>
      <point x="298.2528735632184" y="157.80344827586208" type="curve" smooth="yes"/>
      <point x="298.2528735632184" y="99.15632183908046"/>
      <point x="265.6114942528735" y="52.51264367816092"/>
      <point x="205.4942528735632" y="52.51264367816092" type="curve" smooth="yes"/>
      <point x="140.6126436781609" y="52.51264367816092"/>
      <point x="97.42643678160921" y="114.20689655172414"/>
      <point x="97.42643678160921" y="211.7816091954023" type="curve" smooth="yes"/>
      <point x="97.42643678160921" y="379.68850574712644"/>
      <point x="266.0563218390805" y="505.6528735632184"/>
      <point x="463.2908045977011" y="505.6528735632184" type="curve" smooth="yes"/>
      <point x="626.1402298850575" y="505.6528735632184"/>
      <point x="760.8563218390806" y="414.27586206896547"/>
      <point x="760.8563218390806" y="255.25747126436784" type="curve" smooth="yes"/>
      <point x="760.8563218390806" y="148.44942528735632"/>
      <point x="713.9103448275863" y="53.0183908045977"/>
      <point x="629.9712643678162" y="53.0183908045977" type="curve" smooth="yes"/>
      <point x="545.416091954023" y="53.0183908045977"/>
      <point x="564.9241379310346" y="172.48390804597705"/>
      <point x="633.3241379310346" y="260.0770114942528" type="curve"/>
      <point x="582.0287356321838" y="299.2298850574712" type="line"/>
      <point x="421.6275862068965" y="175.0494252873563"/>
      <point x="367.00229885057473" y="-31.022988505747126"/>
      <point x="512.9103448275862" y="-108.97471264367816" type="curve"/>
      <point x="511.9103448275862" y="-113.97471264367816" type="line"/>
      <point x="383.9689655172414" y="-131.9287356321839"/>
      <point x="303.03218390804597" y="-280.11034482758623"/>
      <point x="187.3264367816092" y="-280.11034482758623" type="curve" smooth="yes"/>
      <point x="135.01149425287355" y="-280.11034482758623"/>
      <point x="111.94022988505748" y="-248.96781609195403"/>
      <point x="111.94022988505748" y="-209.84137931034482" type="curve" smooth="yes"/>
      <point x="111.94022988505748" y="-166.1103448275862"/>
      <point x="143.2655172413793" y="-137.18620689655174"/>
      <point x="181.14597701149427" y="-137.18620689655174" type="curve" smooth="yes"/>
      <point x="216.46666666666667" y="-137.18620689655174"/>
      <point x="243.0080459770115" y="-156.05287356321838"/>
      <point x="251.18390804597703" y="-195.09310344827585" type="curve"/>
      <point x="288.1747126436781" y="-182.0977011494253"/>
      <point x="317.7402298850575" y="-155.79999999999998"/>
      <point x="317.7402298850575" y="-119.56091954022989" type="curve" smooth="yes"/>
      <point x="317.7402298850575" y="-77.65747126436783"/>
      <point x="276.9712643678161" y="-55.91149425287356"/>
      <point x="226.90459770114947" y="-55.91149425287356" type="curve" smooth="yes"/>
      <point x="132.69655172413792" y="-55.91149425287356"/>
      <point x="56.87011494252873" y="-123.52068965517243"/>
      <point x="56.87011494252873" y="-216.99885057471266" type="curve" smooth="yes"/>
      <point x="56.87011494252873" y="-291.1827586206897"/>
      <point x="115.88390804597701" y="-345.1137931034483"/>
    </contour>
  </outline>
</glyph>
<glyph name="nga-tamil" format="2">
  <advance width="931.8344827586207"/>
  <unicode hex="0B99"/>
  <note>
uni0B99
</note>
  <anchor x="406.2689655172414" y="0.0" name="bottom"/>
  <anchor x="564.9045977011494" y="556.6850574712644" name="imatra"/>
  <anchor x="406.1402298850574" y="0.0" name="nukta"/>
  <anchor x="525.687356321839" y="556.6850574712644" name="top"/>
  <anchor x="524.8310344827586" y="556.6850574712644" name="vedic"/>
  <outline>
    <contour>
      <point x="27.40344827586207" y="0.0" type="line"/>
      <point x="87.82873563218389" y="0.0" type="line"/>
      <point x="194.10459770114943" y="500.8551724137931" type="line"/>
      <point x="335.44137931034487" y="500.8551724137931" type="line"/>
      <point x="269.264367816092" y="191.2183908045977" type="line"/>
      <point x="372.5" y="191.2183908045977" type="line"/>
      <point x="380.9862068965517" y="229.65057471264367" type="line" smooth="yes"/>
      <point x="390.50804597701153" y="274.0045977011494"/>
      <point x="419.41609195402293" y="307.4701149425287"/>
      <point x="458.8379310344827" y="307.4701149425287" type="curve" smooth="yes"/>
      <point x="494.1103448275862" y="307.4701149425287"/>
      <point x="519.1126436781609" y="284.7931034482758"/>
      <point x="519.1126436781609" y="237.75172413793103" type="curve" smooth="yes"/>
      <point x="519.1126436781609" y="136.04022988505747"/>
      <point x="439.0586206896552" y="55.93103448275862"/>
      <point x="347.5471264367816" y="55.93103448275862" type="curve" smooth="yes"/>
      <point x="240.7172413793103" y="55.93103448275862" type="line"/>
      <point x="228.44137931034484" y="0.0" type="line"/>
      <point x="786.3195402298851" y="0.0" type="line"/>
      <point x="904.4126436781609" y="556.6850574712644" type="line"/>
      <point x="795.5643678160918" y="556.6850574712644" type="line"/>
      <point x="689.2885057471265" y="55.93103448275862" type="line"/>
      <point x="469.16436781609195" y="55.93103448275862" type="line"/>
      <point x="552.0632183908046" y="85.86321839080459"/>
      <point x="626.8839080459771" y="155.72528735632181"/>
      <point x="626.8839080459771" y="259.2011494252874" type="curve" smooth="yes"/>
      <point x="626.8839080459771" y="340.47701149425285"/>
      <point x="575.851724137931" y="380.71034482758625"/>
      <point x="511.80459770114936" y="380.71034482758625" type="curve" smooth="yes"/>
      <point x="457.67931034482757" y="380.71034482758625"/>
      <point x="422.9758620689655" y="350.92988505747127"/>
      <point x="402.7701149425287" y="322.3022988505747" type="curve"/>
      <point x="440.7620689655173" y="500.8551724137931" type="line"/>
      <point x="577.0701149425288" y="500.8551724137931" type="line"/>
      <point x="589.080459770115" y="556.6850574712644" type="line"/>
      <point x="145.68965517241378" y="556.6850574712644" type="line"/>
    </contour>
  </outline>
</glyph>
<glyph name="ja-tamil" format="2">
  <advance width="906.880459770115"/>
  <unicode hex="0B9C"/>
  <note>
uni0B9C
</note>
  <anchor x="396.79080459770114" y="0.0" name="bottom"/>
  <anchor x="326.9459770114942" y="-302.71264367816093" name="nukta"/>
  <anchor x="517.8609195402299" y="556.6850574712644" name="top"/>
  <anchor x="514.8597701149425" y="556.6850574712644" name="vedic"/>
  <outline>
    <contour>
      <point x="137.9206896551724" y="-302.71264367816093" type="curve" smooth="yes"/>
      <point x="341.88275862068963" y="-302.71264367816093"/>
      <point x="417.8712643678161" y="-19.570114942528733"/>
      <point x="578.3620689655172" y="-19.570114942528733" type="curve" smooth="yes"/>
      <point x="636.7885057471265" y="-19.570114942528733"/>
      <point x="667.1425287356321" y="-58.20574712643678"/>
      <point x="667.1425287356321" y="-112.98620689655174" type="curve" smooth="yes"/>
      <point x="667.1425287356321" y="-188.8873563218391"/>
      <point x="622.9632183908046" y="-247.59425287356322"/>
      <point x="544.8563218390805" y="-247.59425287356322" type="curve" smooth="yes"/>
      <point x="516.2586206896552" y="-247.59425287356322"/>
      <point x="487.11494252873564" y="-239.04252873563217"/>
      <point x="456.7436781609196" y="-219.6528735632184" type="curve"/>
      <point x="429.2356321839081" y="-261.26781609195405" type="line"/>
      <point x="468.73333333333335" y="-289.5183908045977"/>
      <point x="511.77356321839085" y="-302.71264367816093"/>
      <point x="565.1126436781609" y="-302.71264367816093" type="curve" smooth="yes"/>
      <point x="675.1195402298852" y="-302.71264367816093"/>
      <point x="773.9770114942529" y="-235.01609195402298"/>
      <point x="773.9770114942529" y="-112.72068965517242" type="curve" smooth="yes"/>
      <point x="773.9770114942529" y="-9.982758620689655"/>
      <point x="702.8977011494253" y="38.75632183908046"/>
      <point x="604.9528735632184" y="38.75632183908046" type="curve" smooth="yes"/>
      <point x="391.72758620689655" y="38.75632183908046"/>
      <point x="310.9666666666667" y="-245.16666666666666"/>
      <point x="162.04022988505747" y="-245.16666666666666" type="curve" smooth="yes"/>
      <point x="100.51839080459771" y="-245.16666666666666"/>
      <point x="75.50114942528737" y="-201.77011494252872"/>
      <point x="75.50114942528737" y="-131.45287356321836" type="curve" smooth="yes"/>
      <point x="75.50114942528737" y="25.141379310344828"/>
      <point x="208.48275862068965" y="56.270114942528735"/>
      <point x="438.751724137931" y="81.60689655172413" type="curve" smooth="yes"/>
      <point x="685.6528735632183" y="109.03563218390805"/>
      <point x="871.4908045977011" y="174.8931034482759"/>
      <point x="871.4908045977011" y="389.7241379310344" type="curve" smooth="yes"/>
      <point x="871.4908045977011" y="506.05632183908045"/>
      <point x="790.6298850574714" y="561.8597701149424"/>
      <point x="694.1758620689654" y="561.8597701149424" type="curve" smooth="yes"/>
      <point x="610.6436781609195" y="561.8597701149424"/>
      <point x="544.7896551724139" y="520.416091954023"/>
      <point x="503.05287356321844" y="439.4103448275862" type="curve"/>
      <point x="483.6459770114942" y="520.5057471264367"/>
      <point x="409.35402298850573" y="561.8597701149424"/>
      <point x="317.19310344827585" y="561.8597701149424" type="curve" smooth="yes"/>
      <point x="173.25632183908047" y="561.8597701149424"/>
      <point x="62.9" y="457.78275862068966"/>
      <point x="62.9" y="310.98850574712645" type="curve" smooth="yes"/>
      <point x="62.9" y="227.43793103448277"/>
      <point x="111.02643678160919" y="156.32183908045977"/>
      <point x="196.87011494252872" y="156.32183908045977" type="curve" smooth="yes"/>
      <point x="277.93448275862073" y="156.32183908045977"/>
      <point x="351.3183908045977" y="209.6287356321839"/>
      <point x="351.3183908045977" y="302.2356321839081" type="curve" smooth="yes"/>
      <point x="351.3183908045977" y="371.10459770114943"/>
      <point x="306.47931034482764" y="411.5494252873563"/>
      <point x="244.80919540229885" y="411.5494252873563" type="curve" smooth="yes"/>
      <point x="184.1735632183908" y="411.5494252873563"/>
      <point x="125.42298850574714" y="372.54367816091957"/>
      <point x="92.08620689655172" y="265.97011494252877" type="curve"/>
      <point x="110.53793103448277" y="233.97816091954024" type="line"/>
      <point x="138.11379310344827" y="321.367816091954"/>
      <point x="174.32298850574713" y="349.75172413793103"/>
      <point x="209.57471264367814" y="349.75172413793103" type="curve" smooth="yes"/>
      <point x="241.3965517241379" y="349.75172413793103"/>
      <point x="261.90000000000003" y="329.051724137931"/>
      <point x="261.90000000000003" y="292.8540229885058" type="curve" smooth="yes"/>
      <point x="261.90000000000003" y="246.94367816091955"/>
      <point x="233.73103448275864" y="212.73103448275862"/>
      <point x="189.68275862068967" y="212.73103448275862" type="curve" smooth="yes"/>
      <point x="148.27471264367819" y="212.73103448275862"/>
      <point x="119.30114942528736" y="250.14252873563217"/>
      <point x="119.30114942528736" y="309.23218390804595" type="curve" smooth="yes"/>
      <point x="119.30114942528736" y="418.96091954022995"/>
      <point x="195.9218390804598" y="505.55172413793105"/>
      <point x="307.6620689655172" y="505.55172413793105" type="curve" smooth="yes"/>
      <point x="409.1724137931035" y="505.55172413793105"/>
      <point x="452.61264367816096" y="442.28735632183907"/>
      <point x="430.9988505747126" y="341.5735632183908" type="curve" smooth="yes"/>
      <point x="403.8149425287357" y="214.9448275862069" type="line"/>
      <point x="509.09655172413795" y="214.9448275862069" type="line"/>
      <point x="541.055172413793" y="369.8333333333333" type="line" smooth="yes"/>
      <point x="557.0091954022989" y="448.0149425287357"/>
      <point x="600.7103448275863" y="505.4505747126437"/>
      <point x="671.6885057471264" y="505.4505747126437" type="curve" smooth="yes"/>
      <point x="734.8103448275862" y="505.4505747126437"/>
      <point x="764.9402298850574" y="464.3390804597701"/>
      <point x="764.9402298850574" y="395.76666666666665" type="curve" smooth="yes"/>
      <point x="764.9402298850574" y="193.9873563218391"/>
      <point x="623.8666666666668" y="146.21379310344827"/>
      <point x="380.8931034482759" y="120.4241379310345" type="curve" smooth="yes"/>
      <point x="136.967816091954" y="94.2"/>
      <point x="-30.325287356321837" y="46.11149425287357"/>
      <point x="-30.325287356321837" y="-128.51954022988505" type="curve" smooth="yes"/>
      <point x="-30.325287356321837" y="-234.72068965517244"/>
      <point x="27.058620689655168" y="-302.71264367816093"/>
    </contour>
  </outline>
</glyph>
<glyph name="nya-tamil" format="2">
  <advance width="1205.4816091954021"/>
  <unicode hex="0B9E"/>
  <note>
uni0B9E
</note>
  <anchor x="575.496551724138" y="0.0" name="bottom"/>
  <anchor x="1012.0252873563219" y="556.6850574712644" name="imatra"/>
  <anchor x="512.4425287356322" y="-339.35172413793106" name="nukta"/>
  <anchor x="699.4655172413793" y="556.6850574712644" name="top"/>
  <anchor x="672.7551724137932" y="556.6850574712644" name="vedic"/>
  <outline>
    <contour>
      <point x="511.11494252873564" y="-339.35172413793106" type="curve" smooth="yes"/>
      <point x="863.3310344827587" y="-339.35172413793106"/>
      <point x="1128.0827586206897" y="-112.47931034482758"/>
      <point x="1128.0827586206897" y="179.4505747126437" type="curve" smooth="yes"/>
      <point x="1128.0827586206897" y="282.4367816091954"/>
      <point x="1078.8827586206899" y="344.4022988505747"/>
      <point x="992.3770114942528" y="344.4022988505747" type="curve" smooth="yes"/>
      <point x="907.4965517241379" y="344.4022988505747"/>
      <point x="852.9827586206897" y="277.8574712643678"/>
      <point x="834.2931034482759" y="190.92528735632183" type="curve" smooth="yes"/>
      <point x="824.844827586207" y="146.93218390804597" type="line"/>
      <point x="850.0954022988506" y="146.93218390804597" type="line"/>
      <point x="859.2678160919539" y="191.7425287356322" type="line" smooth="yes"/>
      <point x="869.2022988505747" y="239.3551724137931"/>
      <point x="896.1183908045978" y="276.2666666666667"/>
      <point x="945.4735632183908" y="276.2666666666667" type="curve" smooth="yes"/>
      <point x="992.2896551724139" y="276.2666666666667"/>
      <point x="1017.7137931034482" y="240.82758620689654"/>
      <point x="1017.7137931034482" y="174.61149425287357" type="curve" smooth="yes"/>
      <point x="1017.7137931034482" y="-73.05747126436782"/>
      <point x="815.432183908046" y="-283.1172413793103"/>
      <point x="514.5103448275862" y="-283.1172413793103" type="curve" smooth="yes"/>
      <point x="271.4448275862069" y="-283.1172413793103"/>
      <point x="89.02758620689656" y="-122.20114942528735"/>
      <point x="89.02758620689656" y="134.87126436781608" type="curve" smooth="yes"/>
      <point x="89.02758620689656" y="338.65977011494255"/>
      <point x="185.62528735632185" y="491.2045977011494"/>
      <point x="346.4758620689655" y="625.9942528735633" type="curve"/>
      <point x="312.3793103448276" y="666.5057471264367" type="line"/>
      <point x="141.21379310344827" y="523.9149425287357"/>
      <point x="30.973563218390805" y="350.4505747126437"/>
      <point x="30.973563218390805" y="128.39310344827587" type="curve" smooth="yes"/>
      <point x="30.973563218390805" y="-149.2264367816092"/>
      <point x="234.55517241379314" y="-339.35172413793106"/>
    </contour>
    <component base="e-tamil" xOffset="196.70459770114942"/>
  </outline>
</glyph>
<glyph name="tta-tamil" format="2">
  <advance width="821.2298850574713"/>
  <unicode hex="0B9F"/>
  <note>
uni0B9F
</note>
  <anchor x="376.1229885057471" y="0.0" name="bottom"/>
  <anchor x="376.1229885057471" y="0.0" name="nukta"/>
  <anchor x="503.5413793103449" y="556.6850574712644" name="top"/>
  <anchor x="506.3563218390805" y="556.6850574712644" name="vedic"/>
  <outline>
    <contour>
      <point x="27.40344827586207" y="0.0" type="line"/>
      <point x="748.3344827586208" y="0.0" type="line"/>
      <point x="760.3448275862069" y="55.93103448275862" type="line"/>
      <point x="147.5379310344828" y="55.93103448275862" type="line"/>
      <point x="254.07931034482763" y="556.6850574712644" type="line"/>
      <point x="145.68965517241378" y="556.6850574712644" type="line"/>
    </contour>
  </outline>
</glyph>
<glyph name="na-tamil" format="2">
  <advance width="731.380459770115"/>
  <unicode hex="0BA8"/>
  <note>
uni0BA8
</note>
  <anchor x="294.68850574712644" y="0.0" name="bottom"/>
  <anchor x="537.4264367816093" y="556.6850574712644" name="imatra"/>
  <anchor x="265.85172413793106" y="-191.2344827586207" name="nukta"/>
  <anchor x="416.60919540229884" y="556.6850574712644" name="top"/>
  <anchor x="431.61149425287357" y="556.6850574712644" name="vedic"/>
  <outline>
    <contour>
      <point x="56.05287356321839" y="-255.25402298850574" type="curve"/>
      <point x="71.0080459770115" y="-181.82988505747127"/>
      <point x="100.8103448275862" y="-137.72988505747128"/>
      <point x="191.4344827586207" y="-137.72988505747128" type="curve" smooth="yes"/>
      <point x="286.7931034482758" y="-137.72988505747128" type="line" smooth="yes"/>
      <point x="488.45632183908043" y="-137.72988505747128"/>
      <point x="658.3597701149424" y="-21.25402298850575"/>
      <point x="658.3597701149424" y="188.27241379310345" type="curve" smooth="yes"/>
      <point x="658.3597701149424" y="288.36206896551727"/>
      <point x="608.632183908046" y="344.8068965517241"/>
      <point x="526.9551724137931" y="344.8068965517241" type="curve" smooth="yes"/>
      <point x="469.78735632183907" y="344.8068965517241"/>
      <point x="433.61954022988505" y="312.6574712643678"/>
      <point x="412.20919540229886" y="283.6712643678161" type="curve"/>
      <point x="458.31149425287356" y="500.8551724137931" type="line"/>
      <point x="589.3689655172413" y="500.8551724137931" type="line"/>
      <point x="601.6448275862069" y="556.6850574712644" type="line"/>
      <point x="145.167816091954" y="556.6850574712644" type="line"/>
      <point x="27.34022988505747" y="0.0" type="line"/>
      <point x="87.72413793103448" y="0.0" type="line"/>
      <point x="193.82528735632184" y="500.8551724137931" type="line"/>
      <point x="350.36206896551727" y="500.8551724137931" type="line"/>
      <point x="243.99540229885056" y="0.0" type="line"/>
      <point x="351.7701149425287" y="0.0" type="line"/>
      <point x="392.832183908046" y="193.51264367816094" type="line" smooth="yes"/>
      <point x="402.67586206896556" y="239.82298850574713"/>
      <point x="435.3080459770115" y="275.4068965517242"/>
      <point x="477.60229885057475" y="275.4068965517242" type="curve" smooth="yes"/>
      <point x="522.1551724137931" y="275.4068965517242"/>
      <point x="547.4218390804598" y="245.68045977011494"/>
      <point x="547.4218390804598" y="183.40804597701148" type="curve" smooth="yes"/>
      <point x="547.4218390804598" y="17.924137931034483"/>
      <point x="447.4264367816092" y="-88.25862068965516"/>
      <point x="277.57931034482755" y="-88.25862068965516" type="curve" smooth="yes"/>
      <point x="160.7977011494253" y="-88.25862068965516" type="line" smooth="yes"/>
      <point x="54.38275862068966" y="-88.25862068965516"/>
      <point x="-24.027586206896554" y="-114.04597701149424"/>
      <point x="-24.027586206896554" y="-189.7" type="curve" smooth="yes"/>
      <point x="-24.027586206896554" y="-232.9287356321839"/>
      <point x="5.405747126436782" y="-255.25402298850574"/>
    </contour>
  </outline>
</glyph>
<glyph name="nnna-tamil" format="2">
  <advance width="1216.3367816091954"/>
  <unicode hex="0BA9"/>
  <note>
uni0BA9
</note>
  <anchor x="543.2080459770116" y="0.0" name="bottom"/>
  <anchor x="1128.7149425287357" y="556.6850574712644" name="imatra"/>
  <anchor x="543.4103448275863" y="0.0" name="nukta"/>
  <anchor x="689.7333333333335" y="556.6850574712644" name="top"/>
  <anchor x="685.9252873563217" y="556.6850574712644" name="vedic"/>
  <outline>
    <contour>
      <point x="222.58965517241379" y="-5.0" type="curve" smooth="yes"/>
      <point x="320.0011494252874" y="-5.0"/>
      <point x="403.1724137931035" y="60.61494252873563"/>
      <point x="403.1724137931035" y="173.04367816091954" type="curve" smooth="yes"/>
      <point x="403.1724137931035" y="252.50574712643677"/>
      <point x="348.8896551724138" y="308.51724137931035"/>
      <point x="268.3137931034483" y="308.51724137931035" type="curve" smooth="yes"/>
      <point x="177.75977011494254" y="308.51724137931035"/>
      <point x="110.5609195402299" y="237.13793103448276"/>
      <point x="80.39655172413794" y="128.23563218390805" type="curve"/>
      <point x="108.00000000000001" y="102.26666666666667" type="line"/>
      <point x="130.28735632183907" y="188.84482758620692"/>
      <point x="176.05287356321838" y="237.2965517241379"/>
      <point x="230.84137931034482" y="237.2965517241379" type="curve" smooth="yes"/>
      <point x="277.4068965517241" y="237.2965517241379"/>
      <point x="301.3655172413793" y="202.96091954022987"/>
      <point x="301.3655172413793" y="157.80344827586208" type="curve" smooth="yes"/>
      <point x="301.3655172413793" y="99.15632183908046"/>
      <point x="268.27701149425286" y="52.51264367816092"/>
      <point x="207.8942528735632" y="52.51264367816092" type="curve" smooth="yes"/>
      <point x="142.48160919540229" y="52.51264367816092"/>
      <point x="97.34597701149427" y="114.6264367816092"/>
      <point x="97.34597701149427" y="212.20114942528735" type="curve" smooth="yes"/>
      <point x="97.34597701149427" y="373.0402298850575"/>
      <point x="244.63333333333333" y="505.55172413793105"/>
      <point x="420.95632183908043" y="505.55172413793105" type="curve" smooth="yes"/>
      <point x="593.7793103448276" y="505.55172413793105"/>
      <point x="704.6758620689654" y="383.08505747126435"/>
      <point x="704.4735632183907" y="228.5551724137931" type="curve" smooth="yes"/>
      <point x="704.3724137931034" y="124.64367816091954"/>
      <point x="661.4643678160919" y="54.688505747126435"/>
      <point x="591.6298850574711" y="54.688505747126435" type="curve" smooth="yes"/>
      <point x="548.2977011494253" y="54.688505747126435"/>
      <point x="524.7620689655173" y="93.20689655172414"/>
      <point x="524.7620689655173" y="164.39885057471267" type="curve" smooth="yes"/>
      <point x="524.7620689655173" y="343.79195402298853"/>
      <point x="705.5655172413793" y="500.8551724137931"/>
      <point x="904.303448275862" y="500.8551724137931" type="curve" smooth="yes"/>
      <point x="1244.7252873563218" y="500.8551724137931" type="line"/>
      <point x="1256.6344827586208" y="556.6850574712644" type="line"/>
      <point x="912.9448275862069" y="556.6850574712644" type="line" smooth="yes"/>
      <point x="676.3747126436781" y="556.6850574712644"/>
      <point x="467.62758620689664" y="375.71954022988507"/>
      <point x="467.62758620689664" y="161.35747126436783" type="curve" smooth="yes"/>
      <point x="467.62758620689664" y="67.52068965517242"/>
      <point x="509.9528735632184" y="-4.898850574712644"/>
      <point x="609.312643678161" y="-4.898850574712644" type="curve" smooth="yes"/>
      <point x="719.7183908045977" y="-4.898850574712644"/>
      <point x="809.128735632184" y="83.62758620689655"/>
      <point x="809.128735632184" y="224.4931034482759" type="curve" smooth="yes"/>
      <point x="809.128735632184" y="433.8885057471265"/>
      <point x="643.5356321839081" y="561.6850574712644"/>
      <point x="429.33678160919544" y="561.6850574712644" type="curve" smooth="yes"/>
      <point x="217.82758620689654" y="561.6850574712644"/>
      <point x="40.00000000000001" y="403.5655172413793"/>
      <point x="40.00000000000001" y="208.3367816091954" type="curve" smooth="yes"/>
      <point x="40.00000000000001" y="81.3287356321839"/>
      <point x="112.52413793103447" y="-5.0"/>
    </contour>
    <contour>
      <point x="886.735632183908" y="0.0" type="line"/>
      <point x="994.2528735632184" y="0.0" type="line"/>
      <point x="1106.9137931034481" y="529.8827586206896" type="line"/>
      <point x="999.5712643678161" y="529.8827586206896" type="line"/>
    </contour>
  </outline>
</glyph>
<glyph name="pa-tamil" format="2">
  <advance width="821.6643678160921"/>
  <unicode hex="0BAA"/>
  <note>
uni0BAA
</note>
  <anchor x="352.9229885057471" y="0.0" name="bottom"/>
  <anchor x="786.4057471264368" y="556.6850574712644" name="imatra"/>
  <anchor x="352.9229885057471" y="0.0" name="nukta"/>
  <anchor x="470.1712643678161" y="556.6850574712644" name="top"/>
  <anchor x="470.89540229885057" y="556.6850574712644" name="vedic"/>
  <outline>
    <contour>
      <point x="27.40344827586207" y="0.0" type="line"/>
      <point x="676.1494252873564" y="0.0" type="line"/>
      <point x="794.5264367816092" y="556.6850574712644" type="line"/>
      <point x="686.4850574712644" y="556.6850574712644" type="line"/>
      <point x="579.9436781609196" y="55.93103448275862" type="line"/>
      <point x="146.83908045977012" y="55.93103448275862" type="line"/>
      <point x="253.38045977011492" y="556.6850574712644" type="line"/>
      <point x="145.68965517241378" y="556.6850574712644" type="line"/>
    </contour>
  </outline>
</glyph>
<glyph name="ma-tamil" format="2">
  <advance width="834.7459770114943"/>
  <unicode hex="0BAE"/>
  <note>
uni0BAE
</note>
  <anchor x="358.7735632183908" y="0.0" name="bottom"/>
  <anchor x="797.4551724137932" y="556.6850574712644" name="imatra"/>
  <anchor x="359.5988505747126" y="0.0" name="nukta"/>
  <anchor x="503.6436781609195" y="556.6850574712644" name="top"/>
  <anchor x="492.9241379310345" y="556.6850574712644" name="vedic"/>
  <outline>
    <contour>
      <point x="27.40344827586207" y="0.0" type="line"/>
      <point x="565.3172413793104" y="0.0" type="line" smooth="yes"/>
      <point x="715.6620689655172" y="0.0"/>
      <point x="778.5459770114942" y="145.85862068965517"/>
      <point x="778.5459770114942" y="326.49310344827586" type="curve" smooth="yes"/>
      <point x="778.5459770114942" y="471.14942528735634"/>
      <point x="715.8540229885058" y="561.8597701149424"/>
      <point x="603.0080459770115" y="561.8597701149424" type="curve" smooth="yes"/>
      <point x="507.16436781609195" y="561.8597701149424"/>
      <point x="445.6367816091954" y="502.88965517241377"/>
      <point x="424.2954022988506" y="400.7712643678161" type="curve" smooth="yes"/>
      <point x="351.81149425287356" y="55.93103448275862" type="line"/>
      <point x="147.5379310344828" y="55.93103448275862" type="line"/>
      <point x="254.07931034482763" y="556.6850574712644" type="line"/>
      <point x="145.68965517241378" y="556.6850574712644" type="line"/>
    </contour>
    <contour>
      <point x="460.0448275862069" y="55.93103448275862" type="line"/>
      <point x="533.244827586207" y="403.82183908045977" type="line" smooth="yes"/>
      <point x="547.6666666666666" y="471.40000000000003"/>
      <point x="574.7436781609196" y="499.01609195402295"/>
      <point x="621.7632183908047" y="499.01609195402295" type="curve" smooth="yes"/>
      <point x="677.0183908045979" y="499.01609195402295"/>
      <point x="717.1448275862068" y="445.32183908045977"/>
      <point x="717.1448275862068" y="318.09999999999997" type="curve" smooth="yes"/>
      <point x="717.1448275862068" y="184.39655172413794"/>
      <point x="676.3091954022989" y="55.93103448275862"/>
      <point x="570.2275862068965" y="55.93103448275862" type="curve" smooth="yes"/>
    </contour>
  </outline>
</glyph>
<glyph name="ra-tamil" format="2">
  <advance width="594.667816091954"/>
  <unicode hex="0BB0"/>
  <note>
uni0BB0
</note>
  <anchor x="239.17816091954026" y="0.0" name="bottom"/>
  <anchor x="567.7678160919539" y="556.6850574712644" name="imatra"/>
  <anchor x="195.06436781609193" y="-206.79770114942528" name="nukta"/>
  <anchor x="379.83678160919544" y="556.6850574712644" name="top"/>
  <anchor x="391.18275862068964" y="556.6850574712644" name="vedic"/>
  <outline>
    <contour>
      <point x="85.88735632183906" y="-234.94827586206898" type="line"/>
      <point x="378.8793103448276" y="23.181609195402302" type="line"/>
      <point x="479.4011494252874" y="500.8551724137931" type="line"/>
      <point x="623.0563218390804" y="500.8551724137931" type="line"/>
      <point x="634.6080459770114" y="556.6850574712644" type="line"/>
      <point x="145.68965517241378" y="556.6850574712644" type="line"/>
      <point x="27.40344827586207" y="0.0" type="line"/>
      <point x="88.41954022988504" y="0.0" type="line"/>
      <point x="194.69540229885058" y="500.8551724137931" type="line"/>
      <point x="370.92758620689654" y="500.8551724137931" type="line"/>
      <point x="264.3735632183908" y="0.17126436781609133" type="line"/>
      <point x="49.07701149425287" y="-191.5632183908046" type="line"/>
    </contour>
  </outline>
</glyph>
<glyph name="rra-tamil" format="2">
  <advance width="787.8252873563218"/>
  <unicode hex="0BB1"/>
  <note>
uni0BB1
</note>
  <anchor x="333.9103448275862" y="0.0" name="bottom"/>
  <anchor x="290.4068965517242" y="-195.64367816091954" name="nukta"/>
  <anchor x="431.6390804597701" y="556.6850574712644" name="top"/>
  <anchor x="460.6275862068966" y="556.6850574712644" name="vedic"/>
  <outline>
    <contour>
      <point x="56.62758620689655" y="-249.99310344827586" type="curve"/>
      <point x="71.58275862068965" y="-176.5689655172414"/>
      <point x="101.38505747126437" y="-133.38620689655173"/>
      <point x="192.00919540229884" y="-133.38620689655173" type="curve" smooth="yes"/>
      <point x="299.35977011494253" y="-133.38620689655173" type="line" smooth="yes"/>
      <point x="586.2298850574712" y="-133.38620689655173"/>
      <point x="738.0471264367816" y="52.934482758620696"/>
      <point x="738.0471264367816" y="336.1390804597701" type="curve" smooth="yes"/>
      <point x="738.0471264367816" y="477.0402298850575"/>
      <point x="668.1597701149425" y="561.6850574712644"/>
      <point x="552.5275862068966" y="561.6850574712644" type="curve" smooth="yes"/>
      <point x="467.2206896551724" y="561.6850574712644"/>
      <point x="413.7712643678161" y="509.3183908045977"/>
      <point x="388.0057471264368" y="468.1425287356322" type="curve"/>
      <point x="377.60114942528736" y="510.232183908046"/>
      <point x="341.4459770114943" y="560.7862068965517"/>
      <point x="265.48275862068965" y="560.7862068965517" type="curve" smooth="yes"/>
      <point x="186.23563218390805" y="560.7862068965517"/>
      <point x="128.36896551724138" y="504.9689655172414"/>
      <point x="108.9632183908046" y="412.47241379310344" type="curve" smooth="yes"/>
      <point x="21.16781609195402" y="0.0" type="line"/>
      <point x="81.45057471264367" y="0.0" type="line"/>
      <point x="168.07126436781607" y="408.80114942528735" type="line" smooth="yes"/>
      <point x="180.93563218390807" y="470.1206896551724"/>
      <point x="210.82758620689657" y="503.5770114942529"/>
      <point x="257.7413793103449" y="503.5770114942529" type="curve" smooth="yes"/>
      <point x="314.4344827586207" y="503.5770114942529"/>
      <point x="331.45517241379315" y="454.46436781609196"/>
      <point x="318.39885057471264" y="392.3287356321839" type="curve" smooth="yes"/>
      <point x="234.91494252873562" y="0.0" type="line"/>
      <point x="343.5528735632184" y="0.0" type="line"/>
      <point x="427.68620689655177" y="395.1942528735632" type="line" smooth="yes"/>
      <point x="442.7436781609195" y="464.9137931034482"/>
      <point x="486.56091954022986" y="504.4758620689655"/>
      <point x="539.1413793103447" y="504.4758620689655" type="curve" smooth="yes"/>
      <point x="601.1816091954023" y="504.4758620689655"/>
      <point x="631.4655172413794" y="453.2701149425287"/>
      <point x="631.4655172413794" y="356.67816091954023" type="curve" smooth="yes"/>
      <point x="631.4655172413794" y="106.93908045977011"/>
      <point x="527.8850574712643" y="-81.31839080459771"/>
      <point x="300.38620689655176" y="-81.31839080459771" type="curve" smooth="yes"/>
      <point x="161.54712643678164" y="-81.31839080459771" type="line" smooth="yes"/>
      <point x="54.95747126436782" y="-81.31839080459771"/>
      <point x="-23.452873563218393" y="-108.683908045977"/>
      <point x="-23.452873563218393" y="-184.33793103448275" type="curve" smooth="yes"/>
      <point x="-23.452873563218393" y="-227.56666666666666"/>
      <point x="5.980459770114943" y="-249.99310344827586"/>
    </contour>
  </outline>
</glyph>
<glyph name="la-tamil" format="2">
  <advance width="968.9712643678162"/>
  <unicode hex="0BB2"/>
  <note>
uni0BB2
</note>
  <anchor x="426.8034482758621" y="0.0" name="bottom"/>
  <anchor x="426.8034482758621" y="0.0" name="nukta"/>
  <anchor x="563.8310344827587" y="556.6850574712644" name="top"/>
  <anchor x="542.8597701149425" y="556.6850574712644" name="vedic"/>
  <outline>
    <contour>
      <point x="224.1218390804598" y="-5.0" type="curve" smooth="yes"/>
      <point x="321.53333333333336" y="-5.0"/>
      <point x="404.70459770114945" y="60.61494252873563"/>
      <point x="404.70459770114945" y="173.04367816091954" type="curve" smooth="yes"/>
      <point x="404.70459770114945" y="252.50574712643677"/>
      <point x="350.21954022988507" y="308.51724137931035"/>
      <point x="269.64367816091954" y="308.51724137931035" type="curve" smooth="yes"/>
      <point x="179.08965517241379" y="308.51724137931035"/>
      <point x="112.09310344827587" y="237.13793103448276"/>
      <point x="81.92873563218392" y="128.23563218390805" type="curve"/>
      <point x="109.53218390804597" y="102.26666666666667" type="line"/>
      <point x="131.81954022988506" y="188.84482758620692"/>
      <point x="177.58505747126438" y="237.2965517241379"/>
      <point x="232.37356321839079" y="237.2965517241379" type="curve" smooth="yes"/>
      <point x="278.9390804597701" y="237.2965517241379"/>
      <point x="302.8977011494253" y="202.96091954022987"/>
      <point x="302.8977011494253" y="157.80344827586208" type="curve" smooth="yes"/>
      <point x="302.8977011494253" y="99.15632183908046"/>
      <point x="269.8091954022988" y="52.51264367816092"/>
      <point x="209.4264367816092" y="52.51264367816092" type="curve" smooth="yes"/>
      <point x="144.01379310344828" y="52.51264367816092"/>
      <point x="98.87816091954024" y="114.6264367816092"/>
      <point x="98.87816091954024" y="212.20114942528735" type="curve" smooth="yes"/>
      <point x="98.87816091954024" y="371.2586206896551"/>
      <point x="211.3632183908046" y="505.24827586206897"/>
      <point x="378.21609195402294" y="505.24827586206897" type="curve" smooth="yes"/>
      <point x="501.564367816092" y="505.24827586206897"/>
      <point x="558.6977011494254" y="424.067816091954"/>
      <point x="530.8977011494253" y="297.84942528735627" type="curve" smooth="yes"/>
      <point x="505.787356321839" y="185.60919540229884" type="line" smooth="yes"/>
      <point x="482.5735632183908" y="81.08620689655173"/>
      <point x="528.9344827586207" y="-1.0758620689655176"/>
      <point x="644.8068965517241" y="-1.0758620689655176" type="curve" smooth="yes"/>
      <point x="806.9114942528736" y="-1.0758620689655176"/>
      <point x="926.7298850574713" y="155.43448275862067"/>
      <point x="926.7298850574713" y="356.2344827586207" type="curve" smooth="yes"/>
      <point x="926.7298850574713" y="436.7908045977012"/>
      <point x="903.6" y="503.6"/>
      <point x="868.9091954022989" y="562.1436781609195" type="curve"/>
      <point x="818.7390804597701" y="532.9850574712643" type="line"/>
      <point x="846.4850574712644" y="483.4218390804598"/>
      <point x="870.6862068965518" y="421.48275862068965"/>
      <point x="870.6862068965518" y="350.6551724137931" type="curve" smooth="yes"/>
      <point x="870.6862068965518" y="191.75977011494254"/>
      <point x="776.6310344827587" y="59.68965517241379"/>
      <point x="669.5390804597702" y="59.68965517241379" type="curve" smooth="yes"/>
      <point x="607.7816091954023" y="59.68965517241379"/>
      <point x="597.6045977011495" y="113.5183908045977"/>
      <point x="612.8712643678161" y="181.65747126436779" type="curve" smooth="yes"/>
      <point x="639.0494252873564" y="299.6528735632184" type="line" smooth="yes"/>
      <point x="675.4114942528736" y="464.6172413793103"/>
      <point x="572.3459770114943" y="561.6850574712644"/>
      <point x="394.80689655172415" y="561.6850574712644" type="curve" smooth="yes"/>
      <point x="187.72988505747128" y="561.6850574712644"/>
      <point x="41.53218390804598" y="401.4804597701149"/>
      <point x="41.53218390804598" y="208.3367816091954" type="curve" smooth="yes"/>
      <point x="41.53218390804598" y="81.3287356321839"/>
      <point x="114.05632183908045" y="-5.0"/>
    </contour>
  </outline>
</glyph>
<glyph name="llla-tamil" format="2">
  <advance width="834.7459770114943"/>
  <unicode hex="0BB4"/>
  <note>
uni0BB4
</note>
  <anchor x="356.7344827586207" y="0.0" name="bottom"/>
  <anchor x="287.72758620689655" y="-327.2218390804598" name="nukta"/>
  <anchor x="507.6011494252873" y="556.6850574712644" name="top"/>
  <anchor x="492.38045977011495" y="556.6850574712644" name="vedic"/>
  <anchor x="797.4551724137932" y="556.6850574712644" name="imatra"/>
  <outline>
    <contour>
      <point x="186.27241379310345" y="-354.1229885057471" type="curve" smooth="yes"/>
      <point x="380.7586206896552" y="-354.1229885057471"/>
      <point x="424.8091954022989" y="-169.57816091954024"/>
      <point x="575.2689655172414" y="-169.57816091954024" type="curve" smooth="yes"/>
      <point x="628.3540229885058" y="-169.57816091954024" type="line"/>
      <point x="640.8781609195403" y="-113.14022988505748" type="line"/>
      <point x="574.0586206896552" y="-113.14022988505748" type="line" smooth="yes"/>
      <point x="487.99655172413793" y="-113.14022988505748"/>
      <point x="433.93908045977014" y="-67.78620689655173"/>
      <point x="450.23448275862074" y="9.927586206896551" type="curve" smooth="yes"/>
      <point x="469.84482758620686" y="101.85747126436782" type="line"/>
      <point x="362.1425287356322" y="101.85747126436782" type="line"/>
      <point x="343.083908045977" y="11.104597701149427" type="line" smooth="yes"/>
      <point x="328.0827586206896" y="-60.36896551724138"/>
      <point x="388.37471264367815" y="-126.75172413793105"/>
      <point x="464.4689655172414" y="-135.16781609195402" type="curve"/>
      <point x="463.4689655172414" y="-140.00344827586204" type="line"/>
      <point x="328.40459770114944" y="-152.0781609195402"/>
      <point x="289.4241379310345" y="-293.79540229885055"/>
      <point x="170.43218390804597" y="-293.79540229885055" type="curve" smooth="yes"/>
      <point x="118.61609195402299" y="-293.79540229885055"/>
      <point x="84.40689655172413" y="-258.23908045977015"/>
      <point x="84.40689655172413" y="-211.58505747126438" type="curve" smooth="yes"/>
      <point x="84.40689655172413" y="-160.5333333333333"/>
      <point x="118.02643678160919" y="-124.78045977011494"/>
      <point x="171.26091954022988" y="-124.78045977011494" type="curve" smooth="yes"/>
      <point x="202.54597701149427" y="-124.78045977011494"/>
      <point x="232.54137931034478" y="-138.97241379310344"/>
      <point x="255.00229885057473" y="-162.77356321839082" type="curve"/>
      <point x="294.1620689655172" y="-121.46896551724139" type="line"/>
      <point x="261.70000000000005" y="-87.04252873563219"/>
      <point x="219.44137931034481" y="-70.05057471264368"/>
      <point x="171.51724137931035" y="-70.05057471264368" type="curve" smooth="yes"/>
      <point x="87.6448275862069" y="-70.05057471264368"/>
      <point x="26.19080459770115" y="-134.34022988505745"/>
      <point x="26.19080459770115" y="-217.967816091954" type="curve" smooth="yes"/>
      <point x="26.19080459770115" y="-295.38045977011495"/>
      <point x="91.10919540229884" y="-354.1229885057471"/>
    </contour>
    <component base="ma-tamil"/>
  </outline>
</glyph>
<glyph name="va-tamil" format="2">
  <advance width="1046.53908045977"/>
  <unicode hex="0BB5"/>
  <note>
uni0BB5
</note>
  <anchor x="502.9609195402299" y="0.0" name="bottom"/>
  <anchor x="926.8954022988506" y="556.6850574712644" name="imatra"/>
  <anchor x="502.3540229885058" y="0.0" name="nukta"/>
  <anchor x="581.7724137931034" y="556.6850574712644" name="top"/>
  <anchor x="568.4195402298851" y="556.6850574712644" name="vedic"/>
  <outline>
    <contour>
      <point x="222.76436781609198" y="-5.0" type="curve" smooth="yes"/>
      <point x="320.17586206896556" y="-5.0"/>
      <point x="403.3471264367816" y="60.61494252873563"/>
      <point x="403.3471264367816" y="173.04367816091954" type="curve" smooth="yes"/>
      <point x="403.3471264367816" y="252.50574712643677"/>
      <point x="348.8620689655172" y="308.51724137931035"/>
      <point x="268.28620689655173" y="308.51724137931035" type="curve" smooth="yes"/>
      <point x="177.73218390804598" y="308.51724137931035"/>
      <point x="110.73563218390804" y="237.13793103448276"/>
      <point x="80.57126436781608" y="128.23563218390805" type="curve"/>
      <point x="108.17471264367816" y="102.26666666666667" type="line"/>
      <point x="130.46206896551723" y="188.84482758620692"/>
      <point x="176.22758620689655" y="237.2965517241379"/>
      <point x="231.01609195402298" y="237.2965517241379" type="curve" smooth="yes"/>
      <point x="277.5816091954023" y="237.2965517241379"/>
      <point x="301.5402298850575" y="202.96091954022987"/>
      <point x="301.5402298850575" y="157.80344827586208" type="curve" smooth="yes"/>
      <point x="301.5402298850575" y="99.15632183908046"/>
      <point x="268.451724137931" y="52.51264367816092"/>
      <point x="208.06896551724137" y="52.51264367816092" type="curve" smooth="yes"/>
      <point x="142.65632183908045" y="52.51264367816092"/>
      <point x="97.52068965517242" y="114.6264367816092"/>
      <point x="97.52068965517242" y="212.20114942528735" type="curve" smooth="yes"/>
      <point x="97.52068965517242" y="365.6241379310345"/>
      <point x="232.03218390804597" y="505.24827586206897"/>
      <point x="390.90000000000003" y="505.24827586206897" type="curve" smooth="yes"/>
      <point x="518.0068965517241" y="505.24827586206897"/>
      <point x="589.6459770114943" y="428.24942528735636"/>
      <point x="589.4436781609196" y="308.167816091954" type="curve" smooth="yes"/>
      <point x="589.2413793103449" y="203.7494252873563"/>
      <point x="541.4586206896552" y="122.53678160919539"/>
      <point x="470.3597701149426" y="42.47931034482758" type="curve"/>
      <point x="479.4908045977012" y="0.0" type="line"/>
      <point x="901.0241379310345" y="0.0" type="line"/>
      <point x="1019.4011494252874" y="556.6850574712644" type="line"/>
      <point x="911.167816091954" y="556.6850574712644" type="line"/>
      <point x="804.4333333333333" y="55.93103448275862" type="line"/>
      <point x="562.9747126436782" y="55.93103448275862" type="line"/>
      <point x="637.9528735632184" y="123.76896551724138"/>
      <point x="697.1137931034482" y="207.27816091954023"/>
      <point x="697.1137931034482" y="322.45287356321836" type="curve" smooth="yes"/>
      <point x="697.1137931034482" y="477.71494252873566"/>
      <point x="573.0528735632183" y="561.6850574712644"/>
      <point x="406.16436781609195" y="561.6850574712644" type="curve" smooth="yes"/>
      <point x="203.57816091954024" y="561.6850574712644"/>
      <point x="40.17471264367816" y="393.5528735632184"/>
      <point x="40.17471264367816" y="208.3367816091954" type="curve" smooth="yes"/>
      <point x="40.17471264367816" y="81.3287356321839"/>
      <point x="112.69885057471264" y="-5.0"/>
    </contour>
  </outline>
</glyph>
<glyph name="sha-tamil" format="2">
  <advance width="1027.1091954022988"/>
  <unicode hex="0BB6"/>
  <note>
uni0BB6
</note>
  <anchor x="463.0091954022988" y="0.0" name="bottom"/>
  <anchor x="856.8195402298851" y="556.6850574712644" name="imatra"/>
  <anchor x="463.0091954022988" y="0.0" name="nukta"/>
  <anchor x="582.303448275862" y="556.6850574712644" name="top"/>
  <anchor x="586.0758620689655" y="556.6850574712644" name="vedic"/>
  <outline>
    <contour>
      <point x="230.31724137931033" y="-5.0" type="curve" smooth="yes"/>
      <point x="333.7183908045977" y="-5.0"/>
      <point x="412.86551724137934" y="46.11264367816092"/>
      <point x="442.7022988505747" y="186.81839080459773" type="curve" smooth="yes"/>
      <point x="509.167816091954" y="500.8551724137931" type="line"/>
      <point x="632.0459770114943" y="500.8551724137931" type="line"/>
      <point x="560.6827586206896" y="165.78045977011493" type="line" smooth="yes"/>
      <point x="539.1379310344827" y="62.754022988505746"/>
      <point x="590.2264367816092" y="-5.0"/>
      <point x="691.1471264367816" y="-5.0" type="curve" smooth="yes"/>
      <point x="873.7931034482758" y="-5.0"/>
      <point x="994.7068965517241" y="226.8126436781609"/>
      <point x="994.7068965517241" y="424.39195402298856" type="curve" smooth="yes"/>
      <point x="994.7068965517241" y="512.9988505747127"/>
      <point x="951.2574712643678" y="556.6850574712644"/>
      <point x="867.4505747126437" y="556.6850574712644" type="curve" smooth="yes"/>
      <point x="462.04367816091957" y="556.6850574712644" type="line"/>
      <point x="385.03678160919543" y="191.7942528735632" type="line" smooth="yes"/>
      <point x="363.31954022988504" y="87.81379310344828"/>
      <point x="312.1701149425287" y="56.53793103448276"/>
      <point x="255.50574712643675" y="56.53793103448276" type="curve" smooth="yes"/>
      <point x="182.19310344827585" y="56.53793103448276"/>
      <point x="157.08965517241379" y="115.19770114942528"/>
      <point x="173.44712643678162" y="196.48850574712645" type="curve" smooth="yes"/>
      <point x="250.2448275862069" y="556.6850574712644" type="line"/>
      <point x="141.13103448275862" y="556.6850574712644" type="line"/>
      <point x="66.60000000000001" y="202.75172413793106" type="line" smooth="yes"/>
      <point x="40.405747126436786" y="82.06436781609196"/>
      <point x="108.21494252873565" y="-5.0"/>
    </contour>
    <contour>
      <point x="720.632183908046" y="57.144827586206894" type="curve" smooth="yes"/>
      <point x="665.8793103448277" y="57.144827586206894"/>
      <point x="654.8563218390804" y="100.81034482758619"/>
      <point x="667.6827586206897" y="159.6655172413793" type="curve" smooth="yes"/>
      <point x="740.5632183908046" y="500.8551724137931" type="line"/>
      <point x="853.8448275862069" y="500.8551724137931" type="line" smooth="yes"/>
      <point x="912.5885057471264" y="500.8551724137931"/>
      <point x="934.7735632183908" y="473.1712643678161"/>
      <point x="934.7735632183908" y="417.0655172413793" type="curve" smooth="yes"/>
      <point x="934.7735632183908" y="270.1862068965517"/>
      <point x="837.5425287356321" y="57.144827586206894"/>
    </contour>
  </outline>
</glyph>
<glyph name="ssa-tamil" format="2">
  <advance width="1324.6402298850576"/>
  <unicode hex="0BB7"/>
  <note>
uni0BB7
</note>
  <anchor x="615.5206896551724" y="0.0" name="bottom"/>
  <anchor x="541.0000000000001" y="0.0" name="nukta"/>
  <anchor x="751.0816091954024" y="556.6850574712644" name="top"/>
  <anchor x="729.1977011494253" y="556.6850574712644" name="vedic"/>
  <outline>
    <contour>
      <point x="222.76436781609198" y="-5.0" type="curve" smooth="yes"/>
      <point x="320.17586206896556" y="-5.0"/>
      <point x="403.3471264367816" y="60.61494252873563"/>
      <point x="403.3471264367816" y="173.04367816091954" type="curve" smooth="yes"/>
      <point x="403.3471264367816" y="252.50574712643677"/>
      <point x="348.8620689655172" y="308.51724137931035"/>
      <point x="268.28620689655173" y="308.51724137931035" type="curve" smooth="yes"/>
      <point x="177.73218390804598" y="308.51724137931035"/>
      <point x="110.73563218390804" y="237.13793103448276"/>
      <point x="80.57126436781608" y="128.23563218390805" type="curve"/>
      <point x="108.17471264367816" y="102.26666666666667" type="line"/>
      <point x="130.46206896551723" y="188.84482758620692"/>
      <point x="176.22758620689655" y="237.2965517241379"/>
      <point x="231.01609195402298" y="237.2965517241379" type="curve" smooth="yes"/>
      <point x="277.5816091954023" y="237.2965517241379"/>
      <point x="301.5402298850575" y="202.96091954022987"/>
      <point x="301.5402298850575" y="157.80344827586208" type="curve" smooth="yes"/>
      <point x="301.5402298850575" y="99.15632183908046"/>
      <point x="268.451724137931" y="52.51264367816092"/>
      <point x="208.06896551724137" y="52.51264367816092" type="curve" smooth="yes"/>
      <point x="142.65632183908045" y="52.51264367816092"/>
      <point x="97.52068965517242" y="114.6264367816092"/>
      <point x="97.52068965517242" y="212.20114942528735" type="curve" smooth="yes"/>
      <point x="97.52068965517242" y="365.6241379310345"/>
      <point x="232.03218390804597" y="505.24827586206897"/>
      <point x="390.90000000000003" y="505.24827586206897" type="curve" smooth="yes"/>
      <point x="513.4206896551724" y="505.24827586206897"/>
      <point x="589.6459770114943" y="426.4149425287356"/>
      <point x="589.4436781609196" y="306.3333333333333" type="curve" smooth="yes"/>
      <point x="589.2413793103449" y="201.91494252873562"/>
      <point x="541.4586206896552" y="122.53678160919539"/>
      <point x="470.3597701149426" y="42.47931034482758" type="curve"/>
      <point x="479.4908045977012" y="0.0" type="line"/>
      <point x="1210.1057471264367" y="0.0" type="line"/>
      <point x="1280.189655172414" y="330.280459770115" type="line"/>
      <point x="1162.8712643678161" y="277.45977011494256" type="line"/>
      <point x="1115.8528735632185" y="55.93103448275862" type="line"/>
      <point x="562.9747126436782" y="55.93103448275862" type="line"/>
      <point x="637.9528735632184" y="123.76896551724138"/>
      <point x="697.1137931034482" y="205.44367816091955"/>
      <point x="697.1137931034482" y="320.61839080459765" type="curve" smooth="yes"/>
      <point x="697.1137931034482" y="475.88045977011495"/>
      <point x="576.2632183908046" y="561.6850574712644"/>
      <point x="404.32988505747124" y="561.6850574712644" type="curve" smooth="yes"/>
      <point x="201.74367816091953" y="561.6850574712644"/>
      <point x="40.17471264367816" y="394.928735632184"/>
      <point x="40.17471264367816" y="208.3367816091954" type="curve" smooth="yes"/>
      <point x="40.17471264367816" y="81.3287356321839"/>
      <point x="112.69885057471264" y="-5.0"/>
    </contour>
    <contour>
      <point x="816.7816091954022" y="-286.60459770114943" type="line"/>
      <point x="922.0643678160918" y="-286.60459770114943" type="line"/>
      <point x="1072.2045977011494" y="418.8103448275863" type="line" smooth="yes"/>
      <point x="1090.8321839080459" y="506.50574712643675"/>
      <point x="1048.9735632183908" y="561.8597701149424"/>
      <point x="959.9574712643679" y="561.8597701149424" type="curve" smooth="yes"/>
      <point x="859.8448275862069" y="561.8597701149424"/>
      <point x="788.4724137931036" y="481.2862068965518"/>
      <point x="788.4724137931036" y="378.8689655172414" type="curve" smooth="yes"/>
      <point x="788.4724137931036" y="279.4126436781609"/>
      <point x="861.9597701149424" y="212.43448275862067"/>
      <point x="977.2827586206897" y="212.43448275862067" type="curve" smooth="yes"/>
      <point x="1074.3011494252873" y="212.43448275862067"/>
      <point x="1161.1172413793104" y="239.75172413793103"/>
      <point x="1279.0149425287357" y="324.0402298850575" type="curve"/>
      <point x="1281.0885057471264" y="335.564367816092" type="line"/>
      <point x="1254.17816091954" y="365.5574712643678" type="line"/>
      <point x="1159.5022988505746" y="300.1712643678161"/>
      <point x="1077.5528735632186" y="265.60114942528736"/>
      <point x="984.2655172413793" y="265.60114942528736" type="curve" smooth="yes"/>
      <point x="890.7471264367816" y="265.60114942528736"/>
      <point x="843.0655172413793" y="306.4022988505747"/>
      <point x="843.0655172413793" y="384.28275862068966" type="curve" smooth="yes"/>
      <point x="843.0655172413793" y="443.83678160919544"/>
      <point x="875.5057471264367" y="496.8689655172414"/>
      <point x="926.7379310344827" y="496.8689655172414" type="curve" smooth="yes"/>
      <point x="961.7977011494253" y="496.8689655172414"/>
      <point x="977.4724137931034" y="470.9402298850575"/>
      <point x="969.1149425287357" y="430.7758620689655" type="curve" smooth="yes"/>
    </contour>
  </outline>
</glyph>
<glyph name="sa-tamil" format="2">
  <advance width="1254.5183908045976"/>
  <unicode hex="0BB8"/>
  <note>
uni0BB8
</note>
  <anchor x="573.6919540229885" y="0.0" name="bottom"/>
  <anchor x="573.3885057471264" y="0.0" name="nukta"/>
  <anchor x="678.2908045977011" y="556.6850574712644" name="top"/>
  <anchor x="689.932183908046" y="556.6850574712644" name="vedic"/>
  <outline>
    <contour>
      <point x="483.98620689655166" y="0.0" type="line"/>
      <point x="591.7689655172414" y="0.0" type="line"/>
      <point x="680.1068965517242" y="415.8551724137931" type="line" smooth="yes"/>
      <point x="692.1632183908047" y="470.9080459770115"/>
      <point x="721.9919540229886" y="504.9011494252874"/>
      <point x="773.6206896551724" y="504.9011494252874" type="curve" smooth="yes"/>
      <point x="822.7804597701149" y="504.9011494252874"/>
      <point x="851.1367816091954" y="468.98160919540226"/>
      <point x="838.1551724137931" y="408.5045977011494" type="curve" smooth="yes"/>
      <point x="790.46091954023" y="185.60919540229884" type="line" smooth="yes"/>
      <point x="767.8068965517242" y="81.26091954022989"/>
      <point x="813.6080459770117" y="-1.0758620689655176"/>
      <point x="929.4804597701149" y="-1.0758620689655176" type="curve" smooth="yes"/>
      <point x="1091.5850574712642" y="-1.0758620689655176"/>
      <point x="1212.2770114942527" y="155.43448275862067"/>
      <point x="1212.2770114942527" y="356.2344827586207" type="curve" smooth="yes"/>
      <point x="1212.2770114942527" y="436.7908045977012"/>
      <point x="1192.3137931034482" y="502.33333333333337"/>
      <point x="1159.064367816092" y="561.5103448275862" type="curve"/>
      <point x="1107.6275862068965" y="533.6183908045977" type="line"/>
      <point x="1134.5655172413792" y="483.4218390804598"/>
      <point x="1156.2333333333336" y="421.48275862068965"/>
      <point x="1156.2333333333336" y="350.6551724137931" type="curve" smooth="yes"/>
      <point x="1156.2333333333336" y="191.75977011494254"/>
      <point x="1061.3045977011495" y="59.68965517241379"/>
      <point x="954.2126436781608" y="59.68965517241379" type="curve" smooth="yes"/>
      <point x="892.4551724137931" y="59.68965517241379"/>
      <point x="882.3793103448277" y="113.05977011494252"/>
      <point x="897.5448275862069" y="181.65747126436779" type="curve" smooth="yes"/>
      <point x="941.6701149425287" y="386.37931034482756" type="line" smooth="yes"/>
      <point x="964.7862068965517" y="493.07241379310346"/>
      <point x="901.2172413793104" y="561.583908045977"/>
      <point x="794.9885057471264" y="561.583908045977" type="curve" smooth="yes"/>
      <point x="698.3172413793103" y="561.583908045977"/>
      <point x="635.9988505747126" y="498.3758620689655"/>
      <point x="619.9252873563219" y="424.5298850574713" type="curve" smooth="yes"/>
      <point x="601.3195402298851" y="339.0781609195402" type="line"/>
      <point x="558.0275862068966" y="350.783908045977" type="line"/>
    </contour>
    <contour>
      <point x="224.6816091954023" y="-5.0" type="curve" smooth="yes"/>
      <point x="322.0931034482759" y="-5.0"/>
      <point x="405.264367816092" y="60.61494252873563"/>
      <point x="405.264367816092" y="173.04367816091954" type="curve" smooth="yes"/>
      <point x="405.264367816092" y="252.50574712643677"/>
      <point x="350.7793103448276" y="308.51724137931035"/>
      <point x="270.20344827586206" y="308.51724137931035" type="curve" smooth="yes"/>
      <point x="179.6494252873563" y="308.51724137931035"/>
      <point x="112.65287356321838" y="237.13793103448276"/>
      <point x="82.48850574712644" y="128.23563218390805" type="curve"/>
      <point x="110.09195402298849" y="102.26666666666667" type="line"/>
      <point x="132.3793103448276" y="188.84482758620692"/>
      <point x="178.1448275862069" y="237.2965517241379"/>
      <point x="232.9333333333333" y="237.2965517241379" type="curve" smooth="yes"/>
      <point x="279.4988505747126" y="237.2965517241379"/>
      <point x="303.45747126436777" y="202.96091954022987"/>
      <point x="303.45747126436777" y="157.80344827586208" type="curve" smooth="yes"/>
      <point x="303.45747126436777" y="99.15632183908046"/>
      <point x="270.3689655172414" y="52.51264367816092"/>
      <point x="209.98620689655172" y="52.51264367816092" type="curve" smooth="yes"/>
      <point x="144.5735632183908" y="52.51264367816092"/>
      <point x="99.43793103448276" y="114.6264367816092"/>
      <point x="99.43793103448276" y="212.20114942528735" type="curve" smooth="yes"/>
      <point x="99.43793103448276" y="370.03563218390804"/>
      <point x="208.7896551724138" y="505.1471264367816"/>
      <point x="373.7206896551724" y="505.1471264367816" type="curve" smooth="yes"/>
      <point x="494.03908045977005" y="505.1471264367816"/>
      <point x="577.7586206896551" y="437.6022988505747"/>
      <point x="547.9758620689655" y="303.2252873563218" type="curve"/>
      <point x="610.8896551724138" y="307.85747126436775" type="line"/>
      <point x="642.4862068965517" y="465.6735632183908"/>
      <point x="540.0908045977012" y="561.8597701149424"/>
      <point x="383.6264367816092" y="561.8597701149424" type="curve" smooth="yes"/>
      <point x="181.86436781609194" y="561.8597701149424"/>
      <point x="42.09195402298851" y="400.25747126436784"/>
      <point x="42.09195402298851" y="208.3367816091954" type="curve" smooth="yes"/>
      <point x="42.09195402298851" y="81.3287356321839"/>
      <point x="114.61609195402299" y="-5.0"/>
    </contour>
  </outline>
</glyph>
<glyph name="aaMatra-tamil" format="2">
  <advance width="607.3609195402299"/>
  <unicode hex="0BBE"/>
  <note>
uni0BBE
</note>
  <anchor x="269.78275862068966" y="0.0" name="bottom"/>
  <anchor x="268.78275862068966" y="0.0" name="nukta"/>
  <anchor x="381.3344827586207" y="556.6850574712644" name="top"/>
  <anchor x="381.3344827586207" y="556.6850574712644" name="vedic"/>
  <outline>
    <contour>
      <point x="27.40344827586207" y="0.0" type="line"/>
      <point x="88.41954022988504" y="0.0" type="line"/>
      <point x="194.69540229885058" y="500.8551724137931" type="line"/>
      <point x="381.1528735632184" y="500.8551724137931" type="line"/>
      <point x="274.4183908045977" y="0.0" type="line"/>
      <point x="382.3022988505747" y="0.0" type="line"/>
      <point x="488.5781609195402" y="500.8551724137931" type="line"/>
      <point x="635.7494252873563" y="500.8551724137931" type="line"/>
      <point x="647.5850574712643" y="556.6850574712644" type="line"/>
      <point x="145.68965517241378" y="556.6850574712644" type="line"/>
    </contour>
  </outline>
</glyph>
<glyph name="iMatra-tamil" format="2">
  <advance width="211.23908045977012"/>
  <unicode hex="0BBF"/>
  <note>
uni0BBF
</note>
  <anchor x="-32.39540229885058" y="834.5919540229885" name="top"/>
  <outline>
    <contour>
      <point x="8.054022988505746" y="0.0" type="line"/>
      <point x="68.36436781609196" y="0.0" type="line"/>
      <point x="186.74597701149423" y="555.0310344827586" type="line" smooth="yes"/>
      <point x="221.548275862069" y="719.6747126436782"/>
      <point x="136.5977011494253" y="834.5919540229885"/>
      <point x="-32.39540229885058" y="834.5919540229885" type="curve" smooth="yes"/>
      <point x="-164.29885057471265" y="834.5919540229885"/>
      <point x="-257.8896551724138" y="746.6804597701149"/>
      <point x="-257.8896551724138" y="636.2436781609196" type="curve" smooth="yes"/>
      <point x="-257.8896551724138" y="558.1080459770114"/>
      <point x="-207.7137931034483" y="503.67816091954023"/>
      <point x="-137.532183908046" y="503.67816091954023" type="curve" smooth="yes"/>
      <point x="-133.25862068965517" y="503.67816091954023" type="line"/>
      <point x="-122.06666666666668" y="556.6850574712644" type="line"/>
      <point x="-126.23908045977015" y="556.6850574712644" type="line" smooth="yes"/>
      <point x="-166.1712643678161" y="556.6850574712644"/>
      <point x="-193.0264367816092" y="583.1954022988506"/>
      <point x="-193.0264367816092" y="626.187356321839" type="curve" smooth="yes"/>
      <point x="-193.0264367816092" y="693.1804597701149"/>
      <point x="-126.52068965517242" y="737.312643678161"/>
      <point x="-40.864367816091956" y="737.312643678161" type="curve" smooth="yes"/>
      <point x="79.59310344827585" y="737.312643678161"/>
      <point x="149.41954022988506" y="663.177011494253"/>
      <point x="121.88505747126435" y="534.403448275862" type="curve" smooth="yes"/>
    </contour>
  </outline>
</glyph>
<glyph name="iiMatra-tamil" format="2">
  <unicode hex="0BC0"/>
  <note>
uni0BC0
</note>
  <anchor x="59.55172413793103" y="556.6850574712644" name="_imatra"/>
  <anchor x="116.52988505747128" y="888.2712643678161" name="top"/>
  <outline>
    <contour>
      <point x="32.3816091954023" y="504.67816091954023" type="curve" smooth="yes"/>
      <point x="48.82528735632184" y="504.67816091954023" type="line"/>
      <point x="59.55172413793103" y="556.6850574712644" type="line"/>
      <point x="43.68390804597701" y="556.6850574712644" type="line" smooth="yes"/>
      <point x="-16.03563218390805" y="556.6850574712644"/>
      <point x="-58.19655172413794" y="598.9057471264367"/>
      <point x="-58.19655172413794" y="669.1597701149425" type="curve" smooth="yes"/>
      <point x="-58.19655172413794" y="755.6264367816092"/>
      <point x="6.167816091954024" y="832.312643678161"/>
      <point x="108.65632183908046" y="832.312643678161" type="curve" smooth="yes"/>
      <point x="166.35402298850576" y="832.312643678161"/>
      <point x="203.12988505747128" y="800.8287356321839"/>
      <point x="203.12988505747128" y="749.3137931034482" type="curve" smooth="yes"/>
      <point x="203.12988505747128" y="698.1402298850575"/>
      <point x="172.51379310344828" y="662.9701149425288"/>
      <point x="125.62413793103447" y="662.9701149425288" type="curve" smooth="yes"/>
      <point x="47.82183908045977" y="662.9701149425288"/>
      <point x="53.19425287356322" y="770.6436781609196"/>
      <point x="112.8103448275862" y="855.4873563218391" type="curve"/>
      <point x="69.67586206896551" y="859.4873563218391" type="line"/>
      <point x="-21.755172413793105" y="738.0045977011494"/>
      <point x="0.5034482758620692" y="602.8551724137931"/>
      <point x="134.17816091954023" y="602.8551724137931" type="curve" smooth="yes"/>
      <point x="220.32528735632184" y="602.8551724137931"/>
      <point x="289.64367816091954" y="659.8022988505747"/>
      <point x="289.64367816091954" y="748.1367816091955" type="curve" smooth="yes"/>
      <point x="289.64367816091954" y="837.6563218390804"/>
      <point x="216.2103448275862" y="888.2712643678161"/>
      <point x="116.52988505747128" y="888.2712643678161" type="curve" smooth="yes"/>
      <point x="-17.697701149425285" y="888.2712643678161"/>
      <point x="-117.03793103448277" y="784.3873563218391"/>
      <point x="-117.03793103448277" y="663.2781609195403" type="curve" smooth="yes"/>
      <point x="-117.03793103448277" y="563.8827586206895"/>
      <point x="-52.290804597701154" y="504.67816091954023"/>
    </contour>
  </outline>
</glyph>
<glyph name="uMatra-tamil" format="2">
  <advance width="501.0448275862069"/>
  <unicode hex="0BC1"/>
  <note>
uni0BC1
</note>
  <anchor x="267.90000000000003" y="556.6850574712644" name="top"/>
  <outline>
    <contour>
      <point x="305.89195402298856" y="216.55632183908045" type="curve" smooth="yes"/>
      <point x="395.47931034482764" y="216.55632183908045"/>
      <point x="473.87816091954016" y="261.9218390804598"/>
      <point x="497.67931034482757" y="370.364367816092" type="curve" smooth="yes"/>
      <point x="538.0632183908045" y="556.6850574712644" type="line"/>
      <point x="-184.0816091954023" y="556.6850574712644" type="line"/>
      <point x="-150.32298850574713" y="500.8551724137931" type="line"/>
      <point x="418.7011494252873" y="500.8551724137931" type="line"/>
      <point x="389.5747126436782" y="367.2977011494253" type="line" smooth="yes"/>
      <point x="376.5103448275862" y="308.0597701149425"/>
      <point x="342.3977011494253" y="276.7689655172414"/>
      <point x="291.94942528735635" y="276.7689655172414" type="curve" smooth="yes"/>
      <point x="235.06896551724137" y="276.7689655172414"/>
      <point x="211.6080459770115" y="322.64827586206894"/>
      <point x="228.40689655172415" y="399.89885057471264" type="curve" smooth="yes"/>
      <point x="255.3218390804598" y="525.528735632184" type="line"/>
      <point x="195.56321839080456" y="525.528735632184" type="line"/>
      <point x="169.55747126436782" y="404.6896551724138" type="line" smooth="yes"/>
      <point x="144.75747126436784" y="290.24712643678157"/>
      <point x="198.60919540229887" y="216.55632183908045"/>
    </contour>
  </outline>
</glyph>
